<?xml version="1.0" encoding="UTF-8"?>
<svg viewBox="0 0 74 80" xmlns="http://www.w3.org/2000/svg">
<path d="M29.505 19.404c.062.063 13.915 31.66 13.902 31.634h-9.079c0-.098-4.3-10.302-4.255-10.355h-9.788c.088.026 9.357-21.385 9.22-21.279M0 0h21.278C21.34-.013.142 51.034.07 50.967L0 0m37.476 0h22.002l-.015 50.994C59.476 51.158 37.476 0 37.476 0M8.641 59.02l4.727 20.23H9.924l-.81-3.786H4.837l-.788 3.786H.605l4.727-20.23H8.64zm-.18 13.005l-1.486-7.571-1.486 7.571h2.972zm12.652 7.225l-.09-1.763h-.112c-.473 1.387-1.486 2.312-2.77 2.312-3.038 0-4.321-3.555-4.321-7.947 0-3.757.945-7.832 4.367-7.832 1.193 0 1.756.434 2.611 1.56v-6.56h3.039v20.23h-2.724zm-2.16-12.253c-.833 0-1.982.81-1.982 4.913 0 1.907.248 4.97 1.981 4.97 1.666 0 1.98-2.745 1.98-4.97 0-4.104-1.17-4.913-1.98-4.913zm7.024 4.883c0-4.536 1.576-7.86 5.155-7.86 3.557 0 5.155 3.324 5.155 7.86 0 4.596-1.62 7.919-5.155 7.919-3.556 0-5.155-3.323-5.155-7.918zm7.159 0c0-3.988-.833-4.912-2.004-4.912-.923 0-2.003.694-2.003 4.913 0 4.306 1.08 4.97 2.003 4.97 1.306 0 2.004-1.213 2.004-4.97zm7.967 7.37h-2.724V59.02h3.061v6.734c.63-1.445 1.824-1.734 2.589-1.734 3.218 0 4.39 3.382 4.39 7.832 0 4.422-1.148 7.947-4.368 7.947-1.328 0-2.116-.665-2.769-2.312h-.09l-.09 1.763zm2.183-2.399c1.666 0 1.98-2.745 1.98-4.97 0-4.104-1.17-4.913-1.98-4.913-.833 0-1.98.809-1.98 4.913 0 1.907.247 4.97 1.98 4.97zm16.66-1.849c-.765 4.45-3.241 4.797-4.907 4.797-1.869 0-5.065-.694-5.065-7.918 0-5.029 2.071-7.86 5.29-7.86 2.026 0 4.885 1.126 4.885 8.149v.809h-7.024c0 3.467 1.194 3.872 2.049 3.872.698 0 1.418-.202 1.71-1.849h3.062zm-2.949-4.48c-.09-2.976-.81-3.554-1.823-3.554-1.733 0-2.026 2.456-2.049 3.554h3.872zm4.03-69.334V0h5.19v1.188h-1.921v5.046h-1.347V1.188h-1.922zm6.86.233v4.813h-1.346V0h1.778l1.76 4.905L71.82 0h1.76v6.234h-1.346V1.421l-1.707 4.813h-.951l-1.689-4.813z" fill="#d8232a" fill-rule="evenodd"/>
</svg>
