<?xml version="1.0" encoding="UTF-8"?>
<svg fill="none" fill-rule="evenodd" viewBox="0 0 149 142" xmlns="http://www.w3.org/2000/svg">
<path d="M2.836 141.456h143.823V2.836H2.836z" stroke="#dcdcdc"/>
<path d="M2.53 141.456h144.435V2.53H2.53z" stroke="#e0e0e0"/>
<path d="M2.224 141.456h145.047V2.224H2.224z" stroke="#e8e8e8"/>
<path d="M1.918 141.456h145.659V1.918H1.918z" stroke="#f4f4f4"/>
<path d="M1.612 141.456h146.27V1.612H1.613v139.844zm-.306 0h146.883V1.306H1.306v140.15zm-.306 0h147.495V1H1v140.456z" stroke="#fff"/>
<path d="m2.836 139.62h143.82" stroke="#dcdcdc"/>
<path d="m2.836 139.93h143.82" stroke="#ddd"/>
<path d="m2.836 140.23h143.82" stroke="#dfdfdf"/>
<path d="m2.836 140.54h143.82" stroke="#e2e2e2"/>
<path d="m2.836 140.84h143.82" stroke="#e6e6e6"/>
<path d="m2.836 141.15h143.82" stroke="#ebebeb"/>
<path d="m2.836 141.46h143.82" stroke="#f1f1f1"/>
<path d="M2.836 4.978h143.823V1H2.836z" fill="#242f3d"/>
<path d="M2.836 139.314h143.823V4.978H2.836z" fill="#fff"/>
<path d="M46.166 32.895c.343.214.857.386 1.5.514.642.171 1.328.214 2.013.214s1.286-.085 1.842-.257a5.156 5.156 0 0 0 1.457-.728c.386-.3.728-.686.943-1.157a3.55 3.55 0 0 0 .342-1.542c0-.686-.214-1.285-.6-1.842-.385-.514-1.07-.943-2.013-1.243l-1.842-.6c-.686-.214-1.2-.47-1.457-.728a1.26 1.26 0 0 1-.385-.942c0-.514.214-.943.6-1.157.428-.257.985-.385 1.756-.385.942 0 1.756.17 2.528.514.214.085.385.171.514.171.214 0 .3-.129.3-.428v-.514c0-.172-.043-.343-.129-.429a1.011 1.011 0 0 0-.386-.343 1.68 1.68 0 0 0-.556-.214c-.215-.085-.472-.128-.729-.214-.257-.043-.557-.129-.857-.129-.3-.085-.6-.085-.9-.085-.599 0-1.113.085-1.627.214-.514.171-.986.386-1.371.685s-.686.643-.943 1.071-.342.9-.342 1.457c0 .685.214 1.328.642 1.885.429.6 1.114 1.028 2.1 1.328l1.884.6c.643.214 1.071.428 1.329.685s.342.557.342.9c0 .514-.214.942-.685 1.242s-1.071.429-1.928.429a6.307 6.307 0 0 1-1.542-.172c-.514-.085-.986-.257-1.457-.47a2.952 2.952 0 0 1-.343-.13c-.085-.042-.171-.042-.257-.042-.214 0-.3.128-.3.428v.643c0 .128.043.257.086.385.129.172.257.257.471.386m-22.148-6.34c-.472-.086-.943-.086-1.371-.086-1.328 0-2.4.343-3.213 1.028s-1.2 1.585-1.2 2.699c0 1.071.3 1.885.943 2.528s1.5.942 2.613.942c1.542 0 2.827-.6 3.856-1.8a6.44 6.44 0 0 0 .385.772 3.3 3.3 0 0 0 .471.6.523.523 0 0 0 .386.171.684.684 0 0 0 .343-.128l.814-.557c.171-.129.257-.257.257-.386 0-.086-.043-.171-.086-.3-.171-.343-.343-.642-.428-.942s-.129-.686-.129-1.157v-4.284c0-1.414-.343-2.485-1.07-3.213s-1.843-1.071-3.428-1.071c-.728 0-1.414.085-2.056.257-.6.171-1.157.343-1.628.6-.172.085-.3.171-.343.257-.086.085-.086.257-.086.47v.643c0 .258.086.429.257.429.043 0 .129 0 .214-.043s.257-.086.472-.171c.47-.172.942-.343 1.413-.429a5.322 5.322 0 0 1 1.414-.171c1.028 0 1.714.214 2.142.6s.6 1.114.6 2.099v.942a24.282 24.282 0 0 0-1.542-.3zm1.5 2.313c0 .428-.044.814-.13 1.114s-.214.6-.428.814c-.343.385-.77.685-1.242.814a4.063 4.063 0 0 1-1.371.257c-.6 0-1.071-.172-1.371-.471s-.471-.772-.471-1.371c0-.643.214-1.157.642-1.5s1.071-.514 1.928-.514c.386 0 .814.043 1.243.086s.814.128 1.2.214v.557zm6.597 3.812c.085.258.171.43.257.515s.257.128.514.128H34c.257 0 .428-.042.514-.128s.171-.257.257-.514l2.013-8.44 2.057 8.44c.042.257.128.428.257.514.085.086.3.128.514.128h1.114c.214 0 .385-.042.514-.128a.951.951 0 0 0 .257-.514l3.17-10.11.086-.3c0-.086.042-.13.042-.215 0-.214-.085-.3-.3-.3h-1.199c-.257 0-.428.043-.514.129s-.171.257-.257.514l-2.27 8.782-2.1-8.825c-.043-.257-.128-.428-.257-.514-.086-.086-.3-.128-.514-.128h-1.071c-.257 0-.428.042-.514.128s-.171.257-.257.514l-2.056 8.654-2.185-8.654c-.086-.257-.172-.428-.257-.514s-.257-.128-.514-.128h-1.286c-.214 0-.3.085-.3.3 0 .085.043.256.129.513l3.042 10.154" fill="#252f3e"/>
<path d="M51.521 39.021c-4.798 2.057-10.067 3.042-14.822 3.042-7.07 0-13.924-1.928-19.45-5.184-.471-.3-.857.214-.429.6 5.141 4.627 11.91 7.411 19.45 7.411 5.355 0 11.61-1.67 15.937-4.883.643-.515.043-1.286-.686-.986m-2.698-1.799c-.386.257-.3.642.085.6 1.371-.172 4.498-.557 5.013.171.556.685-.6 3.599-1.114 4.927-.172.385.171.557.557.257 2.313-1.928 2.913-5.998 2.442-6.555-.472-.643-4.542-1.114-6.983.6" fill="#f90"/>
<path d="M66.13 30.624c-.086 0-.171-.042-.171-.171v-7.069c0-.085.043-.171.171-.171h.214c.129 0 .172.043.172.171l.043.429c.3-.257.642-.429.942-.557s.6-.172.943-.172c.685 0 1.2.257 1.585.729s.6 1.156.6 1.97c0 .857-.215 1.543-.6 2.057-.429.514-.943.77-1.671.77-.643 0-1.2-.256-1.757-.727v2.57c0 .086-.042.171-.17.171h-.3zm2.142-2.57c.557 0 .986-.171 1.285-.557s.429-.942.429-1.67c0-1.457-.557-2.186-1.67-2.186-.558 0-1.158.215-1.715.686v3.041c.3.258.557.429.814.557.257.043.557.129.857.129zm4.884.514c-.471 0-.857-.128-1.157-.428-.3-.257-.428-.643-.428-1.114 0-.514.171-.9.514-1.2s.814-.428 1.414-.428c.471 0 .942.085 1.5.257v-.857c0-.428-.086-.728-.3-.9s-.515-.257-.986-.257-.985.086-1.5.257c-.042 0-.128.043-.17.043-.086 0-.086-.043-.086-.128v-.215c0-.042 0-.085.042-.128l.086-.086a4.751 4.751 0 0 1 1.757-.342c.6 0 1.07.128 1.37.385s.429.643.429 1.157v3.684c0 .086-.043.172-.172.172h-.214c-.085 0-.171-.043-.171-.172l-.043-.428c-.6.514-1.242.728-1.885.728zm.086-.514a2.19 2.19 0 0 0 .857-.171c.3-.129.6-.257.942-.472v-1.285a5.013 5.013 0 0 0-1.37-.171c-.986 0-1.457.385-1.457 1.114 0 .3.085.557.257.728s.428.257.77.257zm4.155.428c-.085 0-.171-.042-.171-.171v-4.927c0-.085.043-.171.171-.171h.215c.128 0 .17.043.17.171l.044.6c.257-.3.514-.514.77-.6.258-.128.558-.171.858-.171h.257c.085 0 .171.043.171.171v.257c0 .043 0 .043-.043.086 0 .043-.043.043-.085.043h-.386c-.3 0-.6.043-.857.171s-.471.3-.728.557v3.813c0 .086-.043.171-.171.171h-.215m5.227.043c-.429 0-.728-.128-.943-.343s-.342-.514-.342-.942v-3.47h-.814c-.086 0-.172-.043-.172-.172v-.085c0-.043 0-.086.043-.129 0-.043.043-.043.129-.043l.856-.085.086-1.371c0-.043.043-.086.043-.129.043-.042.043-.042.129-.042h.17c.087 0 .172.042.172.17v1.372h1.5c.085 0 .171.043.171.171v.214c0 .086-.043.172-.171.172h-1.5v3.47c0 .3.043.471.172.6s.342.17.6.17c.214 0 .385 0 .513-.042.086 0 .129-.043.172-.043h.086c.085 0 .128.043.128.129v.171c0 .129-.043.172-.128.214l-.9.043m2.313-.043c-.085 0-.171-.042-.171-.171v-4.927c0-.085.043-.171.171-.171h.214c.129 0 .172.043.172.171l.043.429a3.655 3.655 0 0 1 1.07-.557c.386-.129.729-.214 1.072-.214.514 0 .9.128 1.156.385s.386.643.386 1.2v3.641c0 .086-.043.172-.171.172h-.3c-.086 0-.172-.043-.172-.172v-3.341c0-.472-.085-.772-.257-.986s-.47-.3-.814-.3c-.685 0-1.37.215-2.013.686v4.027c0 .086-.043.171-.172.171h-.214m7.969.085c-.814 0-1.457-.213-1.843-.685-.428-.47-.642-1.156-.642-2.099 0-.857.214-1.542.642-2.013s1.029-.729 1.757-.729c.643 0 1.114.172 1.457.557.342.343.514.857.514 1.543 0 .257 0 .47-.043.642a.184.184 0 0 1-.172.172h-3.513c0 .728.172 1.285.472 1.628s.814.514 1.456.514a3.78 3.78 0 0 0 1.414-.257c.086-.043.171-.043.171-.043.043 0 .043 0 .086.043 0 .042.043.042.043.085v.172c0 .128-.043.171-.129.214-.556.128-1.07.257-1.67.257zm1.285-3.127v-.342c0-.514-.129-.857-.343-1.114-.257-.257-.6-.386-1.07-.386-1.115 0-1.672.6-1.757 1.842h3.17zm2.013 2.999c-.085 0-.171-.042-.171-.171v-4.927c0-.085.043-.171.171-.171h.215c.128 0 .171.043.171.171l.043.6c.257-.3.514-.514.77-.6.258-.128.558-.171.858-.171h.257c.085 0 .171.043.171.171v.257c0 .043 0 .043-.043.086 0 .043-.043.043-.085.043h-.386c-.3 0-.6.043-.857.171s-.471.3-.728.557v3.813c0 .086-.043.171-.171.171h-.215M66.13 40.007c-.086 0-.171-.043-.171-.172v-4.884c0-.085.043-.171.171-.171h.214c.129 0 .172.043.172.171l.043.429a3.655 3.655 0 0 1 1.07-.557c.386-.129.729-.214 1.072-.214.514 0 .9.128 1.156.385s.386.643.386 1.2v3.641c0 .086-.043.172-.171.172h-.3c-.086 0-.172-.043-.172-.172v-3.384c0-.472-.085-.771-.257-.986s-.471-.3-.814-.3c-.685 0-1.37.215-2.013.686v4.027c0 .086-.043.171-.172.171h-.214m7.969.129c-.814 0-1.457-.214-1.843-.686-.428-.47-.642-1.156-.642-2.099 0-.857.214-1.542.642-2.013s1.029-.729 1.757-.729c.642 0 1.114.172 1.456.557.343.343.515.857.515 1.543 0 .257 0 .47-.043.642a.184.184 0 0 1-.172.172h-3.513c0 .728.172 1.285.472 1.628s.814.514 1.456.514a3.78 3.78 0 0 0 1.414-.257c.086-.043.171-.043.171-.043.043 0 .043 0 .086.043 0 .042.043.042.043.085v.172c0 .128-.043.171-.129.214-.514.128-1.07.257-1.67.257zm1.285-3.17v-.343c0-.514-.129-.857-.343-1.114-.257-.257-.6-.386-1.071-.386-1.114 0-1.67.6-1.756 1.843h3.17zm3.513 3.084c-.429 0-.729-.128-.943-.343s-.342-.514-.342-.942v-3.513h-.814c-.086 0-.172-.043-.172-.171v-.086c0-.043 0-.086.043-.129 0-.042.043-.042.129-.042l.856-.086.086-1.371c0-.043.043-.086.043-.128.043-.043.043-.043.128-.043h.172c.085 0 .171.043.171.171v1.37h1.5c.085 0 .17.044.17.172v.214c0 .086-.042.172-.17.172h-1.5v3.47c0 .3.043.471.171.6s.343.171.6.171c.214 0 .386 0 .514-.043.086 0 .129-.043.172-.043h.085c.086 0 .129.043.129.129v.171c0 .129-.043.172-.129.215a5.347 5.347 0 0 1-.9.085m3.385-.085a.236.236 0 0 1-.214-.129l-1.628-4.841c-.043-.086-.043-.129-.043-.171s.043-.086.129-.086h.342c.086 0 .129.043.172.128l1.414 4.413 1.242-4.413c.043-.085.086-.128.214-.128h.386c.085 0 .171.043.214.128l1.242 4.413 1.457-4.455c.043-.086.086-.129.171-.129h.3c.086 0 .129.043.129.086s0 .085-.043.171l-1.714 4.841c-.043.086-.086.129-.214.129h-.343a.236.236 0 0 1-.214-.129l-1.242-4.412-1.243 4.412c-.043.086-.085.129-.214.129h-.3m8.611.214c-.771 0-1.37-.257-1.8-.728s-.642-1.157-.642-2.057c0-.857.214-1.542.643-2.056.428-.471 1.028-.728 1.8-.728s1.37.257 1.798.728.643 1.157.643 2.056c0 .857-.214 1.542-.643 2.057-.428.47-1.028.728-1.799.728zm0-.557c1.2 0 1.8-.728 1.8-2.228s-.6-2.228-1.8-2.228-1.8.729-1.8 2.228.6 2.228 1.8 2.228zm3.941.386c-.085 0-.17-.043-.17-.172v-4.884c0-.085.042-.171.17-.171h.215c.128 0 .171.043.171.171l.043.6c.257-.3.514-.514.771-.6.257-.128.557-.171.857-.171h.257c.086 0 .171.043.171.171v.257c0 .043 0 .043-.043.086s-.042.043-.085.043h-.386c-.3 0-.6.043-.857.171s-.47.3-.728.557v3.813c0 .086-.043.171-.171.171h-.215m3.557-.042c-.086 0-.172-.043-.172-.172v-7.368c0-.086.043-.172.171-.172h.3c.086 0 .172.043.172.172v4.626l2.484-2.227c.086-.086.172-.086.257-.086h.386c.086 0 .128.043.128.086s-.042.085-.128.171l-2.528 2.228 2.742 2.527c.043.043.086.086.086.129 0 .086-.043.086-.129.086h-.428a.327.327 0 0 1-.214-.086l-2.656-2.485v2.4c0 .085-.043.17-.172.17h-.3" fill="#252f3e"/>
<path d="M18.71 73.002c-.58-.213-.998-.476-1.253-.786s-.382-.704-.382-1.179c0-.615.227-1.105.681-1.47s1.064-.548 1.829-.548c.638 0 1.264.118 1.88.354v1.114c-.635-.194-1.223-.292-1.765-.292-.768 0-1.152.247-1.152.742 0 .184.066.335.198.451s.382.24.748.37l.727.269c.606.22 1.037.478 1.296.777s.387.684.387 1.16c0 .672-.242 1.203-.724 1.591s-1.146.584-1.987.584c-.367 0-.732-.035-1.097-.103a4.166 4.166 0 0 1-.94-.28v-1.119c.325.1.674.178 1.047.237a6.52 6.52 0 0 0 1.01.088c.385 0 .682-.07.89-.21a.683.683 0 0 0 .314-.602.62.62 0 0 0-.191-.479c-.128-.117-.384-.248-.77-.392l-.746-.277zm5.38.813c.025.434.155.746.39.937s.602.287 1.106.287c.437 0 .945-.081 1.525-.244v.952c-.226.118-.498.21-.815.274a4.845 4.845 0 0 1-.983.098c-.831 0-1.464-.225-1.898-.676s-.65-1.11-.65-1.977c0-.835.215-1.485.646-1.949s1.027-.695 1.792-.695c.648 0 1.146.178 1.495.533s.523.863.523 1.523a4.736 4.736 0 0 1-.1.937h-3.032zm1.066-2.004c-.322 0-.576.096-.76.288s-.29.47-.316.836h1.917v-.167c0-.638-.28-.957-.841-.957zm5.364 4.065a2.367 2.367 0 0 1-.88.162c-.883 0-1.324-.492-1.324-1.477v-5.838h1.43v5.723c0 .182.03.31.093.385s.165.112.308.112a3.47 3.47 0 0 0 .373-.028v.96zm2.05-2.061c.025.434.155.746.39.937s.602.287 1.106.287c.437 0 .945-.081 1.525-.244v.952c-.226.118-.498.21-.815.274a4.845 4.845 0 0 1-.983.098c-.831 0-1.464-.225-1.898-.676s-.65-1.11-.65-1.977c0-.835.215-1.485.646-1.949s1.028-.695 1.793-.695c.647 0 1.145.178 1.494.533s.523.863.523 1.523a4.736 4.736 0 0 1-.1.937h-3.032zm1.066-2.004c-.322 0-.576.096-.76.288s-.29.47-.316.836h1.917v-.167c0-.638-.28-.957-.841-.957zm6.775 3.945a2.14 2.14 0 0 1-.636.242 3.534 3.534 0 0 1-.775.083c-.797 0-1.405-.222-1.826-.667s-.631-1.084-.631-1.92c0-.828.222-1.474.667-1.938s1.06-.696 1.848-.696c.478 0 .92.104 1.324.31v.952a3.825 3.825 0 0 0-1.057-.167c-.459 0-.796.116-1.011.35s-.323.598-.323 1.099v.138c0 .498.106.862.318 1.093s.541.347.988.347c.318 0 .69-.06 1.114-.177v.951zm3.996.086c-.354.137-.75.206-1.186.206-.555 0-.964-.13-1.23-.39s-.396-.664-.396-1.212v-2.42h-.755v-.884l.793-.153.216-1.372h1.176v1.348h1.353v1.062h-1.353v2.347c0 .21.052.358.158.443s.282.126.53.126a4.9 4.9 0 0 0 .694-.057v.956zM24.763 97.621c-2.218 0-3.897-.624-5.035-1.872s-1.706-3.086-1.706-5.515c0-2.413.59-4.254 1.769-5.525s2.872-1.905 5.077-1.905c1.01 0 1.996.153 2.955.459a.38.38 0 0 1 .187.126c.041.056.062.146.062.27v.455c0 .182-.083.272-.249.272-.07 0-.27-.04-.602-.124a7.648 7.648 0 0 0-1.083-.198 9.661 9.661 0 0 0-1.126-.074c-1.9 0-3.318.496-4.256 1.489s-1.405 2.487-1.405 4.483v.52c0 3.97 1.839 5.953 5.517 5.953a10.17 10.17 0 0 0 2.664-.353c.248-.07.414-.106.497-.106.166 0 .249.091.249.273v.454c0 .128-.021.219-.062.273a.387.387 0 0 1-.187.124c-1.04.347-2.128.521-3.266.521zm10.176.082c-1.527 0-2.714-.49-3.56-1.466s-1.27-2.34-1.27-4.09.424-3.106 1.27-4.077 2.033-1.456 3.56-1.456 2.713.486 3.56 1.456 1.269 2.33 1.269 4.076-.423 3.114-1.27 4.091-2.033 1.466-3.56 1.466zm0-1.081c2.4 0 3.6-1.492 3.6-4.476 0-2.967-1.2-4.451-3.6-4.451s-3.6 1.484-3.6 4.451c0 2.984 1.2 4.476 3.6 4.476zm7.845.77c-.21 0-.315-.104-.315-.311v-9.845c0-.207.105-.31.315-.31h.417c.22 0 .337.103.353.31l.081.894a8.574 8.574 0 0 1 2.142-1.121 6.582 6.582 0 0 1 2.186-.395c1.013 0 1.787.268 2.321.801s.8 1.321.8 2.36v7.306a.27.27 0 0 1-.31.31h-.564a.27.27 0 0 1-.311-.31v-6.804c0-.902-.173-1.558-.519-1.968s-.9-.614-1.666-.614c-1.387 0-2.738.443-4.054 1.33v8.056c0 .207-.106.31-.316.31h-.56zm14.148.31a8.402 8.402 0 0 1-1.654-.164 7.24 7.24 0 0 1-1.487-.457c-.166-.07-.249-.209-.249-.416v-.354c0-.169.077-.253.23-.253.025 0 .09.014.196.043l.593.186a8.429 8.429 0 0 0 2.457.354c.845 0 1.49-.17 1.934-.51s.667-.834.667-1.484c0-.376-.135-.695-.406-.959s-.725-.512-1.363-.748l-1.893-.707c-1.486-.555-2.228-1.464-2.228-2.726 0-.86.323-1.558.968-2.092s1.488-.8 2.527-.8a7.47 7.47 0 0 1 2.725.516c.166.07.249.21.249.42v.311c0 .18-.075.268-.225.268-.099 0-.272-.033-.521-.1-.873-.236-1.637-.354-2.29-.354-.75 0-1.318.149-1.707.447s-.584.739-.584 1.322c0 .472.136.836.407 1.093s.801.536 1.592.839l1.664.626c.778.29 1.344.647 1.697 1.071s.53.949.53 1.573c0 .94-.342 1.685-1.03 2.233s-1.62.823-2.799.823zm9.133 0c-.997 0-1.763-.27-2.297-.81s-.801-1.331-.801-2.374v-7.282a.27.27 0 0 1 .31-.31h.565a.27.27 0 0 1 .31.31v6.785c0 .915.175 1.577.522 1.987s.896.614 1.645.614a5.77 5.77 0 0 0 1.913-.313c.595-.209 1.233-.55 1.912-1.021v-8.052c0-.207.105-.31.316-.31h.559c.21 0 .315.103.315.31v9.845c0 .207-.105.31-.315.31h-.416c-.207 0-.325-.103-.354-.31l-.081-.832c-1.32.969-2.687 1.454-4.103 1.454zm10.28-.248c-.554 0-.988-.163-1.3-.488s-.469-.78-.469-1.363V82.307c0-.208.105-.311.316-.311h.56c.21 0 .315.103.315.31V95.58c0 .306.059.52.177.645s.328.187.63.187a2.33 2.33 0 0 0 .283-.02l.258-.019c.194 0 .292.098.292.292v.392c0 .169-.09.274-.268.315a3.382 3.382 0 0 1-.794.082zm6.66.062c-.818 0-1.443-.218-1.874-.655s-.645-1.07-.645-1.903v-6.99h-1.64c-.21 0-.316-.106-.316-.316v-.205a.42.42 0 0 1 .063-.251c.041-.056.126-.09.253-.103l1.683-.149.148-2.744c.013-.112.043-.191.09-.24s.122-.07.221-.07h.373a.27.27 0 0 1 .31.31v2.725h3.023a.27.27 0 0 1 .31.311v.416c0 .21-.103.316-.31.316h-3.022v6.928c0 .567.122.969.366 1.205s.649.353 1.216.353c.402 0 .756-.034 1.062-.105l.366-.069c.09-.02.157-.03.198-.03.153 0 .23.082.23.248v.31c0 .236-.077.383-.23.44-.542.179-1.167.268-1.874.268zm4.703-.124c-.207 0-.311-.104-.311-.311v-9.845a.27.27 0 0 1 .31-.31h.565a.27.27 0 0 1 .31.31v9.845a.27.27 0 0 1-.31.31h-.564zm.291-12.714c-.277 0-.495-.083-.654-.25s-.24-.39-.24-.668.08-.499.24-.665.377-.248.654-.248.496.083.656.248.239.388.239.665-.08.5-.24.667-.377.251-.655.251zm4.226 12.714c-.21 0-.315-.104-.315-.311v-9.845c0-.207.105-.31.315-.31h.416c.22 0 .338.103.354.31l.081.894a8.563 8.563 0 0 1 2.142-1.121 6.58 6.58 0 0 1 2.185-.395c1.014 0 1.788.268 2.322.801s.8 1.321.8 2.36v7.306a.27.27 0 0 1-.31.31h-.564a.27.27 0 0 1-.311-.31v-6.804c0-.902-.173-1.558-.519-1.968s-.901-.614-1.666-.614c-1.387 0-2.738.443-4.055 1.33v8.056c0 .207-.105.31-.315.31h-.56zm15.19 4.537c-.583 0-1.152-.059-1.707-.177a6.02 6.02 0 0 1-1.458-.492c-.153-.067-.23-.212-.23-.435v-.292c0-.179.077-.268.23-.268a.54.54 0 0 1 .136.02c.05.012.137.04.26.08.986.32 1.888.479 2.707.479 1.288 0 2.234-.319 2.838-.957s.906-1.643.906-3.016v-1.019c-.513.43-1.082.77-1.707 1.021s-1.22.375-1.788.375c-1.333 0-2.401-.475-3.206-1.427s-1.207-2.21-1.207-3.775c0-1.68.399-3.005 1.197-3.976s1.885-1.456 3.259-1.456c1.303 0 2.46.464 3.471 1.392l.086-.77c.029-.207.147-.31.354-.31h.416a.27.27 0 0 1 .31.31v9.677c0 1.636-.415 2.88-1.247 3.735s-2.039 1.281-3.62 1.281zm.46-5.766c1.038 0 2.112-.443 3.222-1.33v-5.785c-.568-.471-1.115-.815-1.643-1.03a4.42 4.42 0 0 0-1.685-.323c-1.11 0-1.945.361-2.508 1.083s-.844 1.79-.844 3.201c0 1.361.295 2.399.885 3.113s1.447 1.07 2.572 1.07zm-89.127 22.649a.27.27 0 0 1-.31-.31v-13.8a.27.27 0 0 1 .31-.31h4.662c1.32 0 2.37.388 3.153 1.164s1.174 1.818 1.174 3.125c0 1.287-.391 2.32-1.174 3.098s-1.833 1.166-3.153 1.166h-3.787v5.556a.27.27 0 0 1-.31.311h-.565zm4.62-6.971c2.052 0 3.078-1.054 3.078-3.16 0-2.124-1.026-3.185-3.079-3.185h-3.744v6.345h3.744zm9.448 7.2c-.956 0-1.716-.274-2.278-.822s-.844-1.28-.844-2.194c0-1.014.347-1.812 1.04-2.394s1.637-.872 2.833-.872c.927 0 1.919.16 2.974.478v-1.75c0-.845-.201-1.451-.603-1.82s-1.067-.552-1.998-.552c-.944 0-1.956.174-3.037.522a1.069 1.069 0 0 1-.315.062c-.137 0-.206-.091-.206-.273v-.33c0-.111.021-.198.062-.26a.457.457 0 0 1 .206-.155 9.424 9.424 0 0 1 3.476-.646c1.221 0 2.126.257 2.716.77s.884 1.289.884 2.328v7.368a.27.27 0 0 1-.31.311h-.44a.29.29 0 0 1-.33-.31l-.086-.895c-1.192.956-2.44 1.435-3.744 1.435zm.167-1.08c.526 0 1.095-.108 1.705-.323a9.483 9.483 0 0 0 1.853-.906v-2.6a10.346 10.346 0 0 0-2.707-.379c-1.94 0-2.911.75-2.911 2.248 0 .64.173 1.127.52 1.46s.861.5 1.54.5zm8.262.851c-.21 0-.316-.104-.316-.31v-9.846c0-.207.105-.31.316-.31h.392c.223 0 .34.103.354.31l.105 1.21c.529-.583 1.046-.996 1.551-1.238s1.077-.364 1.714-.364l.546.02c.207.012.31.124.31.334v.517c0 .057-.02.11-.062.158a.21.21 0 0 1-.167.071 4.37 4.37 0 0 1-.313-.01 7.22 7.22 0 0 0-.438-.01c-.637 0-1.203.119-1.695.355s-.967.617-1.422 1.143v7.66c0 .206-.105.31-.316.31h-.56zm10.07.124c-.82 0-1.444-.218-1.875-.655s-.645-1.07-.645-1.903v-6.99h-1.64c-.21 0-.316-.105-.316-.315v-.206a.42.42 0 0 1 .062-.251c.042-.056.126-.09.254-.103l1.683-.148.148-2.745c.013-.111.043-.19.09-.239s.122-.071.22-.071h.374a.27.27 0 0 1 .31.31v2.726h3.022a.27.27 0 0 1 .311.31v.417c0 .21-.103.315-.31.315H49.98v6.928c0 .568.123.97.366 1.205s.65.354 1.217.354c.402 0 .756-.035 1.062-.105l.365-.07a1 1 0 0 1 .199-.03c.153 0 .23.082.23.248v.31c0 .237-.077.383-.23.44-.542.18-1.167.268-1.874.268zm4.62-.124c-.21 0-.315-.104-.315-.31v-9.846c0-.207.105-.31.315-.31h.416c.22 0 .338.103.354.31l.082.895a8.563 8.563 0 0 1 2.142-1.122 6.579 6.579 0 0 1 2.185-.394c1.013 0 1.787.267 2.32.8s.802 1.321.802 2.36v7.306a.27.27 0 0 1-.31.311h-.565a.27.27 0 0 1-.311-.31v-6.805c0-.902-.173-1.557-.519-1.967s-.9-.615-1.666-.615c-1.387 0-2.738.443-4.055 1.33v8.056c0 .207-.105.311-.315.311h-.56zm15.936.311c-1.648 0-2.889-.468-3.722-1.403s-1.25-2.327-1.25-4.172c0-1.747.42-3.102 1.26-4.067s2.015-1.446 3.526-1.446c1.262 0 2.23.36 2.902 1.08s1.009 1.754 1.009 3.099c0 .554-.027.972-.081 1.252-.042.208-.16.311-.354.311h-7.052c.012 1.457.33 2.532.956 3.225s1.589 1.04 2.892 1.04c.998 0 1.948-.173 2.85-.521.182-.07.306-.105.373-.105.057 0 .107.025.148.074a.27.27 0 0 1 .062.18v.31c0 .223-.076.368-.23.435-.997.472-2.093.708-3.289.708zm2.563-6.302l.02-.688c0-.998-.244-1.754-.73-2.267s-1.2-.77-2.14-.77c-2.193 0-3.351 1.242-3.475 3.725h6.325zm4.1 5.991c-.211 0-.316-.104-.316-.31v-9.846c0-.207.105-.31.315-.31h.392c.224 0 .341.103.354.31l.105 1.21c.53-.583 1.047-.996 1.552-1.238s1.076-.364 1.714-.364l.545.02c.207.012.31.124.31.334v.517c0 .057-.02.11-.061.158a.21.21 0 0 1-.168.071 4.77 4.77 0 0 1-.313-.01 7.22 7.22 0 0 0-.437-.01c-.638 0-1.203.119-1.695.355s-.967.617-1.423 1.143v7.66c0 .206-.105.31-.315.31h-.56z" fill="#535b64"/>
</svg>
