<?xml version="1.0" encoding="UTF-8"?>
<svg width="43px" height="51px" viewBox="0 0 43 51" version="1.1" xmlns="http://www.w3.org/2000/svg" xmlns:xlink="http://www.w3.org/1999/xlink">
    <!-- Generator: Sketch 63.1 (92452) - https://sketch.com -->
    <title>Chandigarh Icon</title>
    <desc>Created with Sketch.</desc>
    <g id="Page-1" stroke="none" stroke-width="1" fill="none" fill-rule="evenodd">
        <g id="Footer-Addresses-New-Pune-Icon" transform="translate(-1231.000000, -116.000000)" fill-rule="nonzero">
            <g id="Footer-V1">
                <g id="Locations" transform="translate(240.000000, 114.000000)">
                    <g id="CHANDIGARH" transform="translate(991.000000, 2.000000)">
                        <g id="Chandigarh-Icon">
                            <path d="M23.912,50 L23.912,46.066 L28.322,46.066 L28.322,50 L30.324,50 L30.324,40.662 L28.322,40.662 L28.322,44.33 L23.912,44.33 L23.912,40.662 L21.924,40.662 L21.924,50 L23.912,50 Z M40.55,50.574 L41.936,49.44 L41.25,48.642 C42.006,47.802 42.468,46.654 42.468,45.338 C42.468,42.524 40.41,40.508 37.596,40.508 C34.768,40.508 32.71,42.524 32.71,45.338 C32.71,48.152 34.768,50.168 37.596,50.168 C38.394,50.168 39.15,50 39.794,49.706 L40.55,50.574 Z M37.596,48.404 C35.86,48.404 34.754,47.074 34.754,45.338 C34.754,43.588 35.86,42.272 37.596,42.272 C39.318,42.272 40.424,43.588 40.424,45.338 C40.424,46.01 40.256,46.626 39.948,47.116 L38.926,45.912 L37.54,47.046 L38.562,48.25 C38.268,48.348 37.946,48.404 37.596,48.404 Z" id="HQ" fill="#F7615A"></path>
                            <path d="M20.3615377,8.43703629 C22.9503848,10.0474757 21.1828282,10.499184 21.1828282,10.499184 C21.1828282,10.499184 20.0151698,10.7223601 19.1546029,10.3045742 C18.2958217,9.88678833 14.2250859,13.0505344 12.3004142,13.8861072 C11.4434166,14.2574722 10.0329439,14.7073948 8.57247896,14.9270006 L8.57247896,21.7651205 L18.9635625,21.7651205 L18.9635625,49.6514351 L17.8137605,49.6514351 L17.8137605,38.098048 L17.8137605,31.7116393 L17.8137605,22.8435085 L8.35465783,22.8435085 L8.35465783,35.468139 L8.66889006,35.468139 L8.66889006,38.947905 L8.35465783,38.947905 L8.35465783,49.6514351 L7.56193567,49.6514351 L7.56193567,38.947905 L7.24591777,38.947905 L7.24591777,35.468139 L7.56193567,35.468139 L7.56193567,22.8435085 L1.78434933,22.8435085 L1.78434933,49.6514351 L0.634545364,49.6514351 L0.634545364,21.7651205 L7.35839969,21.7651205 L7.35839969,15.0501944 C5.95149624,15.1180391 4.62850831,14.8877214 3.85899556,14.07536 C2.07537216,12.1988949 2.12357868,11.2669101 1.99681358,9.6475434 C1.87005052,8.02817669 1.07018571,5.20901487 1.07018571,5.20901487 C1.07018571,5.20901487 0.418511824,2.49519206 2.28069375,3.97708251 C4.14287573,5.46075789 5.0409372,6.09993473 5.0409372,6.09993473 C5.0409372,6.09993473 8.00293295,7.50148124 8.16004808,4.57698011 L8.48677788,1.12756816 L8.542127,0.643722137 C8.542127,0.643722137 9.1098874,-0.109720779 9.82583669,0.683001167 L9.95259975,2.2398785 C9.95259975,2.2398785 10.1472095,2.64159576 10.363245,2.22916608 L10.5685667,0.683001115 C10.5685667,0.683001115 11.0434853,-0.0847250279 11.5184039,0.693713639 L11.6790903,2.26844511 C11.6790903,2.26844511 11.8112124,2.67016237 12.1200877,2.26844511 L12.4093248,0.683001115 C12.4093248,0.683001115 12.8592464,-0.0561585226 13.3288101,0.683001115 L13.44129,1.19005759 L13.44129,8.82625557 L16.0604852,8.89052994 C16.0604852,8.89053014 17.7744803,6.82838153 20.3615377,8.43703629 Z" id="Shape" fill="#000000"></path>
                        </g>
                    </g>
                </g>
            </g>
        </g>
    </g>
</svg>