<?xml version="1.0" encoding="UTF-8"?>
<svg viewBox="0 0 120 34" xmlns="http://www.w3.org/2000/svg">
<path d="M31.091 0h5.44v34h-5.44zm24.48 23.154c0 5.203-4.375 5.618-5.677 5.618-3.251 0-3.843-3.044-3.843-4.88V10.88h-5.44v12.985c0 3.223 1.012 5.884 2.785 7.657 1.567 1.568 3.914 2.425 6.458 2.425 1.803 0 4.357-.562 5.717-1.803V34h5.44V10.88h-5.44v12.274zM71.891 2.72h-5.44v8.16h-4.08v5.44h4.08V34h5.44V16.32h4.08v-5.44h-4.08zm21.212 24.367c-1.185 1.065-2.749 1.655-4.465 1.655-3.784 0-6.562-2.778-6.562-6.593s2.69-6.476 6.562-6.476c1.686 0 3.28.561 4.495 1.626l.825.71 3.668-3.666-.918-.829c-2.158-1.949-5.024-3.042-8.071-3.042-6.8 0-11.739 4.907-11.739 11.648 0 6.713 5.057 11.796 11.739 11.796 3.105 0 6-1.094 8.131-3.074l.887-.828-3.725-3.664-.827.737zm23.94-14.191c-1.567-1.567-3.403-2.424-5.946-2.424-1.803 0-3.846.562-5.206 1.802V0h-5.44v34h5.44V21.264c0-5.204 3.696-5.617 4.998-5.617 3.252 0 3.162 3.045 3.162 4.878V34h5.44V20.554c0-3.224-.673-5.884-2.448-7.658" fill="#0a323c"/>
<path d="m88.458 18.276a3.932 3.932 0 1 1 0 7.866 3.932 3.932 0 0 1 0-7.866" fill="#ff3d2e"/>
<path d="M23.475 25.46c-2.069 2.129-4.878 3.282-7.835 3.282-6.06 0-10.467-4.76-10.467-11.293 0-6.564 4.407-11.324 10.467-11.324 2.928 0 5.707 1.152 7.806 3.252l.827.828L27.91 6.57l-.798-.828C24.096 2.636 20.016.952 15.64.952 6.712.952 0 8.047 0 17.477c0 9.402 6.742 16.469 15.64 16.469 4.406 0 8.486-1.714 11.502-4.819l.798-.828-3.607-3.695-.858.857z" fill="#0a323c"/>
</svg>
