<svg xmlns="http://www.w3.org/2000/svg" width="69" height="37"  fill-rule="evenodd" xmlns:v="https://vecta.io/nano"><path d="M6.25 9.375l-3.674 1.931.702-4.091L.306 4.319l4.107-.597L6.25 0l1.837 3.722 4.107.597-2.972 2.897.702 4.091zm14 0l-3.674 1.931.702-4.091-2.972-2.897 4.107-.597L20.25 0l1.837 3.722 4.107.597-2.972 2.897.702 4.091zm14 0l-3.674 1.931.702-4.091-2.972-2.897 4.107-.597L34.25 0l1.837 3.722 4.107.597-2.972 2.897.702 4.091zm14 0l-3.674 1.931.702-4.091-2.972-2.897 4.107-.597L48.25 0l1.837 3.722 4.107.597-2.972 2.897.702 4.091zm14 0l-3.674 1.931.702-4.091-2.972-2.897 4.107-.597L62.25 0l1.837 3.722 4.107.597-2.972 2.897.702 4.091z" fill="#ff3d2c"/><path d="M14.234 22.521l-.643.655-.921.876h2.674v1.087h-4.305v-.566l1.498-1.808.677-.732.455-.599c.111-.178.677-.721.621-1.398-.244-.754-.943-.821-1.354-.766-.422.011-.91.577-.987 1.065 0 0-.766-.111-.932-.189.011-.211.377-1.132 1.087-1.542.344-.155.566-.233.965-.233.311 0 .588.044.843.122s.466.2.643.355.477.344.566.577c.144.3.255.61.255.921.033.688-.555 1.365-.666 1.542a3.64 3.64 0 0 1-.477.632M9.242 36.967c-5.104 0-9.231-4.138-9.231-9.231 0-5.104 4.138-9.231 9.231-9.231v3.262a5.97 5.97 0 0 0-5.969 5.969c0 3.295 2.674 5.98 5.969 5.98 2.618 0 4.837-1.686 5.647-4.027-1.598 0-3.861-.011-3.861-.011V26.26h7.334a9.24 9.24 0 0 1 .122 1.476c-.011 5.104-4.138 9.231-9.242 9.231M21.579 18.35h.621v18.462h-.621V18.35zm9.02 13.635c-.533.322-1.198.488-1.975.488-.81 0-1.487-.133-2.008-.411-.533-.277-.876-.655-1.054-1.143-.166-.488-.255-1.22-.255-2.197v-2.918c0-.721.022-1.254.078-1.62.055-.355.211-.71.477-1.043s.621-.599 1.087-.788.999-.288 1.598-.288c.821 0 1.498.144 2.03.444s.876.666 1.054 1.109c.166.444.2.311.2 1.243v.777l-2.263-.033v-.677c0-.51-.055-.832-.178-.965-.122-.122-.377-.189-.766-.189-.455 0-.732.078-.854.233s-.178.488-.178.999v4.56c0 .488.055.81.178.965s.388.222.821.222c.411 0 .666-.078.799-.222.122-.155.189-.355.189-.91l-.011-.721h2.274v.155c0 1.032-.033 1.365-.189 1.786-.178.433-.521.821-1.054 1.143m6.468-7.278c0-.311-.155-.677-.455-.777s-.688-.144-1.487-.144v2.829c.777 0 1.165-.044 1.464-.122.311-.078.466-.799.466-1.243v-.544h.011zm0 4.471c0-.533-.111-.854-.333-.987-.222-.122-.655-.189-1.598-.189v4.316h-2.23l.033-10.03h2.008c1.342 0 2.252.044 2.729.144a1.91 1.91 0 0 1 1.165.721c.3.388.455 1.01.455 1.864 0 .777-.133 1.476-.333 1.742-.211.266-.621.433-1.232.488.555.133.932.3 1.121.51s.311.411.355.588.1.477.1 1.287v2.629l-2.219.055v-3.14h-.022zm7.944-4.316c0-.466-.078-.754-.222-.888s-.455-.189-.91-.189c-.388 0-.688.055-.899.155s-.311.411-.311.921V29.5c0 .577.067.932.2 1.065s.455.2.943.2c.51 0 .832-.078.976-.233S45 30.01 45 29.422v-4.56h.011zm1.742 6.535c-.277.344-.666.61-1.143.799s-1.043.277-1.686.277c-.61 0-1.154-.089-1.642-.266s-.876-.433-1.165-.788a2.15 2.15 0 0 1-.521-1.143c-.055-.411-.089-1.132-.089-2.163v-1.709c0-.999.022-1.709.078-2.13a2.18 2.18 0 0 1 .51-1.143c.288-.344.666-.61 1.143-.799s1.043-.277 1.686-.277c.61 0 1.154.089 1.642.266s.876.433 1.165.788c.288.344.466.732.521 1.143s.089 1.132.089 2.152v1.72c0 .999-.022 1.709-.078 2.13a2.18 2.18 0 0 1-.51 1.143m8.277.865c-.322-1.531-1.076-5.292-1.331-7.256-.111.843-.999 4.604-1.409 7.256h-2.441l-1.897-9.985h2.141l.61 3.484.444 4.138c.1-1.742.987-4.804 1.409-7.622h2.485c.033.288.455 1.387.621 3.295l.621 4.26c.166-2.419.732-5.248 1.109-7.555h1.986l-2.041 9.985H55.03zm9.375-7.101c0-.444-.033-.732-.1-.865-.067-.122-.233-.222-.488-.277s-.721-.089-1.42-.089v6.668c.921 0 1.476-.078 1.697-.222.211-.144.322-.555.322-1.22v-3.994h-.011zm2.03 5.936a1.31 1.31 0 0 1-.488.71c-.233.166-.51.288-.854.355-.333.067-.688.1-1.376.1h-3.584v-9.985h2.13c1.376 0 2.152.055 2.629.178.488.111.854.3 1.109.566s.411.555.477.876.089.954.089 1.897v3.495c.011.899-.033 1.498-.133 1.808" fill="#456372"/></svg>