<?xml version="1.0" encoding="UTF-8"?>
<svg viewBox="0 0 232 34" xmlns="http://www.w3.org/2000/svg">
<path d="M4.425 27.866c0 2.13 0 3.442-2.622 3.606-.984.165-1.803.165-1.803.82 0 .82.655.82 1.148.82l5.9-.165 6.228.164c.329 0 .986 0 .986-.82 0-.654-.657-.654-2.132-.819-2.295-.164-2.295-1.639-2.295-3.606v-8.524c0-2.458 0-2.458 3.606-2.458 1.312 0 4.59 0 5.246 2.787.163.164.491 1.638.655 1.967 0 .327.164.82.655.82.657 0 .657-.658.657-.984l-.164-2.459c-.164-1.147-.164-1.968-.164-2.46l.164-4.917c0-.491 0-.82-.493-.82-.655 0-.819.493-.819.82-.82 2.624-1.475 3.77-5.573 3.77-.655 0-2.294 0-2.951-.163-.655 0-.82-.164-.82-2.788v-6.72c0-2.458.82-2.458 2.46-2.458 7.54 0 8.36 1.639 9.506 4.426.165.164.493.983.984.983s.493-.82.493-.983v-5.41c0-.656 0-.819-.82-.819h-1.476c-1.312.163-3.934.163-9.18.163h-.49c-5.083 0-7.54 0-8.853-.163H.984c-.329 0-.984 0-.984.655s.82.82 1.803.82c2.622.164 2.622 1.639 2.622 3.606v21.31zm220.96-26.554c.491-.493 1.31-.655 2.132-.655s1.474.162 2.13.655c.819.655 1.312 1.803 1.312 2.95 0 2.13-1.477 3.77-3.442 3.77s-3.608-1.64-3.608-3.77c0-1.147.493-2.295 1.476-2.95zm5.245 0C229.81.491 228.663 0 227.517 0c-1.312 0-2.46.491-3.115 1.312-.82.82-1.312 1.803-1.312 3.113 0 2.296 1.967 4.263 4.427 4.263s4.261-1.967 4.261-4.263c0-1.31-.493-2.294-1.148-3.113zm-4.59 4.097c0 .82 0 .984-.492.984h-.163v.328c.327-.164.656-.164.984-.164.49 0 .655 0 1.148.164v-.328h-.164c-.493 0-.493-.165-.493-.984v-.655c0-.164 0-.164.164-.164s.329.164.493.164c.162.328.327.82.49.983.492.656.82.984 1.475.984h.493v-.164c-.164 0-.328-.164-.493-.164-.326-.329-.655-.984-1.146-1.803l-.164-.165c.327-.164.984-.49.984-1.146 0-.983-.984-1.148-1.968-1.148h-1.64c-.163 0-.163.165 0 .327.493 0 .493.164.493.821v2.13zm.82-2.787c0-.164.164-.164.328-.164.656 0 .984.329.984.984 0 .328-.164.492-.164.657-.164.162-.491.162-.655.162-.493 0-.493 0-.493-.162V2.622zm-18.03 23.113v-4.918c0-.655 0-.982.82-.982 1.802 0 2.13.162 3.113 2.13l1.967 3.77 3.115 6.064c.49.821.655 1.312 1.474 1.312.329 0 1.968-.164 2.296-.164.655 0 3.442.164 4.097.164.329 0 .657-.164.657-.655s-.328-.493-1.803-.657c-1.148-.162-1.803-1.31-2.623-2.786l-1.804-3.278-2.294-4.097c-.984-1.803-1.639-2.132-2.132-2.46 1.477-.328 5.902-1.31 5.902-6.393 0-1.474-.657-6.72-8.196-6.72-1.312 0-7.05.163-8.195.163-.657 0-2.624-.164-3.115-.164-1.475 0-1.64 0-1.64.493 0 .655.656.655 1.64.82 2.131 0 2.131 1.147 2.131 2.95v18.359c0 1.803 0 2.95-2.131 3.113-.984 0-1.64 0-1.64.657s.656.655.984.655c.656 0 4.262-.164 4.917-.164.164 0 4.427.164 5.246.164.327 0 .82 0 .82-.655s-.493-.657-1.476-.657c-2.13-.162-2.13-1.31-2.13-3.113v-2.951zm0-15.736c0-1.803 0-2.787 1.967-2.787 5.409 0 5.9 4.59 5.9 6.23 0 5.408-4.261 5.408-5.737 5.408-2.13 0-2.13-.163-2.13-1.64V10zM180.308 28.52c0 1.804 0 2.951-2.131 3.116-.984.162-1.639.162-1.639.819s.655.655.984.655.655-.164 1.31-.164h8.853c2.458 0 5.409.164 7.703.164 1.147 0 1.64-.49 1.64-1.312.164-1.639.655-4.425.655-4.916 0-.329-.164-.656-.49-.656-.493 0-.493.163-1.313 1.64-1.803 3.605-4.59 3.605-6.392 3.605-3.606 0-4.59-.49-4.59-3.442v-7.376c0-1.312.328-1.312 2.458-1.312 3.442 0 4.754 0 5.573 3.278.329.82.493.983.82.983.492 0 .492-.49.492-.819v-2.13c0-.983.163-5.409.163-5.901s-.163-.656-.327-.656c-.328 0-.492 0-.655.656-.821 2.294-1.148 3.277-6.066 3.277-2.458 0-2.458-.49-2.458-1.803V10c0-2.13.164-2.459 2.294-2.459 6.23 0 7.212 1.64 7.705 2.787.819 1.475.819 1.639 1.31 1.639s.493-.491.493-.655V7.376c0-.983 0-1.312-.493-1.312h-1.31c-1.148 0-3.442.164-7.87.164h-1.965c-3.77 0-5.573-.164-6.557-.164h-.983c-.329 0-.984 0-.984.493 0 .655.655.82 1.639.82 2.131.163 2.131 1.311 2.131 3.114v18.03zM163.917 9.015c0-1.475.162-1.475 2.622-1.475 2.787 0 4.917 0 5.736 4.098.164.983.493.983.657.983.491 0 .655-.49.655-1.31l.329-5.41c0-.983 0-1.64-.656-1.64-.328 0-.492.164-.492.657-.329.655-.655 1.31-5.08 1.31h-13.771c-.984 0-1.803-.164-1.966-1.31 0-.328-.164-.493-.493-.493s-.49.165-.655.657L149 11.311c0 .164-.164.327-.164.655 0 .164.328.49.655.49s.493-.162.984-.818c2.131-4.098 5.082-4.098 7.54-4.098.984 0 1.312 0 1.312 1.148v19.998c0 1.639 0 2.786-2.131 2.95-.984.163-1.639.163-1.639.82s.655.655.984.655c.819 0 4.26-.164 5.08-.164 1.312 0 3.606.164 5.083.164.326 0 .819 0 .819-.655s-.493-.82-1.476-.82c-2.13-.164-2.13-1.311-2.13-3.115V9.015zm-15.9 15.408c0-4.752-4.59-6.884-6.886-7.867-3.442-1.475-6.064-2.623-6.064-5.574 0-1.803 1.148-4.26 4.754-4.26s4.425 2.457 4.916 4.26c.329 1.312.493 1.475.984 1.475.657 0 .657-.327.657-1.146 0-3.935 0-4.262-.493-4.59-.655-.328-3.278-.984-5.737-.984-5.41 0-8.523 3.442-8.523 7.377 0 4.59 3.442 6.228 6.884 7.867 3.115 1.476 6.066 3.115 6.066 6.393 0 3.442-3.28 4.754-5.083 4.754-3.113 0-6.064-2.623-6.883-6.557 0-.329-.164-.656-.493-.656-.655 0-.655.656-.655.82-.164 1.476-.164 3.606-.164 3.77 0 1.148.164 1.803.655 2.132.657.49 3.443 1.638 6.721 1.638 5.737 0 9.344-3.934 9.344-8.852zm-36.882 4.098c0 1.804 0 2.951-2.131 3.116-.984.162-1.64.162-1.64.819s.656.655.985.655.655-.164 1.312-.164h8.85c2.459 0 5.41.164 7.705.164 1.146 0 1.639-.49 1.639-1.312.164-1.639.655-4.425.655-4.916 0-.329-.164-.656-.49-.656-.493 0-.493.163-1.313 1.64-1.967 3.605-4.59 3.605-6.393 3.605-3.606 0-4.59-.49-4.59-3.442v-7.376c0-1.312.33-1.312 2.459-1.312 3.443 0 4.754 0 5.573 3.278.329.82.493.983.82.983.492 0 .492-.49.492-.819v-2.13c0-.983.164-5.409.164-5.901s-.164-.656-.492-.656c-.164 0-.327 0-.491.656-.82 2.294-1.312 3.277-6.066 3.277-2.458 0-2.458-.49-2.458-1.803V10c0-2.13.164-2.459 2.295-2.459 6.229 0 7.212 1.64 7.703 2.787.82 1.475.82 1.639 1.312 1.639s.492-.491.492-.655V7.376c0-.983 0-1.312-.492-1.312h-1.312c-1.147 0-3.441.164-7.867.164h-1.967c-3.77 0-5.573-.164-6.557-.164h-.983c-.329 0-.984 0-.984.493 0 .655.655.82 1.639.82 2.131.163 2.131 1.311 2.131 3.114v18.03zM88.68 25.735v-4.918c0-.655 0-.982.82-.982 1.966 0 2.13.162 3.113 2.13l1.968 3.77 3.277 6.064c.329.821.657 1.312 1.312 1.312.493 0 1.967-.164 2.296-.164.655 0 3.606.164 4.097.164.328 0 .655-.164.655-.655s-.327-.493-1.639-.657-1.803-1.31-2.786-2.786l-1.803-3.278-2.294-4.097c-.984-1.803-1.477-2.132-2.132-2.46 1.475-.328 5.902-1.31 5.902-6.393 0-1.474-.657-6.72-8.197-6.72-1.31 0-7.048.163-8.196.163-.491 0-2.623-.164-3.114-.164-1.476 0-1.64 0-1.64.493 0 .655.657.655 1.64.82 2.13 0 2.13 1.147 2.13 2.95v18.359c0 1.803 0 2.95-2.13 3.113-.983 0-1.64 0-1.64.657s.657.655.985.655c.82 0 4.261-.164 4.917-.164.164 0 4.425.164 5.245.164.328 0 .819 0 .819-.655s-.491-.657-1.475-.657c-2.13-.162-2.13-1.31-2.13-3.113v-2.951zm0-15.736c0-1.803 0-2.787 1.966-2.787 5.41 0 5.902 4.59 5.902 6.23 0 5.408-4.263 5.408-5.738 5.408-2.13 0-2.13-.163-2.13-1.64V10zM60.977 25.735v-4.918c0-.655 0-.982.82-.982 1.967 0 2.13.162 3.113 2.13l1.967 3.77 3.28 6.064c.327.821.49 1.312 1.31 1.312.493 0 1.967-.164 2.296-.164.655 0 3.442.164 4.097.164.328 0 .655-.164.655-.655s-.327-.493-1.639-.657-1.803-1.31-2.786-2.786l-1.803-3.278-2.294-4.097c-.984-1.803-1.475-2.132-2.132-2.46 1.476-.328 5.902-1.31 5.902-6.393 0-1.474-.657-6.72-8.196-6.72-1.312 0-7.05.163-8.196.163-.492 0-2.624-.164-3.115-.164-1.474 0-1.638 0-1.638.493 0 .655.655.655 1.638.82 2.13 0 2.13 1.147 2.13 2.95v18.359c0 1.803 0 2.95-2.13 3.113-.983 0-1.638 0-1.638.657s.655.655.983.655c.82 0 4.261-.164 4.917-.164.164 0 4.427.164 5.246.164.327 0 .82 0 .82-.655s-.493-.657-1.477-.657c-2.13-.162-2.13-1.31-2.13-3.113v-2.951zm0-15.736c0-1.803 0-2.787 1.968-2.787 5.407 0 5.9 4.59 5.9 6.23 0 5.408-4.262 5.408-5.738 5.408-2.13 0-2.13-.163-2.13-1.64V10zM30.49 26.063c-.984-2.295-1.64-4.918-1.64-7.54 0-6.066 3.279-11.64 9.179-11.64 6.885 0 10 7.214 10 12.295 0 2.46-.493 4.754-1.312 6.885-1.475 3.442-4.097 6.065-7.867 6.065-3.606 0-6.557-2.459-8.36-6.065zm20.817 0c1.147-2.131 1.803-4.425 1.803-7.048 0-7.377-6.393-13.278-14.425-13.278-8.36 0-14.916 5.9-14.916 13.77 0 2.458.655 4.589 1.638 6.556 2.624 4.426 7.705 7.212 13.114 7.212 5.08 0 10.163-2.786 12.786-7.212z" fill="#3d7f70" fill-rule="evenodd"/>
</svg>
