<?xml version="1.0" encoding="UTF-8"?>
<svg viewBox="0 0 149 34" xmlns="http://www.w3.org/2000/svg">
<path d="M148.696 10.931l-.342 5.285h-2.216c-3.409 0-5.113 2.728-5.113 5.285v11.591h-5.967v-22.16h5.625l.17 2.897c1.194-2.046 3.24-2.898 5.797-2.898h2.046zm-41.425 22.16h-5.966v-11.59c0-2.557-.17-5.626-3.58-5.626s-4.603 2.387-4.603 5.285v11.932h-6.137v-22.16h5.625l.17 2.897c1.194-1.875 3.41-3.41 6.649-3.41 5.967 0 7.841 4.263 7.841 8.865v13.807zm-22.842-5.113l-.341 4.945c-1.535.51-2.729.51-4.261.51-5.627 0-7.33-2.557-7.33-7.67V4.795h5.965v6.137h5.967l-.341 5.285h-5.626v9.035c0 2.046.681 3.238 2.729 3.238 1.022-.001 2.045-.17 3.238-.512zM70.621 10.931l-.512 5.285h-1.705c-3.238 0-4.944 2.728-4.944 5.285v11.591h-5.966v-22.16h5.626l.17 2.897c1.193-2.046 3.238-2.898 5.796-2.898h1.535zM30.56 30.706c-4.091 2.216-8.182 3.408-13.467 3.239C7.207 33.603.047 27.465.047 17.068S7.207.192 17.094.02c4.944-.17 9.376 1.194 12.956 4.263l-4.262 4.262c-2.216-1.876-5.284-2.898-9.035-2.728-6.307.17-10.057 4.773-10.057 10.91-.17 6.648 3.921 11.25 10.398 11.421 3.069.171 5.285-.17 7.16-1.022v-6.99h-6.819l.512-5.626H30.56v16.196zm101.769-6.479h-16.364c.51 2.729 2.726 4.432 5.454 4.603 2.727 0 4.261-.852 6.138-2.727l3.92 2.897c-2.728 3.41-5.967 4.603-9.886 4.603-6.648 0-11.593-4.603-11.593-11.592 0-6.82 4.945-11.592 11.422-11.592 7.16 0 10.909 4.262 10.909 11.933v1.875zm-5.965-4.772c-.171-2.728-2.218-4.432-5.116-4.432-2.897.17-4.773 2.045-5.283 4.432h10.399zm-72.621-.852v14.49h-5.285l-.17-2.217c-1.534 2.047-4.261 2.729-6.99 2.729-3.92 0-7.84-1.875-7.84-6.648-.17-7.332 8.182-7.842 13.466-7.842h1.023v-.341c0-2.386-1.535-3.75-4.602-3.75-2.216 0-4.262 1.022-5.966 2.385L33.97 14c3.069-2.557 6.478-3.58 9.887-3.58 6.82 0 9.887 3.24 9.887 8.183zm-5.795 4.943h-.853c-2.728 0-7.841 0-7.671 3.068 0 4.092 8.523 2.729 8.523-2.216v-.852z" fill="#1d5ba4"/>
</svg>
