<?xml version="1.0" encoding="UTF-8"?>
<svg viewBox="0 0 104 70" xmlns="http://www.w3.org/2000/svg">
<path d="M71.05.311H41.935C31.41 2.826 31.19 11.576 31.19 11.576v29.568h11.193V14.22a2.748 2.748 0 0 1 2.243-2.69H71.05V.312zM48.922 15.867s-2.178-.214-2.178 1.71v8.576h14.383v2.592a1.231 1.231 0 0 1-1.296 1.297H46.744v11.102H62.43s9.514-1.458 9.592-11.135V15.873l-23.1-.006zM13.41 67.498l-.816.538a13.94 13.94 0 0 1-1.945 1.018 6.06 6.06 0 0 1-2.32.544 8.283 8.283 0 0 1-5.918-2.23 7.408 7.408 0 0 1-2.366-5.632 8.257 8.257 0 0 1 2.133-5.671 6.67 6.67 0 0 1 5.185-2.398 8.6 8.6 0 0 1 2.696.46 7.46 7.46 0 0 1 3.001 1.756l-1.329 1.543a5.185 5.185 0 0 0-2.21-1.264 7.447 7.447 0 0 0-2.184-.298 4.485 4.485 0 0 0-3.59 1.756A6.481 6.481 0 0 0 2.3 61.84a5.373 5.373 0 0 0 1.646 4.018 5.794 5.794 0 0 0 4.194 1.608 4.232 4.232 0 0 0 2.165-.648l.94-.72v-3.364H6.662l.648-2.1h6.086l.013 6.864zm13.812-4.103a5.918 5.918 0 0 1-1.691 4.22 5.672 5.672 0 0 1-8.238.032 5.769 5.769 0 0 1-1.724-4.232 6.131 6.131 0 0 1 1.646-4.271 5.185 5.185 0 0 1 4.031-1.802 5.684 5.684 0 0 1 4.298 1.737 5.918 5.918 0 0 1 1.678 4.316zm-2.152 0a3.889 3.889 0 0 0-1.082-2.787 3.513 3.513 0 0 0-2.683-1.147 3.3 3.3 0 0 0-2.509 1.212 3.928 3.928 0 0 0-1.05 2.71 3.844 3.844 0 0 0 1.05 2.728 3.5 3.5 0 0 0 2.651 1.147 3.403 3.403 0 0 0 2.593-1.134 3.7 3.7 0 0 0 1.056-2.696l-.026-.033zm15.802 0a5.918 5.918 0 0 1-1.691 4.22 5.672 5.672 0 0 1-8.238.032 5.775 5.775 0 0 1-1.731-4.232 6.138 6.138 0 0 1 1.653-4.271 5.185 5.185 0 0 1 4.031-1.802 5.684 5.684 0 0 1 4.298 1.737 5.918 5.918 0 0 1 1.704 4.316h-.026zm-2.152 0a3.889 3.889 0 0 0-1.082-2.787 3.513 3.513 0 0 0-2.683-1.147 3.286 3.286 0 0 0-2.554 1.18 3.928 3.928 0 0 0-1.05 2.709 3.844 3.844 0 0 0 1.063 2.722 3.5 3.5 0 0 0 2.65 1.147 3.403 3.403 0 0 0 2.593-1.134 3.7 3.7 0 0 0 1.09-2.657l-.027-.033zm14.778 5.646l-1.944.31v-1.944l-.428.493a5.185 5.185 0 0 1-1.251.881 5.03 5.03 0 0 1-2.152.48 5.114 5.114 0 0 1-3.889-1.743 5.905 5.905 0 0 1-1.6-4.149 6.203 6.203 0 0 1 1.58-4.264 4.984 4.984 0 0 1 3.89-1.77 5.45 5.45 0 0 1 2.294.44 3.95 3.95 0 0 1 1.173.837l.33.46v-5.12l2.1-.311-.103 15.4zm-1.821-5.522a3.98 3.98 0 0 0-1.147-2.904 3.513 3.513 0 0 0-2.593-1.2 3.364 3.364 0 0 0-2.65 1.135c-.638.73-.98 1.67-.96 2.638a4.245 4.245 0 0 0 .992 2.89 3.176 3.176 0 0 0 2.508 1.128 3.84 3.84 0 0 0 2.664-1.05 3.429 3.429 0 0 0 1.212-2.637h-.026zm12.963-7.435h-5.885v4.084h4.537v2.1h-4.537v6.76l-2.288.35v-15.38h7.7l.473 2.086zm4.718-1.199l-1.406 1.821-1.355-1.82 1.433-1.803 1.296 1.802h.032zm-.421 14.162l-2.1.292V57.964l2.1-.324v11.407zm9.489-11.524l-.992 2.327a3.364 3.364 0 0 0-.389 0 3.947 3.947 0 0 0-.615.052 2.67 2.67 0 0 0-.649.227 2.631 2.631 0 0 0-1.14 1.296 5.185 5.185 0 0 0-.551 2.346v5.348l-2.1.343V57.964l1.944-.357v2.38l.765-1.252a3.118 3.118 0 0 1 1.257-.92 6.294 6.294 0 0 1 1.4-.246 6.157 6.157 0 0 1 1.083-.046h-.013zm15.653 11.55l-2.1.311v-7.81A2.19 2.19 0 0 0 91.506 60a2.068 2.068 0 0 0-3.073.44 2.67 2.67 0 0 0-.395 1.342v7.286l-2.1.395V61.62a2.424 2.424 0 0 0-.454-1.575 1.569 1.569 0 0 0-1.257-.538h-.201a1.672 1.672 0 0 0-1.601.947c-.27.568-.4 1.193-.376 1.821v6.793l-2.184.395V57.964l1.944-.344v1.459c.185-.296.402-.57.648-.817a2.742 2.742 0 0 1 1.945-.804 3.41 3.41 0 0 1 1.867.409c.456.355.817.818 1.05 1.348a3.429 3.429 0 0 1 3.091-1.757 3.357 3.357 0 0 1 2.871 1.245 5 5 0 0 1 .765 3.033l.033 7.337zm9.625-3.461a3.4 3.4 0 0 1-1.083 2.593 3.805 3.805 0 0 1-2.735 1.017 4.388 4.388 0 0 1-2.242-.59 4.258 4.258 0 0 1-1.504-1.367l1.471-1.342a4.27 4.27 0 0 0 .298.396 2.67 2.67 0 0 0 1.977.868c.448.017.885-.136 1.225-.428a1.48 1.48 0 0 0 .454-1.18c0-.576-.357-.972-1.083-1.185l-2.307-.733a4.057 4.057 0 0 1-1.426-1.121 3.565 3.565 0 0 1 .564-4.362 3.59 3.59 0 0 1 2.528-.966 4.213 4.213 0 0 1 2.054.506 3.494 3.494 0 0 1 1.349 1.134l-1.251 1.426a5.185 5.185 0 0 0-.649-.525 2.47 2.47 0 0 0-1.438-.538 1.854 1.854 0 0 0-1.083.291 1.3 1.3 0 0 0-.505 1.083 1.12 1.12 0 0 0 .486 1.017c.576.283 1.189.481 1.821.59a4.28 4.28 0 0 1 2.178 1.18 3.05 3.05 0 0 1 .9 2.236z" fill="#4385f4"/>
</svg>
