<svg xmlns="http://www.w3.org/2000/svg" width="188" height="41"  fill-rule="evenodd" xmlns:v="https://vecta.io/nano"><g fill="#737373"><path fill-rule="nonzero" d="M66.853 23.916l-1.116 3.162h-.093a22.498 22.498 0 0 0-1.085-3.101L58.575 8.938h-5.861v23.969h3.876v-14.79l-.031-3.287-.125-1.519h.094c.186.93.402 1.612.558 2.046l7.193 17.489h2.729l7.132-17.644c.155-.403.311-1.21.465-1.892h.093a223.993 223.993 0 0 0-.186 4.31v15.193h4.124V8.876h-5.644l-6.139 15.04zm15.689-8.279h4.031v17.178h-4.031V15.637zm2.047-7.256c-.682 0-1.24.248-1.706.682s-.713.992-.713 1.674a2.18 2.18 0 0 0 .713 1.643c.465.434 1.023.652 1.706.652s1.271-.249 1.706-.652a2.18 2.18 0 0 0 .713-1.643c0-.651-.248-1.209-.713-1.674-.404-.434-.993-.682-1.706-.682zm16.279 7.101a11.18 11.18 0 0 0-2.264-.249c-1.829 0-3.504.403-4.899 1.209s-2.512 1.923-3.225 3.318c-.745 1.426-1.116 3.069-1.116 4.962 0 1.643.372 3.101 1.085 4.434.713 1.303 1.705 2.356 3.039 3.069 1.271.713 2.76 1.086 4.433 1.086 1.923 0 3.567-.403 4.869-1.148l.032-.029v-3.722l-.155.124c-.59.434-1.271.807-1.955 1.022-.713.249-1.363.372-1.921.372-1.612 0-2.884-.465-3.783-1.488-.931-.992-1.396-2.356-1.396-4.062 0-1.768.465-3.163 1.426-4.186s2.233-1.55 3.783-1.55c1.303 0 2.636.434 3.846 1.302l.155.124v-3.938l-.032-.031c-.526-.217-1.116-.464-1.922-.619zm13.303-.125c-.992 0-1.923.31-2.729.961-.684.558-1.148 1.364-1.552 2.326h-.03v-3.008h-4.031v17.178h4.031v-8.775c0-1.487.311-2.728.992-3.627.682-.93 1.55-1.396 2.604-1.396.373 0 .744.093 1.209.155.436.124.745.248.961.403l.155.125v-4.031l-.092-.031c-.278-.187-.836-.28-1.518-.28zm10.976-.092c-2.822 0-5.086.837-6.668 2.48-1.611 1.643-2.388 3.907-2.388 6.76 0 2.667.807 4.838 2.358 6.419 1.549 1.55 3.658 2.355 6.294 2.355 2.759 0 4.961-.836 6.542-2.511 1.613-1.674 2.389-3.907 2.389-6.667 0-2.729-.745-4.899-2.265-6.48-1.457-1.581-3.596-2.356-6.262-2.356zm3.224 13.209c-.743.961-1.923 1.427-3.38 1.427s-2.634-.466-3.473-1.488c-.836-.962-1.239-2.356-1.239-4.125 0-1.829.433-3.225 1.239-4.217.839-.992 1.984-1.488 3.442-1.488 1.426 0 2.542.465 3.349 1.426s1.241 2.356 1.241 4.186c-.063 1.861-.403 3.319-1.179 4.279zm14.296-5.706c-1.271-.526-2.078-.93-2.45-1.271-.31-.311-.465-.744-.465-1.302 0-.465.186-.93.65-1.241s.993-.465 1.768-.465c.683 0 1.396.124 2.078.31s1.302.465 1.799.837l.154.124v-3.783l-.093-.031a11.2 11.2 0 0 0-1.83-.527 12.417 12.417 0 0 0-1.984-.186c-1.923 0-3.503.465-4.744 1.488-1.24.961-1.829 2.264-1.829 3.783 0 .807.124 1.52.403 2.109s.681 1.147 1.239 1.612c.558.435 1.364.93 2.48 1.396l2.078.96c.436.249.713.529.931.745.155.249.247.559.247.962 0 1.146-.868 1.705-2.635 1.705-.683 0-1.396-.124-2.232-.403a8.709 8.709 0 0 1-2.264-1.147l-.154-.124v3.938l.093.032c.588.278 1.301.465 2.17.682.868.154 1.645.28 2.325.28 2.078 0 3.784-.466 4.992-1.49 1.241-.991 1.893-2.262 1.893-3.906 0-1.146-.31-2.171-.993-2.946a12.584 12.584 0 0 0-3.627-2.141zm15.254-7.503c-2.819 0-5.084.837-6.665 2.48s-2.388 3.907-2.388 6.76c0 2.667.807 4.838 2.356 6.419 1.551 1.55 3.659 2.355 6.295 2.355 2.76 0 4.961-.836 6.541-2.511 1.613-1.674 2.388-3.907 2.388-6.667 0-2.729-.742-4.899-2.262-6.48-1.457-1.581-3.597-2.356-6.265-2.356zm3.194 13.209c-.744.961-1.922 1.427-3.378 1.427-1.49 0-2.636-.466-3.475-1.488-.836-.962-1.239-2.356-1.239-4.125 0-1.829.433-3.225 1.239-4.217.839-.992 1.984-1.488 3.442-1.488 1.396 0 2.542.465 3.349 1.426s1.24 2.356 1.24 4.186c.001 1.861-.401 3.319-1.178 4.279z"/><path d="M188 18.954v-3.317h-4.062v-5.085l-.125.031-3.844 1.147-.094.031v3.876h-6.078v-2.17c0-.992.248-1.768.683-2.264s1.085-.744 1.892-.744c.559 0 1.147.124 1.798.403l.154.093V7.451l-.092-.031c-.559-.186-1.302-.31-2.264-.31a7.256 7.256 0 0 0-3.226.745 5.377 5.377 0 0 0-2.201 2.201c-.527.93-.806 1.984-.806 3.194v2.388h-2.822v3.287h2.822v13.891h4.062v-13.86h6.078v8.837c0 3.628 1.705 5.459 5.115 5.459.559 0 1.147-.094 1.706-.188.59-.124 1.022-.278 1.271-.403l.032-.03v-3.318l-.155.124a2.648 2.648 0 0 1-.838.373c-.31.093-.588.123-.806.123-.807 0-1.364-.185-1.768-.65-.373-.435-.559-1.147-.559-2.202v-8.124H188v-.003z"/></g><path fill="#f25022" d="M.744.877h19.008v19.008H.744z"/><path fill="#7fba00" d="M21.736.877h19.008v19.008H21.736z"/><path fill="#00a4ef" d="M.744 21.869h19.008v19.008H.744z"/><path fill="#ffb900" d="M21.736 21.869h19.008v19.008H21.736z"/></svg>