<?xml version="1.0" encoding="UTF-8"?>
<svg viewBox="0 0 28 50" xmlns="http://www.w3.org/2000/svg">
<path d="M27.099 24.678c-.062-.127-.203-.23-.388-.285l-4.673-1.37c-.32-.093-.7-.019-.887.178l-.893.94-.28-.197c-.742-1.69-1.78-3.075-3.231-3.823-.02-.011-.046-.015-.067-.024l-.411-1.432.187-.183c.118-.117.152-.264.088-.399l-.424-.902a.77.77 0 0 0 .408-.981h2.748c.363 0 .668-.182.704-.42s-.207-.457-.564-.505l-1.79-.238 2.052-.502c.343-.084.532-.327.437-.56s-.448-.377-.804-.337l-2.662.304 1.758-1.074c.267-.163.302-.433.084-.624s-.621-.242-.932-.117l-2.886 1.16-.011-.003.146-1.748c.018-.233-.228-.44-.577-.484s-.692.091-.803.314l-.873 1.768-.49.052-1.862-1.219c-.252-.164-.648-.18-.93-.039s-.359.4-.183.602l1.11 1.282-.11.067h-1.2c.023-1.837-.375-3.048-.41-3.142-.293-.588-.092-1.235-.02-1.428.177-.186.543-.651.543-1.309 0-.694-.304-1.13-.538-1.366l.055-.41c1.518-.214 1.868-.622 1.868-.945V3.912c0-.51-.809-.78-1.702-.92.397-.423.608-.95.191-1.5a4.286 4.286 0 0 1-.208-.294.325.325 0 0 0-.034-.372c-.13-.169-.448-.377-.92-.41s-.943.108-1.444.425C5.922.5 5.49.521 5.317.55c-.45.069-.71.346-.778.824-.019.132.041.257.16.35a.276.276 0 0 0-.023.012c-.523.273-.62.588-.608.804a.818.818 0 0 0 .189.452c-.892.142-1.7.41-1.7.92v1.367c0 .502.767.77 1.663.916l.198.952c.056.223-.015.488-.046.57a.325.325 0 0 0-.022.094 1.64 1.64 0 0 0 .57 1.329c-.105.792-.42 3.335-.252 4.047l.277 1.11v.83c-.463.428-1.766 1.724-1.766 2.776 0 .851.462 1.347.82 1.606-.314.492-.455 1.19.438 1.64.652.33.707.493.473.873-.22.153-.333.278-.385.368-.49.777.5 1.649.979 2.007.036.339.153.925.514 1.355-.841.979-1.41 1.815-1.41 2.241 0 .392.068.834.577 1.131.365.214.87.294 1.494.304l-1.773 2.461-.01.081c-.028.207.063.433.202.774.368.91 1.053 2.603.089 5.467-1.471 4.365-1.733 5.83-1.673 6.385-.182.478-1.144 1.494-1.68 1.903-.525.4-.606.904-.597 1.224L.87 47.9c-.18.088-.286.227-.286.375v1.13c0 .258.317.467.708.467s.707-.21.707-.467v-.895l1.181-.577v1.009c0 .257.317.467.708.467s.708-.21.708-.467v-1.54l.454-.049v1.589c0 .257.317.467.708.467s.707-.21.707-.467v-1.659l13.836.28.012 1.382c.002.256.318.464.707.464h.004c.39-.002.706-.212.704-.47l-.01-1.26.155.02v1.706c0 .258.317.467.708.467s.707-.21.707-.467v-2.089c0-.222-.238-.414-.57-.457l-.757-.099c-.061-3-.319-5.331-.506-6.661l.106-1.09c.03-.305.36-3.891.016-7.906l1.846-2.046c1.026-.186 2.317-1.277 3.26-2.215.154-.153.158-.351.01-.507a5.64 5.64 0 0 0-.44-.415l.778-.863c.105-.115.128-.253.068-.38zm-15.163-6.086a5.633 5.633 0 0 0 1.762.316l-.086.578c-.083.014-.171.04-.26.067a14.4 14.4 0 0 1-1.416-.961zm-5.586-4.42c0-.004-.103-.377-.283-1.13-.06-.255-.033-.927.031-1.696a1.69 1.69 0 0 0 .353.087 1.083 1.083 0 0 0 .308-.007 1.87 1.87 0 0 0 .442-.134c.12.48.32 1.503.272 2.874.006.09.062.883.3 1.38-.037.072-.136.23-.399.516l-.88.968-.133-1.75v-1.025a.294.294 0 0 0-.01-.083zm.36-6.668l-.21-.007-.045-.407.303.006-.047.408zm1.563-2.199a.924.924 0 0 0-.33-.084c-.065-.005-.126.005-.188.013-.026-.003-.047-.012-.074-.014a.935.935 0 0 0-.547.14l-.178-.01-.085.745-.532-.012-.05-.432-.033-.3-.18.009a.94.94 0 0 0-.545-.138c-.03.001-.055.011-.084.015a.891.891 0 0 0-.597.093 7.606 7.606 0 0 1-.361-.051 12.105 12.105 0 0 1 1.983-.144c.86 0 1.533.066 1.981.143l-.18.027zm5.952 11.665c-.015.152-.102.607-.322.891l-.002.003a.367.367 0 0 0-.058.107c-.089.01-.287.018-.732-.063-.546-.099-.905-.268-1.098-.518-.27-.347-.179-.814-.074-1.084l1.52-.534.787.338-.02.86zm-.819-2.917c.76.037 1.276.19 1.534.452.25.253.257.6.2.875l-1.26-.54a1.03 1.03 0 0 0-.718-.02l-2.146.753a.598.598 0 0 0-.328.245 2.17 2.17 0 0 0-.161.382c-.039-.002-.076-.01-.114-.008l-.226-.622c.146-.379.817-1.634 3.22-1.517zM5.48 2.518s.013-.02.076-.052c.34-.178.566-.36.676-.544.16.01.274-.004.321-.013a.807.807 0 0 0 .375-.158 3.25 3.25 0 0 1 .382-.274c.084.145.195.29.301.43.267.352-.27.753-.568.938a17.444 17.444 0 0 0-1.168 0c-.207-.12-.39-.269-.395-.327zm.993 1.25c1.32 0 2.204.158 2.5.267v.373c-.967-.19-2.137-.207-2.5-.207s-1.534.017-2.5.207v-.373c.296-.11 1.18-.267 2.5-.267zM5.056 16.843c.034.316.074.588.121.708.202.513.988.753 1.077.778a1 1 0 0 0 .283.039c.244 0 .48-.084.61-.231l1.438-1.592.137-.163c-.04.242-.197.715-.757 1.56-.77 1.167-2.39 1.037-2.874.969-.149-.096-.495-.385-.495-1.01 0-.309.198-.689.46-1.058zm.245 3.565c-.22-.11-.112-.36.006-.538l.369.017c1.214 0 2.769-.334 3.586-1.57l.161-.257c.021 1.23-1.032 2.573-2.48 3.056l-.567.201c-.145-.323-.497-.616-1.075-.909zm1.606 3.78c-.006-.116-.079-.228-.202-.31-.457-.31-1.03-.89-.869-1.133l.002-.002c.043-.042.38-.338 1.746-.795 1.514-.506 2.678-1.664 3.093-2.905.458.395 1.07.798 1.528 1.08-.018.013-.034.02-.053.032-1.342.874-3.5 2.782-5.166 4.532a2.593 2.593 0 0 1-.08-.5zm-.78 4.238c-.024-.014-.102-.087-.102-.434 0-1.077 6.543-7.336 7.901-7.607.355-.007.568.019.792.097-2.011 1.285-4.896 4.762-7.33 7.995-.951.056-1.2-.015-1.262-.051zm.442 9.986c1.041-3.086.269-4.993-.102-5.91a4.38 4.38 0 0 1-.15-.398c3.624-5.123 8.286-10.749 9.678-11.184 4.976 2.76 4.378 14.982 4.194 17.555-.769.103-1.877.496-3.368 1.192-8.459 4.01-11.134 4.653-11.913 4.736.009-.374.205-1.668 1.661-5.99zM4.6 45.338c.044.002.082.009.13.009 1.683 0 6.028-1.656 12.914-4.92 1.134-.531 1.856-.79 2.303-.919.17 1.051.519 3.61.599 7.127l-14.788-.298-.011.001c-.035 0-.07 0-.105.005l-1.87.206c-.022.002-.04.013-.062.017a.92.92 0 0 0-.183.051c-.019.008-.042.008-.06.017l-.034.017c.4-.377.857-.87 1.166-1.313zm15.976-19.774l1.449-1.523 3.385.992-.251.278a1.579 1.579 0 0 0-.374-.05h-.001c-.393.007-.788.175-1.206.513-.158.127-.94.79-.809 1.276a.43.43 0 0 0 .168.228c.136.102.207.182.242.228l-1.777 1.97c-.178-1.333-.441-2.669-.826-3.912zm3.947 1.653a1.53 1.53 0 0 0-.305-.374 2.57 2.57 0 0 1 .597-.588c.12.077.273.197.423.33a14.59 14.59 0 0 1-.715.632z" fill="#46565d"/>
</svg>
