<?xml version="1.0" encoding="UTF-8"?>
<svg width="95px" height="51px" viewBox="0 0 95 51" version="1.1" xmlns="http://www.w3.org/2000/svg" xmlns:xlink="http://www.w3.org/1999/xlink">
    <!-- Generator: Sketch 63.1 (92452) - https://sketch.com -->
    <title>Pune Icon</title>
    <desc>Created with Sketch.</desc>
    <g id="Page-1" stroke="none" stroke-width="1" fill="none" fill-rule="evenodd">
        <g id="Footer-Addresses-New-Pune-Icon" transform="translate(-1523.000000, -115.000000)">
            <g id="Footer-V1">
                <g id="Locations" transform="translate(240.000000, 114.000000)">
                    <g id="Pune" transform="translate(1283.000000, 0.000000)">
                        <g id="Pune-Icon" transform="translate(0.000000, 1.000000)">
                            <g id="Group-2" transform="translate(0.000000, 41.000000)">
                                <rect id="Rectangle" stroke="#000000" x="7.46999994" y="0.5" width="79.3599993" height="8.01999992"></rect>
                                <rect id="Rectangle" fill="#000000" x="0" y="8.00000036" width="94.2999992" height="1"></rect>
                            </g>
                            <g id="Group-3" transform="translate(4.740000, 0.000000)">
                                <g id="3" transform="translate(25.600000, 0.000000)">
                                    <rect id="Rectangle" stroke="#000000" x="3.77999997" y="2.36999962" width="26.0599998" height="39.21"></rect>
                                    <rect id="Rectangle" fill="#000000" x="5.32999995" y="0" width="22.9599998" height="2"></rect>
                                    <rect id="Rectangle-Copy" fill="#000000" x="0" y="1.8" width="33.6199997" height="1"></rect>
                                    <rect id="Rectangle-Copy-2" fill="#000000" x="4.09999996" y="12.5299999" width="25.4199998" height="1"></rect>
                                    <path d="M11.0699999,5.96999994 C11.9757469,5.96999994 12.7099999,6.70425294 12.7099999,7.60999992 L12.7099999,10.0699999 L12.7099999,10.0699999 L9.42999992,10.0699999 L9.42999992,7.60999992 C9.42999992,6.70425294 10.1642529,5.96999994 11.0699999,5.96999994 Z" id="Rectangle" fill="#000000"></path>
                                    <path d="M16.3999999,5.96999994 C17.3057468,5.96999994 18.0399998,6.70425294 18.0399998,7.60999992 L18.0399998,10.0699999 L18.0399998,10.0699999 L14.7599999,10.0699999 L14.7599999,7.60999992 C14.7599999,6.70425294 15.4942529,5.96999994 16.3999999,5.96999994 Z" id="Rectangle-Copy-3" fill="#000000"></path>
                                    <path d="M21.7299998,5.96999994 C22.6357468,5.96999994 23.3699998,6.70425294 23.3699998,7.60999992 L23.3699998,10.0699999 L23.3699998,10.0699999 L20.0899998,10.0699999 L20.0899998,7.60999992 C20.0899998,6.70425294 20.8242528,5.96999994 21.7299998,5.96999994 Z" id="Rectangle-Copy-4" fill="#000000"></path>
                                    <circle id="Oval" fill="#000000" cx="11.2749999" cy="17.0649998" r="1.43499999"></circle>
                                    <circle id="Oval-Copy" fill="#000000" cx="22.3449998" cy="17.0649998" r="1.43499999"></circle>
                                    <path d="M16.8099999,18.7699998 C15.4762322,18.7699998 14.2687322,19.310616 13.3946741,20.1846741 C12.5206161,21.0587321 11.9799999,22.2662321 11.9799999,23.5999998 L11.9799999,41.3699998 L21.6399998,41.3699998 L21.6399998,23.5999998 C21.6399998,22.2662321 21.0993836,21.0587321 20.2253256,20.1846741 C19.3512675,19.310616 18.1437675,18.7699998 16.8099999,18.7699998 Z" id="Rectangle" stroke="#000000"></path>
                                </g>
                                <g id="2" transform="translate(70.000000, 24.500000) scale(-1, 1) translate(-70.000000, -24.500000) translate(55.000000, 6.000000)">
                                    <path d="M23.5999998,0.5 L11.2999999,0.5 C9.73979549,0.5 8.3272955,1.13239778 7.30484662,2.15484667 C6.28239773,3.17729556 5.64999995,4.58979554 5.64999995,6.14999995 L5.64999995,35.5799997 L29.2499997,35.5799997 L29.2499997,6.14999995 C29.2499997,4.58979554 28.6176019,3.17729556 27.5951531,2.15484667 C26.5727042,1.13239778 25.1602042,0.5 23.5999998,0.5 Z" id="Rectangle" stroke="#000000"></path>
                                    <rect id="Rectangle-Copy" fill="#000000" x="6.14999995" y="27.4699998" width="23" height="1"></rect>
                                    <rect id="Rectangle-Copy-8" fill="#000000" x="0" y="18.8599998" width="6.14999995" height="2"></rect>
                                    <rect id="Rectangle-Copy-9" fill="#000000" x="0" y="7.78999993" width="6.14999995" height="2"></rect>
                                    <path d="M23.5999998,7.87999994 L11.2999999,7.87999994 C9.73979549,7.87999994 8.3272955,8.51239772 7.30484662,9.53484661 C6.28239773,10.5572955 5.64999995,11.9697955 5.64999995,13.5299999 L5.64999995,35.5799997 L29.2499997,35.5799997 L29.2499997,13.5299999 C29.2499997,11.9697955 28.6176019,10.5572955 27.5951531,9.53484661 C26.5727042,8.51239772 25.1602042,7.87999994 23.5999998,7.87999994 Z" id="Rectangle-Copy-7" stroke="#000000"></path>
                                    <rect id="Rectangle" fill="#000000" x="10.4799999" y="13.9399999" width="3.27999997" height="5.73999995"></rect>
                                    <rect id="Rectangle-Copy-5" fill="#000000" x="15.8099999" y="13.9399999" width="3.27999997" height="5.73999995"></rect>
                                    <rect id="Rectangle-Copy-6" fill="#000000" x="21.1399998" y="13.9399999" width="3.27999997" height="5.73999995"></rect>
                                </g>
                                <g id="1" transform="translate(0.000000, 6.000000)">
                                    <path d="M23.5999998,0.5 L11.2999999,0.5 C9.73979549,0.5 8.3272955,1.13239778 7.30484662,2.15484667 C6.28239773,3.17729556 5.64999995,4.58979554 5.64999995,6.14999995 L5.64999995,35.5799997 L29.2499997,35.5799997 L29.2499997,6.14999995 C29.2499997,4.58979554 28.6176019,3.17729556 27.5951531,2.15484667 C26.5727042,1.13239778 25.1602042,0.5 23.5999998,0.5 Z" id="Rectangle" stroke="#000000"></path>
                                    <rect id="Rectangle-Copy" fill="#000000" x="6.14999995" y="27.4699998" width="23" height="1"></rect>
                                    <rect id="Rectangle-Copy-8" fill="#000000" x="0" y="18.8599998" width="6.14999995" height="2"></rect>
                                    <rect id="Rectangle-Copy-9" fill="#000000" x="0" y="7.78999993" width="6.14999995" height="2"></rect>
                                    <path d="M23.5999998,7.87999994 L11.2999999,7.87999994 C9.73979549,7.87999994 8.3272955,8.51239772 7.30484662,9.53484661 C6.28239773,10.5572955 5.64999995,11.9697955 5.64999995,13.5299999 L5.64999995,35.5799997 L29.2499997,35.5799997 L29.2499997,13.5299999 C29.2499997,11.9697955 28.6176019,10.5572955 27.5951531,9.53484661 C26.5727042,8.51239772 25.1602042,7.87999994 23.5999998,7.87999994 Z" id="Rectangle-Copy-7" stroke="#000000"></path>
                                    <rect id="Rectangle" fill="#000000" x="10.4799999" y="13.9399999" width="3.27999997" height="5.73999995"></rect>
                                    <rect id="Rectangle-Copy-5" fill="#000000" x="15.8099999" y="13.9399999" width="3.27999997" height="5.73999995"></rect>
                                    <rect id="Rectangle-Copy-6" fill="#000000" x="21.1399998" y="13.9399999" width="3.27999997" height="5.73999995"></rect>
                                </g>
                            </g>
                        </g>
                    </g>
                </g>
            </g>
        </g>
    </g>
</svg>