<?xml version="1.0" encoding="UTF-8"?>
<svg width="141px" height="47px" viewBox="0 0 141 47" version="1.1" xmlns="http://www.w3.org/2000/svg" xmlns:xlink="http://www.w3.org/1999/xlink">
    <!-- Generator: Sketch 63.1 (92452) - https://sketch.com -->
    <title>Group 45</title>
    <desc>Created with Sketch.</desc>
    <g id="Page-1" stroke="none" stroke-width="1" fill="none" fill-rule="evenodd">
        <g id="Group-45">
            <g id="Group-44" transform="translate(51.000000, 2.000000)">
                <g id="Group-42" fill="#F13624">
                    <polygon id="Star" points="8.25358869 12.380383 3.40225098 14.9308822 4.32877404 9.52883828 0.403959384 5.70308952 5.82791984 4.91494193 8.25358869 -2.13162821e-14 10.6792575 4.91494193 16.103218 5.70308952 12.1784033 9.52883828 13.1049264 14.9308822"></polygon>
                    <polygon id="Star-Copy" points="26.7416274 12.380383 21.8902897 14.9308822 22.8168127 9.52883828 18.8919981 5.70308952 24.3159585 4.91494193 26.7416274 -2.13162821e-14 29.1672962 4.91494193 34.5912567 5.70308952 30.666442 9.52883828 31.5929651 14.9308822"></polygon>
                    <polygon id="Star-Copy-2" points="45.229666 12.380383 40.3783283 14.9308822 41.3048514 9.52883828 37.3800367 5.70308952 42.8039972 4.91494193 45.229666 -2.13162821e-14 47.6553349 4.91494193 53.0792953 5.70308952 49.1544807 9.52883828 50.0810037 14.9308822"></polygon>
                    <polygon id="Star-Copy-3" points="63.7177047 12.380383 58.866367 14.9308822 59.7928901 9.52883828 55.8680754 5.70308952 61.2920359 4.91494193 63.7177047 -2.13162821e-14 66.1433736 4.91494193 71.567334 5.70308952 67.6425194 9.52883828 68.5690424 14.9308822"></polygon>
                    <polygon id="Star-Copy-4" points="82.2057434 12.380383 77.3544057 14.9308822 78.2809287 9.52883828 74.3561141 5.70308952 79.7800745 4.91494193 82.2057434 -2.13162821e-14 84.6314122 4.91494193 90.0553727 5.70308952 86.130558 9.52883828 87.0570811 14.9308822"></polygon>
                </g>
                <path d="M3.632,40.04 C5.904,40.04 7.232,38.744 7.232,36.984 C7.232,35.224 5.712,34.424 4.784,34.328 C5.696,34.168 7.072,33.464 7.072,31.832 C7.072,30.024 5.488,29.016 3.632,29.016 C2.08,29.016 0.896,29.72 0.144,30.632 L0.72,31.208 C1.504,30.328 2.368,29.848 3.584,29.848 C4.96,29.848 6.144,30.584 6.144,31.912 C6.144,33.336 4.864,33.944 3.44,33.944 L2.97846875,33.9431562 C2.74175,33.94175 2.548,33.938 2.448,33.928 L2.448,34.792 C2.608,34.776 3.008,34.76 3.44,34.76 C5.04,34.76 6.304,35.4 6.304,36.936 C6.304,38.344 5.264,39.208 3.616,39.208 C2.256,39.208 1.216,38.568 0.624,37.72 L-1.27897692e-13,38.264 C0.624,39.224 1.888,40.04 3.632,40.04 Z M13.181333,40.04 C15.229333,40.04 16.813333,38.904 16.813333,37.176 C16.813333,35.688 15.517333,34.712 14.157333,34.344 C15.421333,34.008 16.637333,33.192 16.637333,31.768 C16.637333,29.88 14.845333,29.016 13.181333,29.016 C11.501333,29.016 9.725333,29.88 9.725333,31.768 C9.725333,33.192 10.941333,34.008 12.205333,34.344 C10.845333,34.712 9.549333,35.688 9.549333,37.176 C9.549333,38.92 11.117333,40.04 13.181333,40.04 Z M13.181333,33.96 C12.541333,33.832 10.653333,33.352 10.653333,31.864 C10.653333,30.584 11.789333,29.848 13.181333,29.848 C14.573333,29.848 15.709333,30.584 15.709333,31.864 C15.709333,33.352 13.837333,33.832 13.181333,33.96 Z M13.181333,39.208 C11.757333,39.208 10.477333,38.408 10.477333,37.112 C10.477333,35.48 12.525333,34.84 13.181333,34.76 C13.821333,34.84 15.885333,35.48 15.885333,37.112 C15.885333,38.408 14.573333,39.208 13.181333,39.208 Z M24.951999,39.848 L24.951999,35.432 L27.303999,35.432 L30.295999,39.848 L31.399999,39.848 L28.311999,35.368 C29.911999,35.304 31.271999,34.232 31.271999,32.296 C31.271999,30.344 29.863999,29.176 28.023999,29.176 L24.039999,29.176 L24.039999,39.848 L24.951999,39.848 Z M27.943999,34.6 L24.951999,34.6 L24.951999,30.008 L27.943999,30.008 C29.367999,30.008 30.311999,30.952 30.311999,32.296 C30.311999,33.64 29.367999,34.6 27.943999,34.6 Z M40.725332,39.848 L40.725332,39.016 L34.869332,39.016 L34.869332,34.792 L40.613332,34.792 L40.613332,33.96 L34.869332,33.96 L34.869332,30.008 L40.725332,30.008 L40.725332,29.176 L33.957332,29.176 L33.957332,39.848 L40.725332,39.848 Z M47.810665,39.848 L52.178665,29.176 L51.122665,29.176 L47.250665,38.824 L43.362665,29.176 L42.306665,29.176 L46.674665,39.848 L47.810665,39.848 Z M55.071998,39.848 L55.071998,29.176 L54.159998,29.176 L54.159998,39.848 L55.071998,39.848 Z M64.909331,39.848 L64.909331,39.016 L59.053331,39.016 L59.053331,34.792 L64.797331,34.792 L64.797331,33.96 L59.053331,33.96 L59.053331,30.008 L64.909331,30.008 L64.909331,29.176 L58.141331,29.176 L58.141331,39.848 L64.909331,39.848 Z M70.634664,39.848 L73.194664,30.68 L75.754664,39.848 L76.778664,39.848 L79.818664,29.176 L78.794664,29.176 L76.218664,38.568 L73.610664,29.176 L72.778664,29.176 L70.154664,38.568 L67.578664,29.176 L66.554664,29.176 L69.610664,39.848 L70.634664,39.848 Z M85.175997,40.04 C88.055997,40.04 88.967997,38.392 88.967997,37.016 C88.967997,33.032 82.567997,34.536 82.567997,31.8 C82.567997,30.648 83.639997,29.832 85.063997,29.832 C86.263997,29.832 87.351997,30.248 88.119997,31.176 L88.727997,30.504 C87.911997,29.56 86.695997,29 85.111997,29 C83.175997,29 81.607997,30.104 81.607997,31.848 C81.607997,35.576 88.007997,33.944 88.007997,37.08 C88.007997,37.992 87.383997,39.208 85.207997,39.208 C83.671997,39.208 82.551997,38.44 81.863997,37.656 L81.271997,38.344 C82.087997,39.32 83.415997,40.04 85.175997,40.04 Z" id="38REVIEWS" fill="#6B7D91" fill-rule="nonzero"></path>
            </g>
            <g id="Group-41" fill-rule="nonzero">
                <path d="M31.8540999,32.8631102 C29.5310125,34.9432199 26.4637903,36.0961799 23.0978474,36.0961799 C15.677837,36.0961799 10.2288502,30.6687671 10.2288502,23.217033 C10.2288502,15.7652989 15.5044723,10.5663528 23.0978474,10.5663528 C26.405113,10.5663528 29.5310125,11.6635244 31.9127771,13.7436341 L33.531737,15.1303739 L40.7250397,7.96820809 L38.9247137,6.35034496 C34.6919471,2.54345191 29.0722627,0.407553791 23.0951803,0.407553791 C9.75943187,0.407553791 0.0750113608,9.99252944 0.0750113608,23.1612446 C0.0750113608,36.2741714 9.99147389,46.2018471 23.0951803,46.2018471 C29.184283,46.2018471 34.8626447,44.065949 39.0420683,40.1979544 L40.7810498,38.5800912 L33.4757269,31.4232386 L31.8540999,32.8631102 Z" id="Path" fill="#00333D"></path>
                <path d="M22.9695189,15.6723182 C27.1868587,15.6723182 30.6045402,19.0847215 30.6045402,23.3047004 C30.6045402,27.5194011 27.1868587,30.9370827 22.9695189,30.9370827 C18.7548182,30.9370827 15.3397758,27.5194011 15.3397758,23.3047004 C15.3424149,19.0873606 18.7574573,15.6723182 22.9695189,15.6723182" id="Path" fill="#FF3D2E"></path>
            </g>
        </g>
    </g>
</svg>