<?xml version="1.0" encoding="UTF-8"?>
<svg width="151px" height="35px" viewBox="0 0 151 35" version="1.1" xmlns="http://www.w3.org/2000/svg" xmlns:xlink="http://www.w3.org/1999/xlink">
    <!-- Generator: Sketch 52.5 (67469) - http://www.bohemiancoding.com/sketch -->
    <title>haymarket_grey copy</title>
    <desc>Created with Sketch.</desc>
    <g id="Page-1" stroke="none" stroke-width="1" fill="none" fill-rule="evenodd">
        <g id="HomePage-Final" transform="translate(-365.000000, -2496.000000)" fill-rule="nonzero">
            <g id="Client-Logos" transform="translate(320.000000, 1962.000000)">
                <g id="Logos" transform="translate(45.000000, 140.000000)">
                    <g id="haymarket_grey-copy" transform="translate(0.000000, 395.000000)">
                        <g id="Group" transform="translate(0.563429, 0.000000)">
                            <path d="M9.36262857,0 L150.008,0 C150.008,0 150.008,0.6052 150.008,1.35125714 L150.008,31.6782857 C150.008,32.4243429 150.008,33.0295429 150.008,33.0295429 L9.36262857,33.0295429 C9.36262857,33.0295429 9.36262857,32.4243429 9.36262857,31.6782857 L9.36262857,1.35125714 C9.36262857,0.6052 9.36262857,0 9.36262857,0 Z" id="Shape" stroke="#1885C7" stroke-width="0.378" fill="#262554" stroke-linecap="round"></path>
                            <path d="M0.408,0 L9.39274286,0 C9.39274286,0 9.39274286,0.6052 9.39274286,1.35125714 L9.39274286,31.6782857 C9.39274286,32.4243429 9.39274286,33.0295429 9.39274286,33.0295429 L0.408,33.0295429 C0.408,33.0295429 0.408,32.4243429 0.408,31.6782857 L0.408,1.35125714 C0.408,0.6052 0.408,0 0.408,0 Z" id="Shape" stroke="#1885C7" stroke-width="0.0983" fill="#E52328" stroke-linecap="round"></path>
                            <g transform="translate(8.334857, 2.914286)" fill="#FFFFFF" id="Shape">
                                <g transform="translate(5.828571, 3.885714)">
                                    <path d="M4.03725714,17.0330286 L0.704285714,17.0330286 L0.704285714,0.132114286 L4.03725714,0.132114286 L4.03725714,5.43708571 C4.38988571,5.19714286 4.79594286,5.02034286 5.25542857,4.90862857 C5.73628571,4.77942857 6.25502857,4.71531429 6.81165714,4.71531429 C7.40422857,4.71531429 7.95891429,4.77165714 8.47474286,4.88531429 C8.99057143,4.98148571 9.44422857,5.17382857 9.83474286,5.46234286 C10.2233143,5.75182857 10.5283429,6.14428571 10.7508,6.64068571 C10.9907429,7.13902857 11.1112,7.78114286 11.1112,8.56605714 L11.1112,16.9825143 L7.77822857,16.9825143 L7.77822857,8.56605714 C7.77822857,8.14834286 7.71411429,7.80251429 7.58394286,7.52954286 C7.45474286,7.24005714 7.28765714,7.01565714 7.08462857,6.85537143 C6.8816,6.67857143 6.64068571,6.55811429 6.36382857,6.494 C6.10445714,6.43085714 5.83537143,6.39782857 5.5556,6.39782857 C5.20394286,6.39782857 4.89891429,6.4464 4.64051429,6.54257143 C4.38114286,6.63874286 4.17811429,6.75142857 4.02948571,6.88062857 L4.03725714,17.0330286 Z"></path>
                                    <path d="M20.9381714,11.2433143 L19.4101143,11.2433143 C19.1692,11.2433143 18.9205143,11.2753714 18.6621143,11.3394857 C18.4212,11.4026286 18.1997143,11.5230857 17.9947429,11.7008571 C17.8101714,11.8621143 17.6528,12.0855429 17.5226286,12.3740571 C17.3924571,12.6470286 17.3283429,12.9918857 17.3283429,13.4105714 C17.3283429,13.8302286 17.3924571,14.1828571 17.5226286,14.4742857 C17.6528,14.7472571 17.8092,14.9726286 17.9947429,15.1484571 C18.1987429,15.3087429 18.4202286,15.4214286 18.6621143,15.4855429 C18.9214857,15.5496571 19.1701714,15.5817143 19.4101143,15.5817143 C19.7617714,15.5817143 20.0668,15.5331429 20.3252,15.4369714 C20.5845714,15.3398286 20.7876,15.2281143 20.9362286,15.0998857 L20.9381714,11.2433143 Z M18.2997714,17.2700571 C17.7072,17.2700571 17.1525143,17.2127429 16.6366857,17.1000571 C16.1208571,17.0038857 15.6672,16.8115429 15.2766857,16.5220571 C14.8871429,16.2335429 14.5733714,15.8391429 14.3334286,15.3437143 C14.1109714,14.8453714 14.0002286,14.2032571 14.0002286,13.4183429 C14.0002286,12.6324571 14.1109714,11.9903429 14.3334286,11.492 C14.5743429,10.9946286 14.8978286,10.6012 15.3029143,10.3146286 C15.7099429,10.0251429 16.1908,9.83182857 16.7435429,9.73565714 C17.3001714,9.62297143 17.9112,9.56565714 18.5756571,9.56565714 C19.0021143,9.56565714 19.4072,9.59091429 19.7948,9.63948571 C20.2018286,9.68611429 20.5816571,9.74342857 20.9323429,9.80851429 L20.9323429,8.84485714 C20.9323429,7.87925714 20.6739429,7.23714286 20.1581143,6.91851429 C19.6413143,6.59697143 18.9273143,6.43571429 18.0161143,6.43571429 L15.2417143,6.43571429 L15.2417143,5.23114286 C15.6681714,5.10291429 16.1869143,4.9912 16.7979429,4.89502857 C17.4254857,4.79885714 18.0190286,4.74931429 18.5756571,4.74931429 C19.5189143,4.74931429 20.3417143,4.80662857 21.0469714,4.91834286 C21.7522286,5.032 22.3438286,5.24085714 22.8246857,5.54588571 C23.3055429,5.83342857 23.6669143,6.25308571 23.9088,6.79902857 C24.1497143,7.32748571 24.2701714,8.01137143 24.2701714,8.84582857 L24.2701714,17.0602286 L21.9057143,17.0602286 L21.488,16.3394286 L21.3490857,16.3394286 C21.0528,16.5803429 20.6642286,16.8047429 20.1843429,17.0136 C19.7034857,17.2059429 19.0749714,17.3021143 18.2988,17.3021143 L18.2988,17.2700571 L18.2997714,17.2700571 Z"></path>
                                    <path d="M34.9442286,16.5618857 C34.2389714,17.0427429 33.3141714,17.2836571 32.1698286,17.2836571 C31.5772571,17.2836571 31.0225714,17.2263429 30.5067429,17.1136571 C29.9909143,17.0174857 29.5372571,16.8251429 29.1467429,16.5356571 C28.7581714,16.2471429 28.4434286,15.8537143 28.2044571,15.3573143 C27.982,14.8589714 27.8702857,14.2178286 27.8702857,13.4319429 L27.8702857,5.01451429 L31.2032571,5.01451429 L31.2032571,13.4319429 C31.2032571,13.8496571 31.2683429,14.2042286 31.3985143,14.4956571 C31.5286857,14.7686286 31.6948,14.994 31.8978286,15.1698286 C32.1018286,15.3301143 32.3330286,15.4418286 32.5914286,15.5059429 C32.8692571,15.5690857 33.1470857,15.6021143 33.4258857,15.6021143 C33.7775429,15.6021143 34.0835429,15.5545143 34.3409714,15.4573714 C34.6003429,15.3602286 34.8043429,15.2485143 34.952,15.1193143 L34.952,5.02034286 L38.2849714,5.02034286 L38.2849714,16.1305714 C38.2849714,18.2978286 37.7934286,19.8404571 36.8103429,20.7555429 C35.8272571,21.6900571 34.3283429,22.1563429 32.3126286,22.1563429 C31.6073714,22.1563429 30.9322286,22.1077714 30.2862286,22.0116 C29.6577143,21.9154286 29.1302286,21.8037143 28.7037714,21.6745143 L28.7037714,20.4699429 L31.7608571,20.4699429 C32.7973714,20.4699429 33.5852,20.1882286 34.1243429,19.6277143 C34.6809714,19.0652571 34.9588,18.0608 34.9588,16.6114286 L34.9442286,16.5618857 Z"></path>
                                    <path d="M52.2492571,17.0330286 L48.9162857,17.0330286 L48.9162857,8.61657143 C48.9162857,8.19885714 48.8521714,7.85302857 48.7210286,7.57811429 C48.6102857,7.2896 48.4538857,7.0652 48.2498857,6.90588571 C48.0653143,6.72811429 47.8516,6.60862857 47.6106857,6.54451429 C47.3882286,6.47942857 47.1754857,6.44834286 46.9705143,6.44834286 C46.6188571,6.44834286 46.3138286,6.49594286 46.0554286,6.59211429 C45.7960571,6.68925714 45.5930286,6.80097143 45.4444,6.93017143 L45.4444,17.0291429 L42.1114286,17.0291429 L42.1114286,4.97662857 L44.4749143,4.97662857 L44.8916571,5.69742857 L45.0305714,5.69742857 C45.3258857,5.45554286 45.7241714,5.23891429 46.2225143,5.04657143 C46.7208571,4.83771429 47.3872571,4.7328 48.2217143,4.7328 C48.9269714,4.7328 49.5195429,4.82217143 50.0004,4.99897143 C50.4987429,5.15925714 50.9252,5.39337143 51.2788,5.69937143 C51.7042857,5.39434286 52.2065143,5.1612 52.7806286,4.99897143 C53.3547429,4.82217143 54.0570857,4.7328 54.8876571,4.7328 C55.4442857,4.7328 55.9717714,4.79011429 56.4701143,4.9028 C56.9684571,4.99897143 57.4133714,5.19228571 57.8038857,5.4808 C58.1924571,5.76931429 58.4974857,6.16371429 58.7199429,6.65914286 C58.9424,7.15845714 59.0531429,7.7996 59.0531429,8.58451429 L59.0531429,17.0019429 L55.7211429,17.0019429 L55.7211429,8.58451429 C55.7211429,8.16777143 55.6560571,7.82194286 55.5268571,7.548 C55.3976571,7.25948571 55.2305714,7.03508571 55.0265714,6.8748 C54.842,6.69702857 54.6195429,6.57754286 54.3601714,6.51245714 C54.1192571,6.44931429 53.8793143,6.41628571 53.6403429,6.41628571 C53.2886857,6.41628571 52.9729714,6.45708571 52.6970857,6.53674286 C52.4192571,6.60085714 52.1783429,6.68148571 51.9762857,6.77862857 C52.0501143,6.95542857 52.1152,7.21285714 52.1705714,7.55382857 C52.2259429,7.8744 52.2541143,8.22022857 52.2541143,8.58937143 L52.2492571,17.0330286 Z"></path>
                                    <path d="M68.4109143,11.2433143 L66.8818857,11.2433143 C66.64,11.2433143 66.3913143,11.2753714 66.1338857,11.3394857 C65.8929714,11.4026286 65.6705143,11.5230857 65.4665143,11.7008571 C65.2829143,11.8621143 65.1236,12.0855429 64.9944,12.3740571 C64.8642286,12.6470286 64.7991429,12.9918857 64.7991429,13.4105714 C64.7991429,13.8302286 64.8642286,14.1828571 64.9944,14.4742857 C65.1236,14.7472571 65.2819429,14.9726286 65.4665143,15.1484571 C65.6705143,15.3087429 65.892,15.4214286 66.1338857,15.4855429 C66.3932571,15.5496571 66.6419429,15.5817143 66.8818857,15.5817143 C67.2335429,15.5817143 67.5395429,15.5331429 67.7979429,15.4369714 C68.0563429,15.3398286 68.2603429,15.2281143 68.408,15.0998857 L68.4109143,11.2433143 Z M65.7705714,17.2700571 C65.1770286,17.2700571 64.6223429,17.2127429 64.1065143,17.1000571 C63.5906857,17.0038857 63.1370286,16.8115429 62.7474857,16.5220571 C62.3579429,16.2335429 62.0441714,15.8391429 61.8042286,15.3437143 C61.5817714,14.8453714 61.4700571,14.2032571 61.4700571,13.4183429 C61.4700571,12.6324571 61.5817714,11.9903429 61.8042286,11.492 C62.0451429,10.9946286 62.3686286,10.6012 62.7737143,10.3146286 C63.1807429,10.0251429 63.6616,9.83182857 64.2153143,9.73565714 C64.7719429,9.62297143 65.382,9.56565714 66.0464571,9.56565714 C66.4719429,9.56565714 66.878,9.59091429 67.2646286,9.63948571 C67.6716571,9.68611429 68.0514857,9.74342857 68.4021714,9.80851429 L68.4021714,8.84485714 C68.4021714,7.87925714 68.1437714,7.23714286 67.6279429,6.91851429 C67.1121143,6.59988571 66.3981143,6.43862857 65.4869143,6.43571429 L62.7125143,6.43571429 L62.7125143,5.23114286 C63.1389714,5.10291429 63.6577143,4.9912 64.2687429,4.89502857 C64.8962857,4.79885714 65.4898286,4.74931429 66.0464571,4.74931429 C66.9887429,4.74931429 67.8125143,4.80662857 68.5177714,4.91834286 C69.2220571,5.032 69.8146286,5.24085714 70.2945143,5.54588571 C70.7753714,5.83342857 71.1367429,6.25308571 71.3786286,6.79902857 C71.6195429,7.32748571 71.74,8.01137143 71.74,8.84582857 L71.74,17.0602286 L69.3765143,17.0602286 L68.9588,16.3394286 L68.8198857,16.3394286 C68.5236,16.5803429 68.1350286,16.8047429 67.6551429,17.0136 C67.1742857,17.2059429 66.5457714,17.3021143 65.7705714,17.3021143 L65.7705714,17.2700571 Z"></path>
                                    <path d="M83.8974286,4.98148571 L83.8974286,7.02634286 L80.8413143,7.02634286 C80.4896571,7.02634286 80.1836571,7.07491429 79.9242857,7.17205714 C79.6658857,7.2692 79.4628571,7.37994286 79.3142286,7.50914286 L79.3142286,17.0029143 L75.9812571,17.0029143 L75.9812571,4.9504 L78.3447429,4.9504 L78.7614857,5.91308571 L78.9004,5.91308571 C79.1966857,5.67217143 79.594,5.45457143 80.0933143,5.26222857 C80.5916571,5.05337143 81.2580571,4.94845714 82.0925143,4.94845714 L83.8974286,4.98148571 Z"></path>
                                    <polygon points="89.2830286 17.0330286 85.9500571 17.0330286 85.9500571 0.132114286 89.2830286 0.132114286 89.2830286 10.1640571 92.6169714 4.98148571 96.2268 4.98148571 92.4761143 10.6429714 96.5026857 17.0330286 92.8948 17.0330286 89.284 11.1277143 89.284 17.0330286"></polygon>
                                    <path d="M108.138457,11.8485143 L100.933371,11.8485143 C100.933371,13.2308571 101.212171,14.2032571 101.7688,14.7637714 C102.342914,15.3106857 103.223029,15.5856 104.408171,15.5856 L107.465257,15.5856 L107.465257,16.7911429 C107.039771,16.9193714 106.502571,17.0310857 105.8556,17.1272571 C105.227086,17.2253714 104.560686,17.2729714 103.855429,17.2729714 C102.782971,17.2729714 101.846514,17.1602857 101.048,16.9349143 C100.271829,16.7105143 99.6229143,16.3501143 99.1022286,15.8517714 C98.6038857,15.3524571 98.2240571,14.7103429 97.9646857,13.9254286 C97.7237714,13.1220571 97.6033143,12.1496571 97.6033143,11.0092 C97.6033143,9.86874286 97.7247429,8.90411429 97.9646857,8.11531429 C98.2056,7.31097143 98.5485143,6.65914286 98.9953714,6.16274286 C99.4402857,5.6644 99.9872,5.30302857 100.631257,5.07862857 C101.294743,4.85325714 102.044686,4.74057143 102.879143,4.74057143 C103.714571,4.74057143 104.455771,4.85325714 105.101771,5.07862857 C105.7672,5.304 106.320914,5.66537143 106.764857,6.16274286 C107.209771,6.66011429 107.552686,7.31 107.795543,8.11531429 C108.035486,8.90022857 108.155943,9.86582857 108.155943,11.0092 L108.138457,11.8485143 Z M104.804514,10.1582286 C104.804514,9.37234286 104.749143,8.73022857 104.637429,8.23285714 C104.545143,7.73451429 104.415943,7.34205714 104.249829,7.05451429 C104.082743,6.76502857 103.879714,6.57268571 103.639771,6.47651429 C103.398857,6.36382857 103.140457,6.30845714 102.865543,6.30845714 C102.587714,6.30845714 102.329314,6.3648 102.091314,6.47651429 C101.851371,6.57365714 101.6464,6.76502857 101.481257,7.05451429 C101.315143,7.344 101.175257,7.73645714 101.064514,8.23285714 C100.971257,8.7312 100.924629,9.37234286 100.924629,10.1582286 L104.804514,10.1582286 Z"></path>
                                    <path d="M114.871429,7.00011429 L114.871429,13.1482857 C114.871429,13.6291429 114.927771,14.0293714 115.038514,14.3528571 C115.149257,14.6578857 115.288171,14.8988 115.455257,15.0736571 C115.639829,15.2504571 115.835086,15.3796571 116.039086,15.4593143 C116.260571,15.5244 116.474286,15.5554857 116.678286,15.5554857 L119.1768,15.5554857 L119.1768,16.7610286 C119.009714,16.8251429 118.787257,16.8902286 118.509429,16.9543429 C118.250057,17.0019429 117.963486,17.0505143 117.647771,17.0990857 C117.351486,17.1466857 117.045486,17.1787429 116.732686,17.1952571 C116.417943,17.2263429 116.121657,17.2428571 115.843829,17.2428571 C115.251257,17.2428571 114.6956,17.1865143 114.179771,17.0738286 C113.663943,16.9621143 113.210286,16.7610286 112.819771,16.4715429 C112.4312,16.1665143 112.116457,15.7488 111.877486,15.2193714 C111.655029,14.6899429 111.544286,13.9982857 111.544286,13.1453714 L111.544286,6.9972 L110.016229,6.9972 L110.016229,5.18645714 L111.544286,5.18645714 L111.544286,2.2916 L114.877257,2.2916 L114.877257,5.18645714 L118.627943,5.18645714 L118.627943,6.51342857 C118.202457,6.64165714 117.666229,6.75434286 117.019257,6.85051429 C116.389771,6.94668571 115.724343,6.99525714 115.018114,6.99525714 L114.871429,7.00011429 Z"></path>
                                    <path d="M121.6044,6.93308571 L120.938,6.93308571 L120.938,4.77748571 C121.042914,4.74931429 121.1624,4.726 121.295486,4.70462857 C121.428571,4.68422857 121.602457,4.67354286 121.816171,4.67257143 C122.183371,4.67257143 122.456343,4.73085714 122.6312,4.84645714 C122.812857,4.95914286 122.904171,5.14662857 122.904171,5.40988571 C122.904171,5.5216 122.887657,5.61582857 122.854629,5.69354286 C122.827429,5.76834286 122.790514,5.82857143 122.745829,5.87714286 C122.702114,5.92571429 122.653543,5.96554286 122.601086,5.99274286 C122.548629,6.01994286 122.499086,6.04617143 122.449543,6.06657143 L122.9644,6.93502857 L122.2708,6.93502857 L121.846286,6.1744 L121.603429,6.1744 L121.603429,6.93308571 L121.6044,6.93308571 Z M121.817143,5.80137143 C121.938571,5.80137143 122.0396,5.77417143 122.120229,5.71782857 C122.200857,5.6576 122.241657,5.55462857 122.241657,5.40794286 C122.241657,5.27388571 122.200857,5.18062857 122.120229,5.12331429 C122.0396,5.06697143 121.938571,5.03977143 121.817143,5.03977143 L121.605371,5.03977143 L121.605371,5.8004 L121.817143,5.80137143 Z M123.540457,5.82857143 C123.540457,5.57988571 123.499657,5.35742857 123.419029,5.16022857 C123.3384,4.96302857 123.224743,4.79885714 123.079029,4.66674286 C122.933314,4.5288 122.757486,4.42582857 122.551543,4.35588571 C122.349486,4.28497143 122.123143,4.25097143 121.871543,4.25097143 C121.620914,4.25097143 121.391657,4.28497143 121.183771,4.35588571 C120.981714,4.42582857 120.807829,4.5288 120.662114,4.66674286 C120.517371,4.79885714 120.403714,4.964 120.323086,5.16022857 C120.242457,5.35645714 120.201657,5.57794286 120.201657,5.82857143 C120.201657,6.07725714 120.242457,6.29971429 120.323086,6.49594286 C120.403714,6.69314286 120.517371,6.85925714 120.662114,6.99525714 C120.807829,7.12931429 120.981714,7.23131429 121.183771,7.30125714 C121.389714,7.37022857 121.618971,7.40617143 121.871543,7.40617143 C122.122171,7.40617143 122.348514,7.37022857 122.551543,7.30125714 C122.757486,7.23131429 122.933314,7.12931429 123.079029,6.99525714 C123.223771,6.85925714 123.337429,6.69217143 123.419029,6.49594286 C123.499657,6.29971429 123.540457,6.07725714 123.540457,5.82857143 Z M124.146629,5.82857143 C124.146629,6.12 124.092229,6.38325714 123.983429,6.6232 C123.874629,6.86217143 123.721143,7.06714286 123.523943,7.23811429 C123.3248,7.40714286 123.084857,7.53828571 122.802171,7.63348571 C122.524343,7.72868571 122.215429,7.77531429 121.873486,7.77531429 C121.533486,7.77531429 121.221657,7.72771429 120.938,7.63348571 C120.6592,7.53828571 120.4212,7.40811429 120.224,7.23811429 C120.024857,7.06617143 119.872343,6.8612 119.762571,6.6232 C119.6528,6.3852 119.599371,6.12 119.599371,5.82857143 C119.599371,5.542 119.653771,5.27874286 119.762571,5.03977143 C119.871371,4.79788571 120.024857,4.59291429 120.224,4.42582857 C120.422171,4.25291429 120.660171,4.1208 120.938,4.02462857 C121.220686,3.93137143 121.532514,3.8828 121.873486,3.8828 C122.212514,3.8828 122.5224,3.9304 122.802171,4.02462857 C123.085829,4.1208 123.326743,4.25291429 123.523943,4.42582857 C123.721143,4.59291429 123.874629,4.79788571 123.983429,5.03977143 C124.092229,5.27874286 124.146629,5.54102857 124.146629,5.82857143 Z"></path>
                                </g>
                            </g>
                        </g>
                    </g>
                </g>
            </g>
        </g>
    </g>
</svg>