<?xml version="1.0" encoding="UTF-8"?>
<svg width="136px" height="36px" viewBox="0 0 136 36" version="1.1" xmlns="http://www.w3.org/2000/svg" xmlns:xlink="http://www.w3.org/1999/xlink">
    <!-- Generator: Sketch 52.5 (67469) - http://www.bohemiancoding.com/sketch -->
    <title>wooClub-color</title>
    <desc>Created with Sketch.</desc>
    <g id="Page-1" stroke="none" stroke-width="1" fill="none" fill-rule="evenodd">
        <g id="HomePage-Final" transform="translate(-1396.000000, -2496.000000)">
            <g id="Client-Logos" transform="translate(320.000000, 1962.000000)">
                <g id="Logos" transform="translate(45.000000, 140.000000)">
                    <g id="wooClub-color" transform="translate(1031.000000, 394.000000)">
                        <circle id="Oval" fill="#D9094B" cx="17.89056" cy="17.89128" r="17.89056"></circle>
                        <path d="M25.56576,24.11712 L25.2432,24.24672 C25.02504,24.24672 24.86016,24.18984 24.75216,24.07176 C24.64416,23.95224 24.54408,23.7024 24.43752,23.31792 L21.33432,11.43936 L15.26976,11.43936 L12.42648,23.31792 C12.32784,23.73624 12.21624,24.01128 12.08592,24.13512 L11.628,24.32808 C11.23704,24.32808 10.94184,23.99184 10.75536,23.31864 L6.81984,11.43936 L1.26144,11.43936 L6.47352,26.93736 C6.7896,27.85464 7.13376,28.58976 7.49952,29.1348 C7.86672,29.67912 8.36856,30.09528 9.00288,30.39264 C9.64368,30.68352 10.4472,30.83112 11.43,30.83112 C13.98672,30.83112 15.61752,29.4984 16.31376,26.82936 L18.41832,18.7704 L20.62512,26.69976 C20.86632,27.53136 21.19896,28.25496 21.61368,28.86624 C22.0284,29.47536 22.54896,29.95848 23.17392,30.3084 C23.80464,30.65544 24.54336,30.83184 25.38648,30.83184 C25.96248,30.83184 26.56728,30.66624 27.20448,30.33792 C27.8388,30.01176 28.43064,29.52792 28.97712,28.88352 C29.52144,28.24056 29.94192,27.49536 30.2328,26.64576 L37.4652,5.53752 L32.03136,5.53752 L25.87248,23.49936 C25.76016,23.83128 25.64424,24.03 25.56576,24.11712" id="path85491" fill="#B2B2B2"></path>
                        <g id="Group" transform="translate(37.440000, 5.040000)">
                            <path d="M0.14328,16.81992 C0.14328,14.09688 0.92952,11.87856 2.502,10.16712 C4.07448,8.45568 6.15096,7.5996 8.73,7.5996 C11.44224,7.5996 13.54824,8.42256 15.04944,10.06704 C16.54992,11.71224 17.30016,13.96368 17.30016,16.81992 C17.30016,19.66536 16.53552,21.9276 15.00768,23.60664 C13.47912,25.28496 11.3868,26.12448 8.73,26.12448 C6.01776,26.12448 3.90816,25.27632 2.40192,23.58144 C0.8964,21.88584 0.14328,19.63224 0.14328,16.81992 Z M4.4784,16.81992 C4.4784,20.75472 5.89536,22.72176 8.73,22.72176 C10.03032,22.72176 11.06136,22.21128 11.8224,21.18816 C12.58416,20.16576 12.96504,18.7092 12.96504,16.81992 C12.96504,12.94056 11.55312,11.00016 8.73,11.00016 C7.42896,11.00016 6.39576,11.51136 5.62824,12.53448 C4.86216,13.5576 4.4784,14.98536 4.4784,16.81992 Z" id="Shape" fill="#D9094B" fill-rule="nonzero"></path>
                            <path d="M18.88488,16.81992 C18.88488,14.09688 19.67112,11.87856 21.24432,10.16712 C22.81752,8.45568 24.89328,7.5996 27.4716,7.5996 C30.18384,7.5996 32.29056,8.42256 33.79104,10.06704 C35.29152,11.71224 36.04248,13.96368 36.04248,16.81992 C36.04248,19.66536 35.27784,21.9276 33.74928,23.60664 C32.22072,25.28496 30.1284,26.12448 27.4716,26.12448 C24.75936,26.12448 22.64976,25.27632 21.14424,23.58144 C19.638,21.88584 18.88488,19.63224 18.88488,16.81992 Z M23.22,16.81992 C23.22,20.75472 24.63696,22.72176 27.4716,22.72176 C28.77264,22.72176 29.80296,22.21128 30.56472,21.18816 C31.32576,20.16576 31.70664,18.7092 31.70664,16.81992 C31.70664,12.94056 30.29472,11.00016 27.4716,11.00016 C26.17128,11.00016 25.13736,11.51136 24.37056,12.53448 C23.60376,13.5576 23.22,14.98536 23.22,16.81992 Z" id="Shape" fill="#D9094B" fill-rule="nonzero"></path>
                            <path d="M52.79976,9.34992 L51.0156,12.46824 C50.03784,11.54592 48.72528,11.0844 47.0808,11.0844 C45.50256,11.0844 44.25408,11.60928 43.33752,12.65976 C42.42096,13.71024 41.96232,15.16392 41.96232,17.02008 C41.96232,20.76624 43.74648,22.63968 47.3148,22.63968 C48.85992,22.63968 50.22144,22.12848 51.40008,21.10536 L52.9344,24.39 C51.72192,25.14528 50.66352,25.62336 49.75776,25.82352 C48.85128,26.0244 47.78208,26.12448 46.548,26.12448 C43.79112,26.12448 41.61456,25.32168 40.02048,23.71464 C38.42568,22.10904 37.62792,19.87776 37.62792,17.02008 C37.62792,14.20848 38.50056,11.93544 40.24584,10.20096 C41.99112,8.4672 44.37,7.5996 47.38248,7.5996 C49.45968,7.59888 51.26616,8.1828 52.79976,9.34992 Z" id="Path" fill="#B2B2B2"></path>
                            <path d="M55.14048,1.27944 L59.30928,0.27936 L59.30928,20.3544 C59.30928,22.55616 59.96448,23.86728 61.27632,24.2892 C60.6312,25.51248 59.53104,26.12376 57.97512,26.12376 C56.08512,26.12376 55.13976,24.81192 55.13976,22.18896 L55.13976,1.27944 L55.14048,1.27944 Z" id="Path" fill="#B2B2B2"></path>
                            <path d="M74.39112,25.80624 L74.39112,24.30648 C73.80144,24.80688 72.99072,25.236 71.9568,25.59024 C70.92216,25.94592 69.97176,26.12448 69.1056,26.12448 C64.9584,26.12448 62.88552,23.92344 62.88552,19.52136 L62.88552,7.93224 L67.05432,7.93224 L67.05432,19.20384 C67.05432,21.49416 68.08248,22.63896 70.1388,22.63896 C71.08344,22.63896 71.96112,22.39488 72.77256,21.90528 C73.58472,21.41568 74.12328,20.84904 74.3904,20.20464 L74.3904,7.93224 L78.55848,7.93224 L78.55848,25.80624 L74.39112,25.80624 Z" id="Path" fill="#B2B2B2"></path>
                            <path d="M84.56184,24.80616 L83.628,26.12376 L81.2772,26.12376 L81.2772,1.27944 L85.44528,0.27936 L85.44528,8.61624 C86.55696,7.93872 87.76872,7.59888 89.08056,7.59888 C91.69272,7.59888 93.79944,8.424 95.39928,10.07496 C97.00056,11.7252 97.80048,13.84056 97.80048,16.4196 C97.80048,19.40976 96.9948,21.77496 95.38344,23.51448 C93.77136,25.254 91.5876,26.12448 88.83,26.12448 C87.174,26.12376 85.752,25.68528 84.56184,24.80616 Z M85.446,12.18384 L85.446,21.50424 C86.05728,22.22712 86.886,22.58856 87.93,22.58856 C89.9424,22.58856 91.36728,22.11048 92.2068,21.15432 C93.04632,20.19888 93.46536,18.67032 93.46536,16.56936 C93.46536,12.9456 91.73232,11.13408 88.26336,11.13408 C87.03,11.13408 86.0904,11.484 85.446,12.18384 Z" id="Shape" fill="#B2B2B2" fill-rule="nonzero"></path>
                        </g>
                    </g>
                </g>
            </g>
        </g>
    </g>
</svg>