<?xml version="1.0" encoding="UTF-8"?>
<svg width="97px" height="32px" viewBox="0 0 97 32" version="1.1" xmlns="http://www.w3.org/2000/svg" xmlns:xlink="http://www.w3.org/1999/xlink">
    <!-- Generator: Sketch 52.5 (67469) - http://www.bohemiancoding.com/sketch -->
    <title>Lafarge_grey</title>
    <desc>Created with Sketch.</desc>
    <g id="Page-1" stroke="none" stroke-width="1" fill="none" fill-rule="evenodd">
        <g id="HomePage-Final" transform="translate(-649.000000, -2339.000000)">
            <g id="Client-Logos" transform="translate(320.000000, 1962.000000)">
                <g id="Logos" transform="translate(45.000000, 140.000000)">
                    <g id="Lafarge_grey" transform="translate(284.000000, 237.000000)">
                        <g id="Group">
                            <path d="M30.4033333,12.0606667 L26.9786667,20.2146667 L26.9786667,17.92 L22.2773333,17.92 L22.2773333,12.0606667 L18.4586667,12.0606667 L18.4586667,20.3713333 L26.9133333,20.3713333 L26.9793333,20.3713333 L30.7306667,20.3713333 L31.4,18.5906667 L34.392,18.5906667 L35.076,20.3713333 L39.0933333,20.3713333 L35.5466667,12.0606667 L30.4033333,12.0606667 Z M31.8386667,16.6426667 L32.8606667,14.0453333 L32.9166667,14.0453333 L33.9533333,16.6426667 L31.8386667,16.6426667 Z" id="Shape" fill="#1E1E1C"></path>
                            <polygon id="Shape" fill="#1E1E1C" points="44.582 14.064 49.2973333 14.064 49.2973333 12.0606667 40.764 12.0606667 40.764 20.3713333 44.582 20.3713333 44.582 17.4033333 49.1546667 17.4033333 49.1546667 15.4 44.582 15.4"></polygon>
                            <path d="M52.6833333,12.0606667 L49.1933333,20.3713333 L53.0113333,20.3713333 L53.6813333,18.5906667 L56.6733333,18.5906667 L57.3566667,20.3713333 L61.374,20.3713333 L57.8266667,12.0606667 L52.6833333,12.0606667 Z M54.1186667,16.6426667 L55.14,14.0453333 L55.1966667,14.0453333 L56.2333333,16.6426667 L54.1186667,16.6426667 Z" id="Shape" fill="#1E1E1C"></path>
                            <path d="M71.71,16.822 C71.4053333,16.632 71.0346667,16.4986667 70.5986667,16.422 C71.282,16.3273333 71.8333333,16.1046667 72.2513333,15.7526667 C72.7073333,15.3633333 72.9346667,14.874 72.9346667,14.284 C72.9346667,13.3626667 72.4406667,12.73 71.4526667,12.388 C70.8446667,12.1693333 69.9993333,12.06 68.9166667,12.06 L62.948,12.06 L62.948,20.3706667 L66.766,20.3706667 L66.766,17.4766667 L67.62,17.4766667 C67.906,17.4766667 68.148,17.5246667 68.3473333,17.6193333 C68.6326667,17.752 68.8033333,17.98 68.86,18.3033333 L69.2306667,20.3706667 L73.22,20.3706667 L72.5646667,17.962 C72.4313333,17.4773333 72.146,17.0973333 71.71,16.822 Z M68.1713333,15.668 C68.0386667,15.6873333 67.8253333,15.696 67.532,15.696 L66.5953333,15.696 L66.5953333,13.9153333 L67.5893333,13.9153333 C68.1006667,13.9153333 68.4766667,13.9886667 68.718,14.136 C68.9586667,14.2833333 69.08,14.4993333 69.08,14.7846667 C69.0806667,15.26 68.778,15.554 68.1713333,15.668 Z" id="Shape" fill="#1E1E1C"></path>
                            <path d="M80.8926667,17.2513333 L81.612,17.2513333 L81.612,18.3886667 C81.4886667,18.408 81.3813333,18.4246667 81.292,18.4386667 C81.2013333,18.4533333 81.0806667,18.4606667 80.928,18.4606667 C80.3106667,18.4606667 79.8026667,18.3086667 79.404,18.0053333 C78.9386667,17.6446667 78.706,17.1273333 78.706,16.4533333 C78.706,15.6646667 78.9913333,15.0573333 79.5606667,14.63 C80.13,14.2026667 80.9,13.9893333 81.8686667,13.9893333 C82.438,13.9893333 82.9986667,14.056 83.5493333,14.1873333 C83.91,14.2726667 84.2293333,14.368 84.504,14.4713333 L84.504,12.2426667 C83.84,12.1193333 83.2386667,12.0366667 82.702,11.994 C82.1646667,11.952 81.6266667,11.9306667 81.0846667,11.9306667 C79.252,11.9306667 77.7933333,12.2486667 76.7106667,12.884 C75.9133333,13.3493333 75.3526667,13.9753333 75.03,14.7633333 C74.8406667,15.2193333 74.7453333,15.6886667 74.7453333,16.1726667 C74.7453333,17.3106667 75.1246667,18.256 75.8846667,19.0053333 C76.91,20.002 78.5386667,20.5 80.7713333,20.5 C81.598,20.5 82.3546667,20.462 83.0433333,20.386 C83.732,20.3106667 84.352,20.2053333 84.9026667,20.0733333 L84.9026667,15.7 L80.892,15.7 L80.892,17.2513333 L80.8926667,17.2513333 Z" id="Shape" fill="#1E1E1C"></path>
                            <polygon id="Shape" fill="#1E1E1C" points="91.2386667 18.424 91.2386667 17.1253333 95.9113333 17.1253333 95.9113333 15.2326667 91.2386667 15.2326667 91.2386667 14.0266667 96.1246667 14.0266667 96.1246667 12.0606667 87.4206667 12.0606667 87.4206667 20.3713333 96.2246667 20.3713333 96.2246667 18.424"></polygon>
                            <polygon id="Shape" fill="#01853F" points="17.592 22.128 17.592 11.1146667 22.44 11.1146667 27.332 0 14.0846667 0 0 32 20.986 32 23.214 26.94 15.4746667 26.94"></polygon>
                        </g>
                    </g>
                </g>
            </g>
        </g>
    </g>
</svg>