<?xml version="1.0" encoding="UTF-8"?>
<svg width="102px" height="26px" viewBox="0 0 102 26" version="1.1" xmlns="http://www.w3.org/2000/svg" xmlns:xlink="http://www.w3.org/1999/xlink">
    <!-- Generator: Sketch 52.5 (67469) - http://www.bohemiancoding.com/sketch -->
    <title>Paypal_grey</title>
    <desc>Created with Sketch.</desc>
    <g id="Page-1" stroke="none" stroke-width="1" fill="none" fill-rule="evenodd">
        <g id="HomePage-Final" transform="translate(-903.000000, -2344.000000)" fill-rule="nonzero">
            <g id="Client-Logos" transform="translate(320.000000, 1962.000000)">
                <g id="Logos" transform="translate(45.000000, 140.000000)">
                    <g id="Paypal_grey" transform="translate(538.000000, 242.000000)">
                        <g id="Group">
                            <path d="M83.1137895,5.24721053 C82.0539474,4.65605263 80.3981579,4.35773684 78.1313684,4.35773684 C77.0099474,4.35773684 75.8837368,4.44805263 74.7527368,4.62321053 C73.9227895,4.75047368 73.8379474,4.771 73.3227368,4.88321053 C72.2615263,5.11447368 72.098,6.17568421 72.098,6.17568421 L71.7579474,7.57626316 C71.565,8.47257895 72.0747368,8.43494737 72.3018947,8.36515789 C72.7651053,8.22557895 73.0162105,8.08668421 73.9611053,7.87252632 C74.8635789,7.66794737 75.8180526,7.51468421 76.5788947,7.52084211 C77.6948421,7.52084211 78.5439474,7.64331579 79.1084211,7.878 C79.6728947,8.12431579 79.9520526,8.54373684 79.9520526,9.14378947 C79.9541053,9.28610526 79.9575263,9.42157895 79.9068947,9.53857895 C79.8603684,9.64873684 79.7714211,9.75478947 79.5038947,9.79036842 C77.9103684,9.88547368 76.7670526,10.0312105 75.3897368,10.2316842 C74.0315789,10.4232632 72.8417368,10.751 71.8482632,11.2046316 C70.7884211,11.6746842 69.9961053,12.3027895 69.4494211,13.1005789 C68.9177895,13.9011053 68.6502632,14.8699474 68.6488947,16.0125789 C68.6488947,17.0915789 69.0361579,17.9714737 69.7874211,18.655 C70.5462105,19.3296316 71.5342105,19.6635263 72.7295263,19.6635263 C73.476,19.6580526 74.0603158,19.6046842 74.4797368,19.5 C74.8936842,19.396 75.3466316,19.2468421 75.8242105,19.0402105 C76.1806842,18.8903684 76.5658947,18.6748421 76.9723158,18.4038947 C77.3801053,18.1329474 77.662,17.9393158 78.0232632,17.7032632 L78.0369474,17.7251579 L77.9356842,18.174 C77.935,18.1787895 77.9281579,18.1815263 77.9281579,18.1856316 L77.9315789,18.1938421 C77.8152632,18.7350526 78.1409474,19.1845789 78.6766842,19.2372632 L78.6828421,19.2468421 L78.7300526,19.2468421 L78.7321053,19.2495789 C79.0878947,19.2495789 80.3078421,19.2488947 80.8784737,19.2468421 L81.2766842,19.2468421 C81.3026842,19.2468421 81.3054211,19.2386316 81.3163684,19.2324737 C81.8637368,19.1654211 82.3871579,18.72 82.511,18.1856316 L84.5478947,9.39352632 C84.5944211,9.18689474 84.6320526,8.94810526 84.6539474,8.67305263 C84.6792632,8.39526316 84.7093684,8.16673684 84.7004737,8.00184211 C84.7045789,6.75863158 84.1702105,5.83905263 83.1137895,5.24721053 Z M78.1785789,15.7238421 C77.8316842,15.9414211 77.4663158,16.1288947 77.0831579,16.2876316 C76.5679474,16.4949474 76.0794211,16.6037368 75.6278421,16.6037368 C74.9347368,16.6037368 74.4017368,16.5058947 74.0418421,16.2965263 C73.6812632,16.0974211 73.4917368,15.7518947 73.4985789,15.2565263 C73.4985789,14.6852105 73.6299474,14.2425263 73.9029474,13.8942632 C74.178,13.5596842 74.5864737,13.2907895 75.0927895,13.0903158 C75.5963684,12.9192632 76.2169474,12.779 76.9319474,12.6777368 C77.5682632,12.5976842 78.8258421,12.4526316 78.9859474,12.4512632 C79.1467368,12.4498947 79.2541579,12.3616316 79.1823158,12.7899474 C79.1501579,12.9760526 78.7875263,14.4669474 78.6212632,15.1443158 C78.572,15.3482105 78.3024211,15.6444737 78.1785789,15.7238421 Z" id="Shape" fill="#35679A"></path>
                            <path d="M48.0705789,4.55273684 C47.4725789,4.55273684 46.6891579,5.03647368 46.3183158,5.62078947 C46.3183158,5.62078947 42.3218421,12.4731579 41.9284211,13.1580526 C41.7149474,13.5268421 41.4987368,13.2921579 41.4624737,13.1553158 C41.4344211,12.9883684 40.2247368,5.66526316 40.2247368,5.66526316 C40.0885789,5.07547368 39.4727895,4.56984211 38.7030526,4.57189474 L36.2104737,4.576 C35.6097368,4.576 35.2347895,5.05768421 35.3682105,5.63926316 C35.3682105,5.63926316 37.2737368,16.4374737 37.6452632,18.9779474 C37.8306842,20.3819474 37.6261053,20.631 37.6261053,20.631 L35.1561053,24.9381053 C34.7948421,25.5210526 34.9918947,26 35.5898947,26 L38.4786316,25.9972632 C39.0766316,25.9972632 39.8689474,25.5217368 40.2247368,24.9360526 L51.3356316,6.14421053 C51.3356316,6.14421053 52.3982105,4.53905263 51.4184211,4.55273684 C50.7499474,4.56163158 48.0705789,4.55273684 48.0705789,4.55273684" id="Shape" fill="#1C3761"></path>
                            <path d="M12.9945263,8.37268421 C12.1536316,8.98710526 10.9884211,9.29568421 9.47494737,9.29568421 L8.79073684,9.29568421 C8.18863158,9.29568421 7.80752632,8.81810526 7.94094737,8.23105263 L8.78047368,4.61226316 C8.90842105,4.02931579 9.50915789,3.54557895 10.1126316,3.55173684 L11.0246842,3.54626316 C12.0913684,3.54626316 12.9014737,3.72894737 13.4481579,4.09157895 C13.9873158,4.44463158 14.261,5.00294737 14.2514211,5.75215789 C14.2685263,6.88178947 13.8402105,7.75552632 12.9945263,8.37268421 M19.0176316,2.79568421 C18.6707368,2.119 18.1507368,1.56957895 17.4884211,1.15563158 C16.8001053,0.730736842 16.0002632,0.438578947 15.067,0.261368421 C14.1282632,0.0937368421 13.0321579,0.0116315789 11.7745789,0 L5.95194737,0.00410526316 C5.34710526,0.0116315789 4.75457895,0.485789474 4.61431579,1.06805263 L0.688315789,18.1356842 C0.552842105,18.72 0.931210526,19.2023684 1.534,19.2023684 L4.32352632,19.2023684 C4.92631579,19.2023684 5.52431579,18.7316316 5.65978947,18.1356842 L6.62110526,13.9934737 C6.74973684,13.4139474 7.34568421,12.935 7.94984211,12.935 L8.74694737,12.935 C12.1584211,12.9315789 14.8042632,12.2336842 16.7056842,10.8372105 C18.6043684,9.44347368 19.5540526,7.59542105 19.5492632,5.31015789 C19.5540526,4.30642105 19.3802632,3.46621053 19.0176316,2.79568421" id="Shape" fill="#1C3761"></path>
                            <path d="M63.6377368,8.44178947 C62.8016316,9.04936842 61.6282105,9.35452632 60.1195263,9.35452632 L59.4243684,9.35452632 C58.8243158,9.36136842 58.4370526,8.87626316 58.5793684,8.294 L59.4161579,4.67042105 C59.5413684,4.09705263 60.1503158,3.60921053 60.7421579,3.614 L61.659,3.60921053 C62.7291053,3.614 63.5303158,3.79326316 64.0831579,4.14973684 C64.6271053,4.50963158 64.8905263,5.06863158 64.8946316,5.81305263 C64.8966842,6.94747368 64.4772632,7.81984211 63.6377368,8.44178947 M69.6581053,2.85794737 C69.3105263,2.18126316 68.7857368,1.63731579 68.1220526,1.21310526 C67.4419474,0.789578947 66.6325263,0.495368421 65.6965263,0.322947368 C64.7707895,0.160789474 63.6705789,0.0677368421 62.4164211,0.065 L56.5807895,0.0677368421 C55.9800526,0.078 55.3902632,0.550105263 55.2520526,1.131 L51.3281053,18.2041053 C51.1851053,18.7843158 51.5751053,19.2680526 52.1655789,19.2646316 L54.9653684,19.2598421 C55.5592632,19.2646316 56.1647895,18.7843158 56.3050526,18.2041053 L57.2513158,14.0605263 C57.3840526,13.4796316 57.9875263,12.9931579 58.5916842,13.0020526 L59.3867368,13.0020526 C62.8023158,13.0020526 65.4502105,12.3007368 67.3468421,10.9035789 C69.2386842,9.49957895 70.1904211,7.65836842 70.1904211,5.36831579 C70.1842632,4.36868421 70.0138947,3.52642105 69.6581053,2.85794737" id="Shape" fill="#35679A"></path>
                            <path d="M32.4616842,5.23421053 C31.4025263,4.64305263 29.7467368,4.34473684 27.4799474,4.34473684 C26.3585263,4.34473684 25.2323158,4.43368421 24.1013158,4.60952632 C23.2706842,4.73610526 23.1872105,4.75731579 22.6713158,4.86952632 C21.6101053,5.10147368 21.4465789,6.16268421 21.4465789,6.16268421 L21.1058421,7.56326316 C20.9135789,8.45889474 21.424,8.42194737 21.6504737,8.35215789 C22.113,8.21257895 22.3647895,8.07436842 23.3096842,7.85952632 C24.2107895,7.65494737 25.1659474,7.50236842 25.9267895,7.50784211 C27.0441053,7.50784211 27.8918421,7.62963158 28.4563158,7.865 C29.0207895,8.11131579 29.2992632,8.53142105 29.2992632,9.13078947 C29.3026842,9.27378947 29.3061053,9.40857895 29.2554737,9.52557895 C29.2089474,9.63573684 29.1186316,9.74178947 28.8517895,9.77736842 C27.2603158,9.87315789 26.117,10.0182105 24.7383158,10.2193684 C23.3794737,10.4109474 22.191,10.7386842 21.1968421,11.1923158 C20.137,11.6623684 19.3453684,12.2918421 18.8000526,13.0882632 C18.2663684,13.8881053 17.9995263,14.8576316 17.9988421,16.0002632 C17.9988421,17.0792632 18.3867895,17.9598421 19.1366842,18.6426842 C19.8968421,19.3173158 20.8834737,19.6518947 22.0787895,19.6518947 C22.8252632,19.6464211 23.4095789,19.5916842 23.8303684,19.4883684 C24.2443158,19.383 24.6972632,19.2352105 25.1727895,19.0285789 C25.5306316,18.8787368 25.9144737,18.6625263 26.3222632,18.3915789 C26.7286842,18.1206316 27.0119474,17.9276842 27.3745789,17.6916316 L27.3862105,17.7135263 L27.2842632,18.1616842 C27.2835789,18.1664737 27.2774211,18.1692105 27.2774211,18.174 L27.2815263,18.1815263 C27.1652105,18.7234211 27.4895263,19.1729474 28.0252632,19.2249474 L28.0321053,19.2352105 L28.0786316,19.2352105 L28.08,19.2386316 C28.4364737,19.2386316 29.6571053,19.2372632 30.2263684,19.2352105 L30.6245789,19.2352105 C30.6519474,19.2352105 30.6553684,19.2263158 30.6642632,19.2208421 C31.2123158,19.1510526 31.7343684,18.7063158 31.8595789,18.174 L33.8964737,9.38121053 C33.9423158,9.17526316 33.9799474,8.93578947 34.0004737,8.66142105 C34.0278421,8.38226316 34.0572632,8.15442105 34.0490526,7.99021053 C34.0531579,6.74563158 33.5174211,5.82605263 32.4616842,5.23421053 Z M27.5264737,15.7108421 C27.1802632,15.9284211 26.8148947,16.1145263 26.4310526,16.2739474 C25.9165263,16.4812632 25.4259474,16.5900526 24.9757368,16.5900526 C24.2846842,16.5900526 23.7503158,16.4915263 23.3897368,16.2828421 C23.0298421,16.0837368 22.8396316,15.7382105 22.8457895,15.2428421 C22.8457895,14.6728947 22.9792105,14.2281579 23.2522105,13.8805789 C23.5272632,13.546 23.9343684,13.2764211 24.4406842,13.0759474 C24.9456316,12.9048947 25.5668947,12.7653158 26.2798421,12.6647368 C26.9161579,12.5846842 28.1744211,12.4396316 28.3352105,12.4375789 C28.4946316,12.4375789 28.6020526,12.3479474 28.5302105,12.7762632 C28.4994211,12.9623684 28.1361053,14.4539474 27.9691579,15.1306316 C27.9185263,15.3365789 27.6482632,15.6321579 27.5264737,15.7108421 Z" id="Shape" fill="#1C3761"></path>
                            <path d="M92.7303684,0.205263158 L90.2350526,0.205263158 C90.2336842,0.205263158 90.233,0.205263158 90.2316316,0.205263158 L90.2309474,0.205263158 C89.6589474,0.205263158 89.0780526,0.643842105 88.9172632,1.20147368 C88.9104211,1.22336842 88.9001579,1.24457895 88.8946842,1.26715789 C88.8946842,1.26715789 88.8358421,1.53536842 88.7338947,1.99994737 L85.3025789,17.5541053 C85.2238947,17.9016842 85.1718947,18.1274737 85.1554737,18.187 L85.1616316,18.1958947 C85.0439474,18.7384737 85.3696316,19.188 85.9060526,19.2379474 L85.9128947,19.2482105 L88.5033158,19.2482105 C89.0705263,19.2482105 89.648,18.8144211 89.8142632,18.2636316 C89.8224737,18.2376316 89.8341053,18.2136842 89.8409474,18.187 L93.5808421,1.26647368 L93.5753684,1.26510526 C93.6998947,0.685578947 93.3276842,0.205263158 92.7303684,0.205263158 Z" id="Shape" fill="#35679A"></path>
                            <g transform="translate(95.105263, 0.000000)" fill="#35679A" id="Shape">
                                <path d="M2.35026316,3.65026316 C2.26542105,3.67284211 2.17236842,3.69131579 2.07110526,3.70636842 C1.96984211,3.72073684 1.87884211,3.72826316 1.80015789,3.72826316 C1.52168421,3.72826316 1.31094737,3.65368421 1.16726316,3.50452632 C1.02289474,3.35536842 0.951052632,3.11657895 0.951052632,2.78747368 L0.951052632,1.34378947 L0.642473684,1.34378947 L0.642473684,0.959263158 L0.951052632,0.959263158 L0.951052632,0.179263158 L1.40742105,0.179263158 L1.40742105,0.959263158 L2.35026316,0.959263158 L2.35026316,1.34378947 L1.40742105,1.34378947 L1.40742105,2.58084211 C1.40742105,2.72315789 1.41152632,2.83468421 1.41768421,2.91473684 C1.42521053,2.99478947 1.44710526,3.07005263 1.48610526,3.13915789 C1.52168421,3.20415789 1.57094737,3.25136842 1.63321053,3.28147368 C1.69615789,3.31157895 1.79126316,3.32663158 1.91921053,3.32663158 C1.99310526,3.32663158 2.07178947,3.31568421 2.15321053,3.29378947 C2.23326316,3.27189474 2.29210526,3.25342105 2.32768421,3.23905263 L2.35094737,3.23905263 L2.35094737,3.65026316 L2.35026316,3.65026316 Z"></path>
                                <path d="M6.86536842,3.67421053 L6.40831579,3.67421053 L6.40831579,2.12857895 C6.40831579,2.01226316 6.40284211,1.89936842 6.39257895,1.79057895 C6.38231579,1.68178947 6.35905263,1.59557895 6.32552632,1.53057895 C6.28721053,1.46078947 6.23452632,1.40810526 6.16542105,1.37321053 C6.09494737,1.33763158 5.99505263,1.31984211 5.86436842,1.31984211 C5.73573684,1.31984211 5.60847368,1.35131579 5.47984211,1.41563158 C5.35121053,1.47994737 5.22463158,1.56068421 5.096,1.65989474 C5.10078947,1.69752632 5.10421053,1.74063158 5.10831579,1.78989474 C5.11173684,1.83915789 5.11310526,1.88842105 5.11310526,1.937 L5.11310526,3.67489474 L4.65673684,3.67489474 L4.65673684,2.12857895 C4.65673684,2.00884211 4.65057895,1.89526316 4.641,1.78715789 C4.63005263,1.67905263 4.60747368,1.59352632 4.57394737,1.52852632 C4.53563158,1.45873684 4.48226316,1.40673684 4.41247368,1.37184211 C4.34268421,1.33694737 4.24278947,1.31984211 4.11210526,1.31984211 C3.98689474,1.31984211 3.86305263,1.35063158 3.73647368,1.41221053 C3.61057895,1.47378947 3.48673684,1.55247368 3.36084211,1.64826316 L3.36084211,3.67421053 L2.90378947,3.67421053 L2.90378947,0.959263158 L3.36084211,0.959263158 L3.36084211,1.26031579 C3.50384211,1.14194737 3.64615789,1.04957895 3.78778947,0.983210526 C3.93010526,0.917526316 4.07994737,0.883315789 4.24073684,0.883315789 C4.42547368,0.883315789 4.58215789,0.922315789 4.71147368,0.999631579 C4.84010526,1.07831579 4.93589474,1.18505263 4.99952632,1.32326316 C5.18357895,1.16726316 5.35257895,1.05505263 5.50515789,0.986631579 C5.65705263,0.917526316 5.81989474,0.883315789 5.993,0.883315789 C6.292,0.883315789 6.51163158,0.973631579 6.65326316,1.15426316 C6.79489474,1.33557895 6.86673684,1.58736842 6.86673684,1.91168421 L6.86673684,3.67421053 L6.86536842,3.67421053 Z"></path>
                            </g>
                        </g>
                    </g>
                </g>
            </g>
        </g>
    </g>
</svg>