<?xml version="1.0" encoding="UTF-8"?>
<svg viewBox="0 0 26 52" xmlns="http://www.w3.org/2000/svg">
<path d="M24.965 50.698a.403.403 0 0 0-.412-.413h-7.184l-.235-1.24h1.825v-2.95h-2.355c-1.06-6.493-1.708-14.402-1.826-22.666h1.472a1.12 1.12 0 0 0 1.12-1.121v-.65c0-.354-.177-.649-.413-.826.236-.295.412-.708.412-1.24 0-1.12-.706-2.36-1.766-3.187V14.28H14.13V6.725h-.707V1.413A.403.403 0 0 0 13.012 1a.403.403 0 0 0-.412.413v5.312h-.825v7.555h-1.472v2.125c-1.06.827-1.766 2.125-1.766 3.188 0 .53.118.944.412 1.24a1.128 1.128 0 0 0-.412.825v.65a1.12 1.12 0 0 0 1.119 1.121h1.472c-.118 8.264-.766 16.173-1.826 22.666H6.947v2.95h1.825c-.058.414-.176.827-.235 1.24H1.412a.403.403 0 0 0-.412.413c0 .237.177.414.412.414h23.14c.177.059.413-.177.413-.414zM12.659 7.611h.588v6.67h-.588V7.61zm-1.472 7.496h3.533v1.003h-3.533v-1.003zm-.295 1.889h4.122c.883.708 1.472 1.711 1.472 2.597 0 .295-.059.649-.471.944H9.89c-.412-.295-.47-.65-.47-.944 0-.886.588-1.89 1.471-2.597zm-1.236 5.607c-.118 0-.236-.118-.236-.236v-.65c0-.118.118-.236.236-.236h6.594c.118 0 .236.118.236.237v.649c0 .118-.118.236-.236.236H9.656zm2.355.826h1.884c.118 8.205.766 16.114 1.826 22.666h-5.535c1.06-6.493 1.707-14.402 1.825-22.666zM7.83 48.22v-1.24h10.304v1.24H7.83zm1.59 1.948a9.61 9.61 0 0 1 .235-1.121h6.594c.06.354.118.708.236 1.121H9.42z" fill="#46565d" stroke="#46565d" stroke-width=".5"/>
</svg>
