<?xml version="1.0" encoding="UTF-8"?>
<svg fill="#172538" viewBox="0 0 78 60" xmlns="http://www.w3.org/2000/svg">
<path d="M.257 33.433l23.615 26.278 4.556-24.064L45.24 54.802l5.326-38.727-9.562 3.208-2.117 13.797L22.62 16.075l-3.882 24.353L.257 19.958zm41.871-17.23l1.476-9.593L66 .16l-2.182 10.813c9.53-1.155 12.706 5.872 13.284 11.423.545 5.454-1.252 11.711-8.471 14.599-7.86 3.112-14.76-1.123-18-7.155l7.829-2.984s2.823 4.3 7.604 2.342c2.984-1.22 4.396-4.877 2.952-7.444s-4.909-3.305-8.631-1.797c-4.396 1.797-6.578 2.567-6.578 2.567l1.444-11.134-13.123 4.813z"/>
</svg>
