<?xml version="1.0" encoding="UTF-8"?>
<svg fill="#201f1f" viewBox="0 0 129 28" xmlns="http://www.w3.org/2000/svg">
<path d="M45.656 16.332l-.762 2.159h-.064c-.127-.487-.36-1.228-.741-2.118L40.002 6.104H36v16.369h2.647v-10.1l-.021-2.245-.085-1.037h.064a9.85 9.85 0 0 0 .381 1.397l4.912 11.944h1.864l4.871-12.05c.106-.275.212-.826.318-1.292h.064l-.127 2.943v10.376h2.816V6.061H49.85l-4.192 10.271zm10.714-5.654h2.753V22.41H56.37V10.678zm1.398-4.955a1.65 1.65 0 0 0-1.165.466 1.5 1.5 0 0 0-.487 1.143 1.49 1.49 0 0 0 .487 1.122c.318.296.699.445 1.165.445a1.69 1.69 0 0 0 1.165-.445 1.49 1.49 0 0 0 .487-1.122c0-.445-.169-.826-.487-1.143-.276-.296-.678-.466-1.165-.466zm11.117 4.849a7.6 7.6 0 0 0-1.546-.17c-1.249 0-2.393.275-3.346.826s-1.716 1.313-2.202 2.266c-.509.974-.762 2.096-.762 3.389 0 1.122.254 2.118.741 3.028.487.89 1.164 1.609 2.075 2.096.868.487 1.885.742 3.027.742 1.313 0 2.436-.275 3.325-.784l.022-.02v-2.542l-.106.085c-.403.296-.868.551-1.335.698-.487.17-.931.254-1.312.254-1.101 0-1.97-.318-2.584-1.016-.636-.677-.953-1.609-.953-2.774 0-1.207.318-2.16.974-2.859s1.525-1.059 2.584-1.059c.89 0 1.8.296 2.627.889l.106.085v-2.689l-.022-.021c-.359-.148-.762-.317-1.313-.423zm9.085-.085a2.91 2.91 0 0 0-1.864.656c-.467.381-.784.932-1.06 1.588h-.02v-2.054h-2.753v11.731h2.753v-5.993c0-1.016.212-1.863.677-2.477.466-.635 1.059-.953 1.778-.953.255 0 .508.064.826.106.298.085.509.169.656.275l.106.085V10.7l-.063-.021c-.19-.128-.571-.191-1.037-.191zm7.496-.063c-1.927 0-3.473.572-4.554 1.694-1.1 1.122-1.631 2.668-1.631 4.617 0 1.821.551 3.304 1.61 4.384 1.058 1.059 2.498 1.608 4.298 1.608 1.884 0 3.388-.571 4.468-1.715 1.102-1.143 1.632-2.668 1.632-4.553 0-1.864-.509-3.346-1.547-4.425-.995-1.08-2.456-1.609-4.276-1.609zm2.202 9.021c-.507.656-1.313.975-2.308.975s-1.799-.318-2.372-1.016c-.571-.657-.846-1.609-.846-2.817 0-1.249.296-2.202.846-2.88.573-.677 1.355-1.016 2.351-1.016.974 0 1.736.318 2.287.974s.848 1.609.848 2.859c-.043 1.271-.275 2.267-.805 2.922zm9.763-3.897c-.868-.359-1.419-.635-1.673-.868-.212-.212-.318-.508-.318-.889 0-.318.127-.635.444-.848s.678-.318 1.207-.318c.466 0 .953.085 1.419.212s.889.318 1.229.572l.105.085V10.91l-.064-.021a7.65 7.65 0 0 0-1.25-.36 8.48 8.48 0 0 0-1.355-.127c-1.313 0-2.392.318-3.24 1.016-.847.656-1.249 1.546-1.249 2.584 0 .551.085 1.038.275 1.44a3.2 3.2 0 0 0 .846 1.101c.381.297.932.635 1.694.953l1.419.656c.298.17.487.361.636.509.106.17.169.382.169.657 0 .783-.593 1.164-1.8 1.164-.466 0-.953-.085-1.524-.275s-1.1-.466-1.546-.783l-.105-.085v2.689l.064.022c.402.19.888.318 1.482.466.593.105 1.123.191 1.588.191 1.419 0 2.584-.318 3.409-1.018.848-.677 1.293-1.545 1.293-2.668 0-.783-.212-1.483-.678-2.012a8.59 8.59 0 0 0-2.477-1.462zm10.417-5.124c-1.925 0-3.472.572-4.552 1.694s-1.631 2.668-1.631 4.617c0 1.821.551 3.304 1.609 4.384 1.059 1.059 2.499 1.608 4.299 1.608 1.885 0 3.388-.571 4.467-1.715 1.102-1.143 1.631-2.668 1.631-4.553 0-1.864-.507-3.346-1.545-4.425-.995-1.08-2.456-1.609-4.279-1.609zm2.181 9.021c-.508.656-1.313.975-2.307.975-1.018 0-1.8-.318-2.373-1.016-.571-.657-.846-1.609-.846-2.817 0-1.249.296-2.202.846-2.88.573-.677 1.355-1.016 2.351-1.016.953 0 1.736.318 2.287.974s.847 1.609.847 2.859c.001 1.271-.274 2.267-.804 2.922zm18.361-6.501v-2.265h-2.774V7.206l-.085.021-2.625.783-.064.021v2.647h-4.151V9.196c0-.677.169-1.207.466-1.546s.741-.508 1.292-.508c.382 0 .783.085 1.228.275l.105.064V5.088l-.063-.021c-.382-.127-.889-.212-1.546-.212-.826 0-1.547.191-2.203.509a3.67 3.67 0 0 0-1.503 1.503c-.36.635-.55 1.355-.55 2.181v1.631h-1.927v2.245h1.927v9.487h2.774v-9.465h4.151v6.035c0 2.478 1.164 3.728 3.493 3.728.382 0 .783-.064 1.165-.128.403-.085.698-.19.868-.275l.022-.02V20.02l-.106.085c-.169.106-.318.191-.572.255a1.93 1.93 0 0 1-.55.084c-.551 0-.932-.126-1.207-.444-.255-.297-.382-.783-.382-1.504v-5.548h2.818v-.002zM.508.599h12.981V13.58H.508zm14.336 0h12.981V13.58H14.844zM.508 14.935h12.981v12.981H.508zm14.336 0h12.981v12.981H14.844z"/>
</svg>
