<?xml version="1.0" encoding="UTF-8"?>
<svg fill="#201f1f" viewBox="0 0 124 23" xmlns="http://www.w3.org/2000/svg">
<path d="M3.764 17.833H.431V.932h3.333v5.305c.353-.24.759-.417 1.218-.528a5.98 5.98 0 0 1 1.556-.193 7.7 7.7 0 0 1 1.663.17 3.26 3.26 0 0 1 1.36.577c.389.289.694.682.916 1.178.24.498.36 1.14.36 1.925v8.416H7.505V9.366c0-.418-.064-.764-.194-1.037-.129-.289-.296-.514-.499-.674a1.64 1.64 0 0 0-.721-.361c-.259-.063-.528-.096-.808-.096-.352 0-.657.049-.915.145s-.462.209-.611.338l.008 10.152zm16.901-5.79h-1.528a3.1 3.1 0 0 0-.748.096 1.65 1.65 0 0 0-.667.361 1.93 1.93 0 0 0-.472.673c-.13.273-.194.618-.194 1.037s.064.772.194 1.064c.13.273.287.498.472.674a1.83 1.83 0 0 0 .667.337 3.11 3.11 0 0 0 .748.096c.352 0 .657-.049.915-.145s.462-.209.611-.337l.002-3.857zm-2.638 6.027c-.593 0-1.147-.057-1.663-.17-.516-.096-.969-.289-1.36-.578s-.703-.683-.943-1.178c-.222-.498-.333-1.14-.333-1.925s.111-1.428.333-1.926a3.02 3.02 0 0 1 .969-1.177c.407-.289.888-.483 1.441-.579.557-.113 1.168-.17 1.832-.17a9.7 9.7 0 0 1 1.219.074l1.138.169v-.964c0-.966-.258-1.608-.774-1.926s-1.231-.483-2.142-.483H14.97V6.031c.426-.128.945-.24 1.556-.336a11.78 11.78 0 0 1 1.778-.146c.943 0 1.766.057 2.471.169s1.297.323 1.778.628c.481.288.842.707 1.084 1.253.241.528.361 1.212.361 2.047v8.214h-2.364l-.418-.721h-.139c-.296.241-.685.465-1.165.674-.481.192-1.109.289-1.886.289v-.032h.001zm16.644-.708c-.705.481-1.63.722-2.774.722-.593 0-1.147-.057-1.663-.17-.516-.096-.969-.289-1.36-.578s-.703-.682-.942-1.178c-.222-.498-.334-1.139-.334-1.925V5.815h3.333v8.417c0 .418.065.772.195 1.064.13.273.296.498.499.674.204.16.435.272.694.336.278.063.556.096.834.096.352 0 .658-.048.915-.145s.463-.209.611-.338V5.82h3.333v11.11c0 2.167-.492 3.71-1.475 4.625-.983.935-2.482 1.401-4.498 1.401a13.75 13.75 0 0 1-2.026-.145c-.629-.096-1.156-.208-1.582-.337V21.27h3.057c1.037 0 1.824-.282 2.363-.842.557-.562.834-1.567.834-3.016l-.015-.05zm17.305.471h-3.333V9.417c0-.418-.064-.764-.195-1.038-.111-.289-.267-.513-.471-.672a1.44 1.44 0 0 0-.639-.361 2.27 2.27 0 0 0-.64-.096c-.352 0-.657.048-.915.144s-.462.209-.611.338v10.099h-3.333V5.777h2.363l.417.721h.139c.295-.242.694-.459 1.192-.651.498-.209 1.165-.314 1.999-.314.705 0 1.298.089 1.779.266.498.16.925.394 1.278.7.425-.305.928-.538 1.502-.7.574-.177 1.276-.266 2.107-.266a7.16 7.16 0 0 1 1.582.17 3.25 3.25 0 0 1 1.334.578c.389.289.694.683.916 1.178s.333 1.14.333 1.925v8.417h-3.332V9.385c0-.417-.065-.763-.194-1.037a1.73 1.73 0 0 0-.5-.673 1.45 1.45 0 0 0-.666-.362 2.83 2.83 0 0 0-.72-.096 3.41 3.41 0 0 0-.943.12c-.278.064-.519.145-.721.242.074.177.139.434.194.775a6.13 6.13 0 0 1 .084 1.036l-.005 8.444zm16.162-5.79h-1.529a3.09 3.09 0 0 0-.748.096c-.241.063-.463.184-.667.361a1.93 1.93 0 0 0-.472.673c-.13.273-.195.618-.195 1.037s.065.772.195 1.064c.129.273.288.498.472.674a1.83 1.83 0 0 0 .667.337 3.11 3.11 0 0 0 .748.096c.352 0 .658-.049.916-.145s.462-.209.61-.337l.003-3.857zm-2.64 6.027c-.594 0-1.148-.057-1.664-.17a3.24 3.24 0 0 1-1.359-.578c-.39-.289-.703-.683-.943-1.178-.222-.498-.334-1.14-.334-1.925s.112-1.428.334-1.926a3.02 3.02 0 0 1 .969-1.177c.407-.289.888-.483 1.442-.579.557-.113 1.167-.17 1.831-.17a9.77 9.77 0 0 1 1.218.074l1.138.169v-.964c0-.966-.258-1.608-.774-1.926s-1.23-.48-2.141-.483H62.44V6.031c.426-.128.945-.24 1.556-.336a11.78 11.78 0 0 1 1.778-.146c.942 0 1.766.057 2.471.169s1.297.323 1.777.628c.481.288.842.707 1.084 1.253.241.528.361 1.212.361 2.047v8.214h-2.363l-.418-.721h-.139c-.296.241-.685.465-1.165.674-.481.192-1.109.289-1.885.289v-.032zM83.624 5.781v2.045h-3.056c-.352 0-.658.049-.917.146s-.461.208-.61.337v9.494h-3.333V5.75h2.363l.417.963h.138c.296-.241.694-.459 1.193-.651.498-.209 1.165-.314 1.999-.314l1.806.033zm5.386 12.052h-3.333V.932h3.333v10.032l3.334-5.183h3.61l-3.751 5.661 4.027 6.39h-3.608l-3.611-5.905v5.905zm18.855-5.184h-7.205c0 1.382.279 2.355.835 2.915.574.547 1.454.822 2.639.822h3.057v1.206c-.425.128-.963.24-1.61.336a12.99 12.99 0 0 1-2 .146c-1.072 0-2.009-.113-2.807-.338-.776-.224-1.425-.585-1.946-1.083-.498-.499-.878-1.141-1.138-1.926-.241-.803-.361-1.776-.361-2.916s.121-2.105.361-2.894c.241-.804.584-1.456 1.031-1.953a3.88 3.88 0 0 1 1.636-1.084c.663-.225 1.413-.338 2.248-.338s1.577.113 2.223.338a3.83 3.83 0 0 1 1.663 1.084c.445.497.788 1.147 1.031 1.953.24.785.36 1.751.36 2.894l-.017.839zm-3.334-1.69c0-.786-.055-1.428-.167-1.925-.092-.498-.221-.891-.388-1.178s-.37-.482-.61-.578a1.8 1.8 0 0 0-.774-.168 1.8 1.8 0 0 0-.774.168c-.24.097-.445.289-.61.578s-.306.682-.417 1.178c-.093.498-.14 1.139-.14 1.925h3.88zM114.598 7.8v6.148c0 .481.056.881.167 1.205.111.305.25.546.417.721.185.177.38.306.584.386.221.065.435.096.639.096h2.499v1.206a5.16 5.16 0 0 1-.667.193l-.862.145a8.65 8.65 0 0 1-.915.096l-.889.048c-.593 0-1.148-.056-1.664-.169s-.969-.313-1.36-.602c-.389-.305-.703-.723-.942-1.252-.222-.529-.333-1.221-.333-2.074v-6.15h-1.528V5.986h1.528V3.092h3.333v2.895h3.751v1.327c-.425.128-.962.241-1.609.337-.629.096-1.295.145-2.001.145l-.147.005zm6.733-.067h-.666V5.577c.105-.028.224-.051.357-.073s.307-.031.521-.032c.367 0 .64.058.815.174.182.113.273.3.273.563 0 .112-.017.206-.05.284a.54.54 0 0 1-.109.184.52.52 0 0 1-.145.116l-.152.074.515.868h-.694l-.425-.761h-.243v.759h.001zm.213-1.132c.121 0 .222-.027.303-.084s.121-.163.121-.31c0-.134-.041-.227-.121-.285s-.182-.084-.303-.084h-.212V6.6l.212.001zm1.723.027a1.75 1.75 0 0 0-.121-.668 1.34 1.34 0 0 0-.34-.493c-.146-.138-.322-.241-.527-.311s-.428-.105-.68-.105a2.12 2.12 0 0 0-.688.105 1.43 1.43 0 0 0-.522.311c-.145.132-.258.297-.339.493a1.74 1.74 0 0 0-.121.668 1.75 1.75 0 0 0 .121.667c.08.196.194.363.339.499a1.47 1.47 0 0 0 .522.306c.206.069.435.105.688.105a2.09 2.09 0 0 0 .68-.105 1.46 1.46 0 0 0 .527-.306 1.43 1.43 0 0 0 .34-.499c.081-.196.121-.419.121-.667zm.606 0c0 .291-.054.555-.163.795a1.78 1.78 0 0 1-.459.615 2.17 2.17 0 0 1-.722.395 2.85 2.85 0 0 1-.929.142c-.34 0-.652-.048-.935-.142a2.07 2.07 0 0 1-.714-.395 1.79 1.79 0 0 1-.461-.615c-.109-.238-.163-.503-.163-.795s.054-.55.163-.789a1.7 1.7 0 0 1 .461-.614 2.13 2.13 0 0 1 .714-.401c.283-.093.595-.142.935-.142s.649.048.929.142.525.228.722.401c.197.167.351.372.459.614a1.88 1.88 0 0 1 .163.789z"/>
</svg>
