<?xml version="1.0" encoding="UTF-8"?>
<svg viewBox="0 0 143 32" xmlns="http://www.w3.org/2000/svg" xmlns:xlink="http://www.w3.org/1999/xlink">
<g fill-rule="evenodd">
<path d="m87.41 0h4.38v26.947h-4.38z" fill="#222"/>
<path d="M41.178.084l-9.6 26.779h-5.474L35.789.084h5.389z" fill="#d94f40"/>
<g fill="#222">
<use xlink:href="#h"/>
<use xlink:href="#g"/>
<use xlink:href="#f"/>
<use xlink:href="#e"/>
</g>
<use fill="#d94f40" xlink:href="#d"/>
<g fill="#222">
<use xlink:href="#c"/>
<use xlink:href="#b"/>
</g>
<use fill="#d94f40" xlink:href="#a"/>
<g fill="#201f1f">
<path d="M87.41 0h4.38v26.947h-4.38zM41.178.084l-9.6 26.779h-5.474L35.789.084h5.389z"/>
<use xlink:href="#h"/>
<use xlink:href="#g"/>
<use xlink:href="#f"/>
<use xlink:href="#e"/>
<use xlink:href="#d"/>
<use xlink:href="#c"/>
<use xlink:href="#b"/>
<use xlink:href="#a"/>
</g>
</g>
<defs>
<path id="h" d="M110.4 13.895h-4.547c.314-3.027-7.229-3.146-7.074-.253.105 1.938 3.64 1.876 5.474 2.189 3.388.579 6.13 1.713 6.232 5.221.253 8.613-16.017 8.158-16.589.758 1.389.205 2.954-.283 4.126 0 .554.133 1.311 1.106 1.936 1.347 1.843.711 6.803.797 5.727-2.274-.499-1.421-3.325-1.356-5.222-1.684-2.975-.514-6.143-1.702-6.316-5.137-.086-1.713.699-3.267 1.432-4.042 1.175-1.243 3.191-2.258 6.316-2.274 4.877-.025 7.868 1.761 8.504 6.147z"/>
<path id="g" d="M65.544 19.368H51.313c-.125 3.9 7.042 5.706 9.263 2.442h4.716c-1.489 5.767-10.648 7.174-15.242 3.453-2.323-1.88-3.703-4.952-3.368-8.842.425-4.947 4.508-9.059 10.695-8.589 5.661.429 8.921 5.171 8.168 11.537zm-10.189-7.663c-2.259.291-3.764 2.099-4.126 4.295l9.853-.084c-.42-2.837-2.408-4.638-5.726-4.211z"/>
<path id="f" d="M85.811 19.368H71.579c-.125 3.9 7.041 5.706 9.263 2.442h4.716c-1.489 5.767-10.648 7.174-15.242 3.453-2.323-1.88-3.704-4.952-3.368-8.842.426-4.947 4.507-9.059 10.695-8.589 5.661.429 8.92 5.171 8.168 11.537zm-10.19-7.663c-2.259.291-3.763 2.099-4.125 4.295l9.852-.084c-.421-2.837-2.408-4.638-5.727-4.211z"/>
<path id="e" d="M.084 8.253c1.432-.196 3.228-.029 4.8-.084 1.266 3.759 2.691 7.357 3.958 11.116 1.592-3.491 2.782-7.379 4.126-11.116h3.789L20.8 19.284c1.534-3.547 2.735-7.427 4.126-11.116h4.716l-6.821 18.779h-3.958c-1.421-3.406-2.6-7.056-3.874-10.611-.589.738-.765 1.707-1.095 2.611l-2.947 7.916c-1.126.137-2.833.142-3.958 0C4.477 20.869 2.472 14.371.084 8.253z"/>
<path id="d" d="M46.821 8.168c-2.644 8.078-5.682 15.765-8.421 23.747-1.624.165-3.994-.05-5.389.084 2.653-7.786 5.659-15.875 8.589-23.832h5.221z"/>
<path id="c" d="M128.589 15.579c-.056.477-.406.659-.505 1.095-1.175-.926-2.299-1.739-4.211-1.768-3.891-.058-5.992 3.233-5.641 6.484.473 4.409 6.808 6.303 9.852 2.947.064.44.376.634.505 1.01-.93 1.052-2.066 1.678-3.453 1.938-4.493.837-8.197-2.424-8.337-6.484-.205-5.999 7.339-9.494 11.789-5.221z"/>
<path id="b" d="M140.799 15.242c.219-.286-.051-1.061.169-1.347.409.039.985-.088 1.263.084V27.2c-.302.175-.911.044-1.349.085v-1.348c-1.689.929-3.571 1.565-5.558 1.432-3.562-.238-6.775-3.141-6.4-7.495.472-5.465 7.161-8.131 11.875-4.632zm.084 1.6c-1.141-1.203-2.824-2.012-5.053-1.937-3.375.114-5.533 2.582-5.558 5.558-.045 5.506 7.016 7.368 10.611 3.875v-7.496z"/>
<path id="a" d="M112.926 22.989c1.719-.423 2.915.683 2.947 2.021.077 3.077-4.509 2.755-4.547.084-.015-1.011.618-1.736 1.6-2.105z"/>
</defs>
</svg>
