<?xml version="1.0" encoding="UTF-8"?>
<svg viewBox="0 0 104 40" xmlns="http://www.w3.org/2000/svg">
<path d="M35.149 11.618V.614h3.082v4.087h3.791V.614h3.06v11.004h-3.06v-4.26h-3.791v4.26h-3.082zM95.911.06h3.06v11.558h-2.74l-.32-1.489c-.298 1.146-1.256 1.719-2.626 1.719-1.987 0-3.471-1.569-3.471-4.375 0-2.905 1.369-4.681 3.791-4.681 1.164 0 2.009.477 2.306 1.317l.001-4.05zm0 6.629c0-1.107-.503-1.7-1.347-1.7-.959 0-1.713.649-1.713 2.369 0 1.413.639 2.16 1.598 2.16.845 0 1.461-.573 1.461-1.74V6.689h.001zm-7.261-.304c-.298-.134-.526-.231-1.051-.231-.616 0-1.576.288-1.576 1.815v3.649h-2.946V2.982h2.512l.343 2.14c.206-1.453 1.461-2.14 2.923-2.14l-.205 3.402zm-7.991 2.387c0 .423.115.651.41.651.205 0 .411-.115.525-.171v2.119c-.41.306-.731.42-1.461.42-1.164 0-1.804-.514-2.101-1.356-.525.9-1.278 1.395-2.534 1.395-1.575 0-2.533-.936-2.533-2.406 0-1.854 1.256-2.79 3.905-2.79h.845v-.591c0-.555-.115-.936-.755-.936-.502 0-.731.306-.731 1.012l-2.946-.438c.229-1.776 1.576-2.884 3.791-2.884 2.535 0 3.586 1.068 3.586 2.959v3.018zm-2.946-.61h-.32c-1.165 0-1.484.343-1.484.897 0 .42.205.726.753.726.503 0 1.051-.267 1.051-1.071v-.553zM63.28 2.983h3.152l1.073 3.478.525 2.122h.115s.091-.861.504-2.122l1.163-3.478h2.946l-3.151 8.635h-3.265L63.28 2.983zm-1.05 3.402a2.13 2.13 0 0 0-1.049-.231c-.64 0-1.576.288-1.576 1.815v3.649h-2.945V2.982h2.511l.319 2.14c.32-1.453 1.485-2.14 2.946-2.14l-.205 3.402zm-8.014 2.387c0 .423.115.651.434.651.205 0 .411-.115.525-.171v2.119c-.411.306-.731.42-1.461.42-1.164 0-1.804-.514-2.101-1.356-.548.9-1.278 1.395-2.534 1.395-1.576 0-2.535-.936-2.535-2.406 0-1.854 1.256-2.79 3.905-2.79h.845v-.591c0-.555-.115-.936-.754-.936-.411 0-.731.306-.731 1.012l-2.831-.438c.115-1.776 1.462-2.884 3.677-2.884 2.511 0 3.562 1.068 3.562 2.959v3.018zm-2.923-.61h-.343c-1.142 0-1.461.343-1.461.897 0 .42.319.726.753.726.503 0 1.05-.267 1.05-1.071v-.553h.001zm33.886 21.478l.639 3.014.525 2.717.525-2.671.731-3.059h2.946l-2.421 8.653h-3.356l-.525-2.534-.411-2.762h-.137s-.091 1.484-.41 2.762l-.525 2.534h-3.38l-2.307-8.653h3.06l.64 3.059.616 2.671.525-2.717.525-3.014h2.74zm-11.257 5.525l2.534.776c-.547 1.849-2.1 2.557-3.791 2.557-2.534 0-4.43-1.62-4.43-4.429 0-2.924 1.667-4.635 4.315-4.635 2.627 0 3.905 1.645 3.905 4.042v1.096H71.18c0 1.073.525 1.644 1.485 1.644.616 0 1.05-.297 1.256-1.05zm-.32-2.124c0-.754-.206-1.392-1.051-1.392-.753 0-1.256.571-1.369 1.392h2.42zm-8.22-7.124c.845 0 1.689.593 1.689 1.576s-.845 1.598-1.689 1.598c-.936 0-1.689-.616-1.689-1.598s.753-1.576 1.689-1.576zm1.485 12.376H63.92v-8.631h2.946v8.631zm-13.358-8.653h3.152l1.049 3.493.526 2.1s.206-.867.638-2.1l1.142-3.493h2.855l-3.06 8.653h-3.265l-3.038-8.653zm-2.968 5.525l2.534.776c-.525 1.849-2.124 2.557-3.791 2.557-2.535 0-4.43-1.62-4.43-4.429 0-2.924 1.69-4.635 4.339-4.635 2.626 0 3.882 1.645 3.882 4.042v1.096h-5.275c0 1.073.548 1.644 1.485 1.644.616 0 1.05-.297 1.256-1.05zm-.297-2.124c0-.754-.343-1.392-1.05-1.392-.753 0-1.278.571-1.393 1.392h2.443zm-8.905 5.252c-.342-.319-.502-.731-.616-1.256l-.343-1.347c-.205-.8-.502-.936-1.21-.936h-.959v3.539h-3.06V27.264h4.727c2.466 0 4.179.982 4.179 3.471 0 1.736-1.142 2.58-2.352 2.808 1.005.206 1.53.64 1.781 1.599l.525 1.895c.137.479.275.845.662 1.256h-3.334 0zm-3.129-6.005h1.165c1.073 0 1.529-.434 1.529-1.209 0-.8-.456-1.233-1.529-1.233h-1.165v2.442zm5.914-10.321c0 1.781-1.233 2.991-3.927 2.991h-5.046V13.95h4.91c2.351 0 3.584 1.069 3.584 2.866 0 1.292-.754 2.205-1.918 2.48 1.552.318 2.397 1.369 2.397 2.671zm-5.936-3.425h1.187c.799 0 1.278-.32 1.278-1.05 0-.772-.479-1.057-1.278-1.057h-1.187v2.107zm0 3.882h1.598c.754 0 1.21-.344 1.21-.959 0-.64-.457-.982-1.21-.982h-1.598v1.941zm60.464-.457c.115.732.731 1.096 1.37 1.096.525 0 .845-.182.845-.547 0-.388-.319-.548-.845-.685l-1.142-.229c-1.598-.343-2.42-1.164-2.42-2.58 0-2.092 1.757-2.914 3.676-2.914 2.101 0 3.357.861 3.676 2.457l-2.74.434c-.091-.503-.41-.776-1.05-.776-.411 0-.731.229-.731.548 0 .343.319.503.731.594l1.164.183c1.895.32 2.74 1.347 2.74 2.809 0 2.032-1.803 2.831-3.904 2.831-2.009 0-3.265-.731-3.79-2.26l2.42-.96zm-8.745 0c.228.732.754 1.096 1.392 1.096.503 0 .936-.182.936-.547 0-.388-.32-.548-.936-.685l-1.164-.229c-1.576-.343-2.442-1.164-2.442-2.58 0-2.092 1.804-2.914 3.813-2.914 1.987 0 3.265.861 3.562 2.457l-2.718.434c-.115-.503-.435-.776-.959-.776-.435 0-.731.229-.731.548 0 .343.205.503.638.594l1.142.183c2.009.32 2.74 1.347 2.74 2.809 0 2.032-1.781 2.831-3.882 2.831-2.009 0-3.264-.731-3.813-2.26l2.421-.96zm-5.983-.136l2.512.776c-.503 1.849-1.986 2.58-3.791 2.58-2.512 0-4.407-1.645-4.407-4.453 0-2.9 1.689-4.626 4.407-4.626 2.534 0 3.905 1.635 3.905 4.033 0 .32 0 .708-.115 1.096h-5.252c.091 1.072.638 1.644 1.461 1.644.64-.001 1.05-.275 1.278-1.051zm-.319-2.124c0-.754-.205-1.393-1.074-1.393-.707 0-1.141.594-1.256 1.393h2.329zm-11.805-1.735c.435-1.27 1.37-1.864 2.762-1.864 1.256 0 2.511.784 2.511 2.777v6.074h-3.059v-4.933c0-.867-.206-1.393-1.05-1.393-.616 0-1.165.388-1.165 1.689v4.635h-3.037v-8.64h2.74l.296 1.653zm-6.302-5.398c.936 0 1.689.633 1.689 1.587 0 .994-.754 1.605-1.689 1.605-.845 0-1.576-.612-1.576-1.605 0-.955.731-1.587 1.576-1.587zm1.576 12.385h-3.037v-8.64h3.037v8.64zm-9.568-2.991c.205.732.731 1.096 1.369 1.096.503 0 .936-.182.936-.547 0-.388-.32-.548-.936-.685l-1.165-.229c-1.598-.343-2.442-1.164-2.442-2.58 0-2.092 1.804-2.914 3.813-2.914 1.987 0 3.265.861 3.563 2.457l-2.718.434c-.115-.503-.435-.776-.96-.776-.409 0-.73.229-.73.548 0 .343.206.503.638.594l1.142.183c1.895.32 2.74 1.347 2.74 2.809 0 2.032-1.781 2.831-3.882 2.831-2.009 0-3.264-.731-3.813-2.26l2.444-.96zm-6.758 1.393c-.205 1.119-1.142 1.827-2.603 1.827-1.598 0-2.672-.982-2.672-3.014v-5.855h3.083v5.215c0 .867.205 1.37.936 1.37.753 0 1.256-.708 1.256-2.101v-4.485h2.969v8.641h-2.649l-.32-1.598z"/>
<path d="M21.22 12.362c.205.306.342.651.388 1.013.183.994-.32 2.043-2.147 2.14 0 1.509-.411 2.111-2.306 2.134.16 1.598-.662 2.124-1.559 2.124s-1.74-.525-1.587-2.124c-1.891 0-2.275-.625-2.293-2.134-1.833-.115-2.311-1.147-2.158-2.14 0-.363.19-.707.4-1.013H.177v.498c0 18.355 15.21 26.278 15.246 26.278l.21.137.249-.137s15.203-7.924 15.226-26.278v-.498H21.22zM8.545 29.205c.363-.183.651-.753.707-1.142.115-.479.19-.685.459-.707.267 0 .363.228.457.707.096.389.344.959.707 1.142.228.115.955.136.802.594-.094.183-.228.572-.42.388-.21-.16-.552-.639-.687-.662-.135 0-.115.159 0 .25.096.115.306.411.438.572.173.182.213.525-.115.684-.285.137-.591 0-.591-.205 0-.228-.115-.914-.249-.914-.096 0-.096.182-.096.365 0 .41.21.731.192.914 0 .205-.096.41-.42.41-.363 0-.402-.205-.441-.41 0-.183.249-.504.21-.914 0-.183 0-.365-.115-.365-.133 0-.267.685-.246.914 0 .137-.306.342-.594.205-.285-.159-.249-.502-.115-.684.134-.16.363-.503.459-.572 0-.115.096-.275-.115-.25-.135 0-.479.502-.669.662-.21.183-.345-.205-.447-.388-.156-.457.6-.479.829-.594h.057zm.192-1.256c.228 0 .115.206.096.435 0 .206-.096.228-.306-.115-.231-.297 0-.344.228-.344l-.018.024zm1.834-.024c.228 0 .438.092.21.344-.228.32-.285.274-.306.115 0-.228-.153-.457.096-.435v-.024zm10.786 1.987c-.136 0-.251.662-.251.89 0 .161-.297.343-.572.206-.296-.159-.251-.503-.115-.685.137-.159.365-.502.457-.57.091-.115.091-.275-.115-.252-.136 0-.479.504-.685.663-.205.183-.343-.228-.434-.41-.136-.435.594-.435.822-.548.343-.206.639-.776.707-1.165.091-.479.183-.685.434-.707.251 0 .388.228.456.707.092.388.343.959.708 1.165.228.115.959.115.799.548-.091.182-.228.594-.411.41-.205-.159-.548-.638-.685-.663-.137 0-.115.16 0 .252.091.091.296.41.434.57.183.183.229.526-.091.685-.297.136-.616 0-.594-.206 0-.228-.137-.89-.275-.89-.092 0-.092.16-.092.344 0 .41.229.707.183.936 0 .182-.115.387-.41.387-.343 0-.411-.205-.411-.387 0-.228.205-.525.183-.936 0-.183 0-.344-.115-.344h.07zm-.662-1.987c.251 0 .115.229.115.435s-.115.229-.296-.091c-.228-.32 0-.344.205-.388l-.024.045zm1.827-.045c.252 0 .457.115.229.388-.229.297-.296.25-.32.091 0-.205-.136-.435.115-.435l-.024-.045zm.228-11.696c-.229.306-.274.285-.296.115 0-.21-.16-.459.092-.438.274 0 .434.114.205.362l-.001-.038zm-2.009-.345c.251 0 .114.21.091.441 0 .21-.091.229-.297-.116-.251-.285 0-.325.229-.36l-.023.035zm-.229 1.242c.365-.21.616-.765.708-1.146.091-.495.183-.687.434-.705.274 0 .388.21.457.705.115.381.343.936.707 1.146.228.115.959.115.822.546-.115.229-.251.594-.434.434-.229-.205-.572-.655-.685-.674-.136 0-.114.172 0 .24.115.115.297.434.435.571.159.205.228.548-.092.685s-.616 0-.594-.205c0-.228-.137-.914-.251-.914s-.115.205-.115.388c0 .388.228.707.183.913 0 .205-.091.411-.411.411-.343 0-.388-.205-.434-.411 0-.205.228-.525.205-.913 0-.183 0-.388-.114-.388s-.275.685-.252.914c0 .16-.296.343-.594.205s-.228-.479-.091-.685c.136-.137.365-.479.434-.571.092-.115.092-.278-.115-.24-.115 0-.456.468-.662.674-.205.16-.343-.205-.434-.434-.137-.431.571-.431.799-.546h.091zm1.073 4.816c-.16-1.689.914-2.169 2.169-2.078-.183-1.689.685-2.26 2.216-2.192-.205-1.977 1.118-2.208 2.169-2.13-.16-1.491.891-2.082 1.598-2.16h.229c-.092 6.78-2.375 12.031-5.093 15.959-1.119-.298-1.302-1.211-1.21-2.033-1.667.182-2.329-.983-2.101-2.146-.638.227-2.009-.092-2.192-1.301-.136-1.188.8-1.919 2.215-1.919zm-5.112 0c.249 0 .441.115.21.388-.228.296-.267.251-.304.092 0-.206-.135-.435.115-.435l-.021-.045zm-1.795.046c.229 0 .115.228.115.435s-.115.227-.306-.092c-.228-.32 0-.343.21-.388l-.019.045zm-.227 1.232c.363-.205.649-.753.705-1.141.096-.503.192-.685.459-.707.249 0 .363.205.438.707.116.388.345.936.708 1.141.228.115.965.115.829.548-.115.206-.228.594-.456.434-.18-.205-.544-.662-.66-.685-.133 0-.115.182-.115.251.115.092.325.434.441.572.171.205.219.547-.096.684-.288.138-.594 0-.594-.205 0-.229-.133-.914-.246-.914s-.115.183-.115.365c0 .411.228.731.21.936 0 .206-.116.41-.441.41-.344 0-.381-.205-.42-.41 0-.205.228-.525.191-.936 0-.182 0-.365-.096-.365-.135 0-.288.685-.267.914 0 .159-.288.343-.573.205-.306-.136-.249-.478-.115-.684.132-.138.36-.479.438-.572 0-.115.115-.274-.096-.251-.132 0-.477.48-.687.685-.192.16-.325-.227-.42-.434-.153-.435.573-.435.801-.548h.175zm-.708 6.371c-.153-1.278.63-2.101 1.662-2.101s1.798.823 1.683 2.101c1.119-.32 2.626.251 2.26 2.192 1.301-.434 2.284.251 2.352 1.301-2.854 2.991-5.569 4.658-6.353 5.115-.784-.456-3.439-2.077-6.247-5.001 0-1.141 1.032-1.873 2.368-1.416-.363-1.94 1.147-2.511 2.275-2.191zm-2.14-5.685c-.171 1.21-1.548 1.529-2.178 1.301.228 1.142-.42 2.352-2.111 2.169.105.823-.104 1.781-1.336 2.032C3.264 25.46.989 20.186.884 13.376h.304c.717.115 1.769.669 1.61 2.158 1.032-.093 2.369.153 2.169 2.14 1.504-.115 2.382.502 2.213 2.192 1.27-.115 2.34.388 2.169 2.078 1.413 0 2.368.707 2.215 1.918h.039zm-3.306-7.581c0 .21-.094.229-.304-.096-.231-.306 0-.345.21-.363.229 0 .115.21.115.438l-.021.02zm1.74-.441c.249 0 .438.115.21.363-.231.306-.288.288-.306.115 0-.21-.153-.456.115-.438l-.019-.039zm-.441.153c.116.384.344.936.707 1.128.228.115.975.133.822.553-.116.228-.249.616-.441.434s-.534-.639-.669-.662c-.153 0-.115.183 0 .229.096.115.288.434.441.594.153.183.21.525-.115.662-.288.136-.594 0-.594-.183 0-.251-.115-.913-.249-.913-.115 0-.115.182-.115.365 0 .388.231.708.192.914 0 .205-.115.411-.42.411-.363 0-.402-.205-.441-.411 0-.205.231-.525.192-.914 0-.183 0-.365-.096-.365-.133 0-.285.662-.267.913 0 .16-.285.319-.573.183-.312-.137-.274-.479-.115-.662.135-.16.363-.503.438-.594.116-.092.116-.267 0-.229-.133 0-.477.48-.676.662s-.336-.205-.431-.434c-.158-.42.591-.438.804-.553.381-.192.649-.744.724-1.128.096-.495.192-.705.441-.705.267 0 .363.21.459.705h-.02zM.176.614v10.755h30.931V.614H.176zm26.661 2.905h.296c.115 0 .115 0 .115.094v4.795l-.411-.343V3.519zm.274 4.927h-2.443c0-.133-.092-.249-.205-.325h2.284l.365.325zm-5.275-4.909s.183-.115.205-.115h.115c.456 0 .958 0 1.393.19.388.152.662.402.662.878h.16c0-.477.274-.726.685-.878.388-.153.936-.19 1.37-.19h.229v4.376s0 .115-.091.115h-4.636s-.114 0-.114-.115l.022-4.261zm.114 4.584h2.078c-.115.115-.205.192-.228.325h-2.329l.388-.342h.115l-.023.017zm-.547-4.584s0-.115.091-.115h.297v4.603l-.388.325V3.537zm-2.786-.115s.115 0 .115.115v4.756l-.411-.325v-4.51h.296v-.036zm0 5.024h-2.468c0-.133-.115-.249-.21-.325h2.29l.388.325zm-2.793-4.087c0-.402.21-.612.534-.746s.729-.172 1.094-.172h.776v4.393s0 .117-.115.117h-2.29V4.359zm-2.503-.822h.784c.344 0 .765 0 1.068.153.326.132.536.343.536.765v3.609h-2.313s-.093 0-.093-.114l.018-4.414zm.115 4.584h2.043c-.094.096-.19.192-.19.325h-2.348l.42-.342h.093l-.019.017zm-.687-4.509s0-.115.115-.115h.288v4.51l-.384.325-.019-4.72zm-3.076-.115h.285c.116 0 .116 0 .116.115v4.776l-.402-.325V3.498zm.306 5.026H7.504c0-.135-.105-.249-.198-.327h2.29l.383.327zm-2.79-4.068c0-.423.21-.633.534-.765s.747-.153 1.089-.153H9.5v4.375s0 .114-.115.114H7.083l.106-3.57zm-2.505-.843h.778c.347 0 .758 0 1.074.152s.527.363.527.765v3.61H4.747s-.106 0-.106-.093l.042-4.435zm.105 4.585h2.053c-.115.116-.19.192-.201.327H4.293l.411-.344h.116l-.031.017zm-.557-4.585s0-.094.105-.094h.285v4.489l-.391.325V3.613zm-.516 5.254c-.105 0-.137-.115-.137-.153v-.706c-.201 0-.358-.152-.358-.306 0-.135.157-.267.358-.306V5.064c-.201 0-.358-.153-.358-.285 0-.173.157-.288.358-.306v-.918c0-.115.105-.133.137-.133l.411.096v4.909c0 .153.115.249.24.249h2.35c0 .094 0 .133.105.19H3.716zm3.548 0h-.277c-.105-.115-.178-.171-.178-.285 0-.173.136-.325.315-.325a.33.33 0 0 1 .318.325c.001.114-.104.228-.177.285zm3.726-1.165c0 .153-.153.267-.342.306v.706c0 .116-.117.153-.153.153H7.484c0-.115.098-.133.098-.21h2.473c.135 0 .249-.096.249-.229V3.48h.267c.096 0 .135.096.135.133v.936c.189 0 .363.135.363.288s-.174.267-.363.285v2.332c.189 0 .363.153.363.306l-.078-.057zm1.377 1.203c-.116 0-.135-.096-.135-.135v-.706c-.21 0-.344-.152-.344-.306s.134-.285.344-.306V5.064c-.21 0-.344-.153-.344-.285 0-.173.134-.288.344-.306v-.918c0-.115 0-.133.135-.133l.399.096v4.909a.24.24 0 0 0 .249.249h2.332c0 .094 0 .133.115.19l-3.094.038zm3.552 0h-.288c-.096-.096-.171-.153-.171-.285 0-.153.135-.306.306-.306.192 0 .325.153.325.306 0 .133-.115.247-.172.285zm3.725-1.146c0 .153-.16.267-.365.306v.706c0 .116-.115.135-.136.135h-2.994c0-.096.096-.115.096-.192h2.464c.137 0 .252-.115.252-.228V3.537h.251c.115 0 .136.096.136.132v.918c.205 0 .365.153.365.306 0 .134-.16.267-.365.285V7.51c.205 0 .365.153.365.306l-.068-.056zm1.369 1.203c-.115 0-.136-.096-.136-.133v-.725c-.205 0-.343-.135-.343-.289s.137-.285.343-.306V5.064c-.205 0-.343-.153-.343-.285 0-.173.137-.288.343-.306v-.918c0-.115.115-.133.136-.133l.411.096v4.909c0 .133.115.229.228.229h2.352c0 .115 0 .153.092.21l-3.083.095zm3.54 0h-.275c-.115-.096-.183-.153-.183-.285 0-.173.16-.306.319-.306.183 0 .32.133.32.306 0 .133-.114.228-.182.285zm3.722-1.147c0 .153-.137.267-.365.289v.725c0 .094 0 .133-.115.133h-3.014c0-.096.114-.133.114-.21h2.467c.137 0 .251-.115.251-.228V3.576h.251c.115 0 .137.115.137.153v.915c.205 0 .343.134.343.306 0 .135-.137.267-.343.288v2.329c.205 0 .343.153.343.306l-.068-.057zM8.66 7.033c-.153 0-.19 0-.19-.171v-.765c.228 0 .343.096.363.478h.115V5.506h-.115c0 .399-.135.477-.363.477v-.918c0-.115 0-.153.171-.153.306 0 .478.116.516.555v-.651H7.839v.096c.115 0 .19 0 .19.231v1.546c0 .192-.096.192-.19.231v.096h1.356l.094-.669h-.094c-.153.496-.384.573-.612.573l.076.114zm16.945-.21c.092 0 .183.096.388.096.434 0 .571-.381.571-.669 0-.345-.183-.535-.252-.573l-.342-.249c-.183-.115-.229-.19-.229-.363 0-.21.137-.306.251-.306.275 0 .388.363.457.594h.091v-.707h-.091c0 .115 0 .115-.115.115-.092 0-.183-.115-.365-.115-.435 0-.525.441-.525.631 0 .134 0 .42.411.669l.16.115c.137.096.252.173.252.384 0 0 0 .363-.275.363-.296 0-.434-.363-.479-.689h-.092V6.9h.092s0-.093.115-.093l-.023.016zM5.18 5.065l.588 1.911h.105L6.4 5.104c.105-.153.105-.228.21-.249v-.096h-.496v.096c.125 0 .201 0 .201.135v.228l-.306 1.051-.294-1.012c0-.096-.105-.21-.105-.267 0-.115.105-.115.198-.135v-.096h-.778v.096c.105 0 .136 0 .198.21H5.18zm9.289 1.758c-.153 0-.192 0-.192-.285v-.633h.096l.478 1.014h.477v-.115s-.115 0-.115-.096l-.459-.918c.135 0 .363-.153.363-.534 0-.555-.496-.573-.648-.573h-.744v.115c.133 0 .19 0 .19.288v1.413c0 .249 0 .249-.19.285v.096h.784l-.039-.057zm-.192-1.834c0-.096 0-.135.135-.135.189 0 .285.153.285.459 0 .42-.115.498-.42.498v-.822h.001zm8.291-.135v1.683c0 .267 0 .267-.229.285v.115h.845v-.115c-.183 0-.228 0-.228-.285V4.854c.159 0 .388 0 .434.535h.115v-.631h-1.485v.631h.115c0-.496.275-.514.434-.535zm1.393 1.969c-.091 0-.182 0-.182-.134 0 0 0-.19.115-.42h.502c0 .096.115.344.115.441s0 .096-.183.115v.115h.754v-.115c-.115 0-.16-.096-.251-.438l-.525-1.683h-.115l-.503 1.74c-.115.246-.115.363-.228.381v.115h.457l.044-.115zm.184-1.452l.228.784h-.457l.229-.784zm-7.593-.534c.115 0 .21 0 .21.228v1.53c0 .21-.096.21-.21.228v.115h.811v-.115c-.115 0-.228 0-.228-.228v-1.53c0-.21.115-.21.228-.228V4.74h-.811v.096z"/>
</svg>
