<?xml version="1.0" encoding="UTF-8"?>
<svg fill-rule="evenodd" viewBox="0 0 133 36" xmlns="http://www.w3.org/2000/svg">
<circle cx="17.715" cy="18.284" r="17.715" fill="#9b9b9b"/>
<g fill="#201f1f">
<path d="M25.314 24.45l-.32.128c-.216 0-.379-.057-.487-.172s-.207-.366-.312-.748l-3.073-11.76h-6.005l-2.815 11.76c-.097.415-.208.687-.337.81l-.451.19c-.387 0-.679-.332-.863-1l-3.897-11.76H1.251l5.161 15.344c.314.911.654 1.637 1.016 2.177s.86.951 1.488 1.246c.634.287 1.43.432 2.403.432 2.532 0 4.146-1.318 4.836-3.961l2.084-7.98 2.185 7.851c.24.822.568 1.54.979 2.143s.927 1.083 1.545 1.429c.625.344 1.356.517 2.191.517.57 0 1.169-.163 1.8-.488s1.214-.802 1.755-1.44a6.79 6.79 0 0 0 1.244-2.217l7.16-20.899h-5.381L25.618 23.84c-.111.327-.227.524-.304.611"/>
<path d="M37.214 22.214c0-2.696.778-4.893 2.336-6.587s3.613-2.541 6.166-2.541c2.686 0 4.771.814 6.257 2.443s2.228 3.858 2.228 6.685c0 2.818-.757 5.058-2.27 6.719s-3.585 2.493-6.215 2.493c-2.686 0-4.773-.84-6.265-2.518s-2.237-3.909-2.237-6.694zm4.293 0c0 3.896 1.403 5.845 4.209 5.845 1.288 0 2.309-.508 3.062-1.519s1.131-2.455 1.131-4.326c0-3.841-1.398-5.762-4.194-5.762a3.64 3.64 0 0 0-3.071 1.519c-.76 1.012-1.138 2.427-1.138 4.243zm14.263 0c0-2.696.778-4.893 2.337-6.587s3.613-2.541 6.166-2.541c2.686 0 4.771.814 6.257 2.443s2.228 3.858 2.228 6.685c0 2.818-.757 5.058-2.27 6.719s-3.585 2.493-6.215 2.493c-2.686 0-4.773-.84-6.265-2.518s-2.238-3.909-2.238-6.694zm4.293 0c0 3.896 1.403 5.845 4.21 5.845 1.287 0 2.309-.508 3.062-1.519s1.13-2.455 1.13-4.326c0-3.841-1.397-5.762-4.192-5.762-1.287 0-2.312.507-3.072 1.519s-1.138 2.427-1.138 4.243z" fill-rule="nonzero"/>
<path d="M89.352 14.818l-1.768 3.087c-.967-.913-2.266-1.37-3.896-1.37-1.562 0-2.798.52-3.706 1.56s-1.363 2.479-1.363 4.316c0 3.709 1.768 5.564 5.3 5.564 1.529 0 2.879-.507 4.045-1.519l1.519 3.252c-1.201.749-2.249 1.222-3.145 1.42s-1.956.298-3.178.298c-2.73 0-4.883-.796-6.463-2.387s-2.369-3.8-2.369-6.628c0-2.784.863-5.036 2.591-6.753s4.084-2.576 7.066-2.576c2.06.002 3.849.58 5.368 1.735zm1.564-7.727l4.126-.99v19.877c0 2.18.65 3.477 1.949 3.897-.639 1.21-1.729 1.815-3.269 1.815-1.872 0-2.807-1.299-2.807-3.896l.001-20.704zm18.713 24.032v-1.486c-.583.495-1.386.918-2.41 1.271s-1.965.528-2.824.528c-4.106 0-6.158-2.18-6.158-6.538V13.424h4.126v11.16c0 2.269 1.018 3.401 3.055 3.401a4.97 4.97 0 0 0 2.609-.726c.804-.484 1.337-1.045 1.6-1.684v-12.15h4.128v17.698h-4.126z"/>
<path d="M119.795 30.386l-.924 1.304h-2.329V7.091l4.128-.99v8.254c1.101-.671 2.299-1.007 3.6-1.007 2.585 0 4.672.817 6.257 2.452s2.377 3.728 2.377 6.282c0 2.961-.797 5.301-2.393 7.024s-3.759 2.584-6.488 2.584c-1.642.001-3.049-.433-4.228-1.304zm.875-12.497v9.227c.606.716 1.425 1.074 2.46 1.074 1.992 0 3.404-.472 4.235-1.42s1.247-2.46 1.247-4.54c0-3.588-1.717-5.383-5.15-5.383-1.223.002-2.153.348-2.792 1.042z" fill-rule="nonzero"/>
</g>
</svg>
