<?xml version="1.0" encoding="UTF-8"?>
<svg fill="#201f1f" fill-rule="evenodd" viewBox="0 0 79 26" xmlns="http://www.w3.org/2000/svg">
<path d="M18.676.247c.441-.807 1.242.749 1.383.958l12.715 18.806c.337.499.834 1.026.856 1.377.045.703-.762 1.712-1.054 2.276-.324.626-.917 2.036-1.318 2.036-.376 0-.798-1.046-.989-1.438L20.06 3.481c-.517-1.062-1.119-2.099-1.383-3.234zm6.984-.24c2.737 3.44 5.676 7.532 8.499 11.379l1.383 1.917c.325.464 1.294 1.508 1.318 1.977.032.641-.814 1.663-1.12 2.216-.428.775-.629 1.528-1.186 2.096-.567-.703-.937-1.533-1.318-2.336L26.187 2.643c-.38-.798-.898-1.622-.922-2.515.138-.034.188-.148.395-.12zm12.056 13.476c-.731-.979-1.066-2.152-1.581-3.294L32.38 1.925c-.272-.624-.738-1.398-.527-1.797.033-.043.144-.157.263-.12.631.194 1.493 1.455 2.108 2.156l3.953 4.552c.551.625 1.786 1.747 1.845 2.336.068.681-.716 1.686-1.054 2.336-.416.798-.74 1.507-1.252 2.096zM42.525.606c.946-.184.87 1.47.988 2.455l1.779 14.673c.24 2.033.184 5.667 1.778 6.468.205.103.801.223 1.581.3.535.052 1.435.086 1.515.359.3 1.012-3.745.636-4.677.599a34.71 34.71 0 0 0-2.569 0c-.74.025-2.168.152-2.108-.539.058-.668 1.1-.165 1.515-.659.239-.284.025-1.614-.066-2.516L40.68 6.595c-.096-.911-.306-1.91-.198-2.575.078-.476 1.475-3.304 2.043-3.414zm33.862 1.078c.12.834-.118 1.871-.131 3.054-.01.801.165 2.683-.593 2.695s-.57-1.159-.791-1.797c-1.001-2.894-6.364-3.748-10.474-3.294-5.723.632-9.432 4.928-8.499 11.499.704 4.956 4.193 8.719 9.026 9.882.987.238 3.124.418 4.282.359s3.108-.215 3.491-1.018c.388-.813.066-3.333.066-4.372 0-1.229.206-3.426-.33-4.073-.202-.243-.801-.407-1.383-.479-.515-.064-1.33-.012-1.318-.539.021-.902 3.73-.367 4.545-.359.769.007 4.46-.535 4.48.359.016.726-1.503.466-1.91.719-.933.577-.593 3.336-.593 4.731 0 1.227.372 4.183-.198 5.091-.474.754-2.363 1.158-3.426 1.377-1.444.297-2.964.473-4.414.479-9.172.039-15.236-4.013-15.943-11.618-.385-4.14 1.149-7.459 3.426-9.822C57.938 2.237 61.345.802 65.914.606c3.163-.136 5.435.308 8.037.659.756.102 1.604.064 2.436.419zM.56 1.744c-.094-.499.171-.673.593-.719 1.145-.125 2.194.116 3.689.12 1.412.004 4.475-.528 4.282.479-.107.558-1.6.365-1.977.659-.769.601-.527 4.019-.527 5.331 0 4.031-.116 7.634.066 11.559.07 1.514-.281 4.583.725 5.15.487.275 2.575-.003 2.635.659.083.919-3.818.479-4.744.479-.82 0-1.721.034-2.635.06-.717.02-2.2.148-2.042-.599.102-.486 1.272-.235 1.778-.539.905-.542.725-3.743.725-5.151V7.674c0-1.424.363-4.603-.461-5.33-.566-.502-1.488-.107-2.107-.6zm18.644 6.947c.345.217.725.789 1.12 1.377.332.496.796 1.068.856 1.377.148.758-.248 2.343-.33 3.174l-.593 6.408c-.076.835-.358 2.614.066 3.115.339.401 2.25.253 2.306.838.086.901-3.027.479-3.953.479-.939 0-4.003.397-4.018-.419-.013-.697 1.107-.308 1.845-.599.941-.37.967-2.184 1.12-3.474l1.45-12.098c.023-.079.116-.095.132-.18z"/>
</svg>
