<?xml version="1.0" encoding="UTF-8"?>
<svg viewBox="0 0 182 36" xmlns="http://www.w3.org/2000/svg" xmlns:xlink="http://www.w3.org/1999/xlink">
<defs>
<path id="b" d="M0 .014h35.973v35.973H0z"/>
</defs>
<g fill="none">
<path d="M46.366 13.046v4.271h5.596v2.514h-5.596v6.167h-3.238V10.543h9.905v2.503zm13.917 4.843c.52 0 .97-.066 1.348-.198s.688-.314.931-.546a2.12 2.12 0 0 0 .535-.818 2.99 2.99 0 0 0 .171-1.028c0-.735-.245-1.306-.733-1.712s-1.233-.61-2.231-.61h-1.67v4.913h1.648zm7.523 8.177h-2.9c-.542 0-.934-.207-1.177-.621l-2.953-4.763a1.26 1.26 0 0 0-.402-.407c-.146-.086-.362-.128-.648-.128h-1.091v5.918h-3.211v-15.53h4.88c1.084 0 2.012.112 2.782.337s1.402.537 1.894.937a3.59 3.59 0 0 1 1.081 1.428 4.74 4.74 0 0 1 .343 1.825 4.8 4.8 0 0 1-.219 1.461 4.31 4.31 0 0 1-.637 1.258 4.58 4.58 0 0 1-1.027 1.006 5.29 5.29 0 0 1-1.391.707 3.09 3.09 0 0 1 .578.412 2.83 2.83 0 0 1 .482.572l3.617 5.587zm13.099-7.771c0-.813-.107-1.543-.321-2.189s-.523-1.195-.925-1.648a3.96 3.96 0 0 0-1.467-1.038c-.575-.238-1.225-.359-1.953-.359s-1.381.12-1.959.359a3.97 3.97 0 0 0-1.471 1.038c-.403.453-.712 1.002-.926 1.648s-.321 1.375-.321 2.189c0 .821.107 1.554.321 2.199s.523 1.194.926 1.643a3.99 3.99 0 0 0 1.471 1.032c.578.238 1.231.359 1.959.359s1.379-.12 1.953-.359a4.02 4.02 0 0 0 1.467-1.032c.403-.449.712-.997.925-1.643s.321-1.379.321-2.199m3.285 0c0 1.134-.191 2.188-.572 3.157a7.39 7.39 0 0 1-1.616 2.515c-.696.706-1.532 1.261-2.509 1.664s-2.062.605-3.253.605-2.276-.202-3.253-.605-1.816-.958-2.515-1.664a7.36 7.36 0 0 1-1.622-2.515c-.382-.97-.572-2.023-.572-3.157s.19-2.185.572-3.152.922-1.804 1.622-2.51 1.537-1.261 2.515-1.664 2.061-.605 3.253-.605 2.276.202 3.253.605a7.44 7.44 0 0 1 2.509 1.669 7.48 7.48 0 0 1 1.616 2.515c.382.967.572 2.014.572 3.141m15.764-7.758v15.53h-1.659c-.25 0-.46-.041-.632-.123s-.339-.223-.503-.423l-7.737-9.847.049.739.017.674v8.98h-2.837v-15.53h1.691l.349.016c.096.01.183.036.261.075a1.02 1.02 0 0 1 .225.155 2.15 2.15 0 0 1 .235.257l7.791 9.889-.064-.787-.022-.722v-8.883h2.837zm14.351 2.59h-4.538v12.94h-3.221v-12.94h-4.538v-2.59h12.297zm10.93 4.763c.52 0 .97-.066 1.349-.198s.688-.314.931-.546a2.12 2.12 0 0 0 .535-.818 2.99 2.99 0 0 0 .171-1.028c0-.735-.244-1.306-.733-1.712s-1.232-.61-2.231-.61h-1.669v4.913h1.648zm7.523 8.177h-2.9c-.543 0-.935-.207-1.177-.621l-2.954-4.763c-.122-.185-.255-.32-.401-.407s-.362-.128-.648-.128h-1.091v5.918h-3.211v-15.53h4.88c1.084 0 2.012.112 2.782.337s1.402.537 1.894.937a3.58 3.58 0 0 1 1.081 1.428 4.73 4.73 0 0 1 .343 1.825 4.79 4.79 0 0 1-.219 1.461 4.32 4.32 0 0 1-.636 1.258c-.278.378-.621.713-1.028 1.006a5.28 5.28 0 0 1-1.391.707 3.07 3.07 0 0 1 .578.412c.178.16.339.351.482.572l3.617 5.587zm7.844-2.569c.521 0 .988-.087 1.402-.262s.763-.422 1.049-.743.503-.709.652-1.167.224-.97.224-1.541v-9.247h3.211v9.247c0 .942-.151 1.807-.454 2.596a5.86 5.86 0 0 1-1.301 2.038c-.563.57-1.249 1.016-2.055 1.337s-1.716.482-2.729.482-1.924-.16-2.734-.482a5.94 5.94 0 0 1-2.06-1.337c-.564-.57-.997-1.251-1.3-2.038s-.455-1.655-.455-2.596v-9.247h3.211v9.247c0 .571.076 1.085.225 1.541s.367.847.653 1.167.635.569 1.049.743.885.262 1.413.262m18.117-9.986c-.1.164-.201.283-.305.358s-.237.113-.401.113c-.157 0-.327-.055-.508-.166l-.638-.359c-.243-.129-.52-.248-.834-.359s-.682-.166-1.102-.166c-.742 0-1.299.166-1.67.497s-.556.765-.556 1.301c0 .343.102.626.305.851s.471.419.803.583.708.31 1.129.439l1.295.423c.442.154.874.333 1.295.54s.796.467 1.129.781a3.61 3.61 0 0 1 .803 1.15c.203.454.304 1.005.304 1.654a5.29 5.29 0 0 1-.369 1.985 4.69 4.69 0 0 1-1.064 1.616c-.464.46-1.036.822-1.718 1.086s-1.453.396-2.317.396a7.32 7.32 0 0 1-1.471-.15c-.489-.1-.96-.238-1.413-.417a7.79 7.79 0 0 1-1.278-.642 5.65 5.65 0 0 1-1.049-.834l.942-1.52a.98.98 0 0 1 .31-.284.8.8 0 0 1 .407-.112c.192 0 .396.072.61.214l.739.471c.278.171.601.328.969.471s.808.213 1.321.213c.75 0 1.329-.171 1.74-.513s.614-.853.614-1.531c0-.392-.102-.709-.305-.953a2.43 2.43 0 0 0-.797-.61c-.328-.164-.703-.305-1.124-.423l-1.296-.391c-.442-.143-.873-.313-1.295-.513a4.02 4.02 0 0 1-1.123-.792c-.329-.328-.594-.735-.797-1.22s-.305-1.088-.305-1.809a4.3 4.3 0 0 1 .342-1.68c.228-.542.564-1.024 1.006-1.445s.986-.76 1.632-1.017 1.386-.386 2.222-.386c.934 0 1.8.145 2.595.434s1.467.69 2.018 1.204l-.792 1.509zm16.791-2.975v15.53h-3.232v-6.689h-6.838v6.689h-3.232v-15.53h3.232v6.593h6.838v-6.593zm3.524 13.657h-.667v1.873h-.411v-1.873h-.667v-.338h1.745zm2.702-.338v2.211h-.362v-1.428l.009-.185-.668 1.256c-.031.06-.08.09-.145.09h-.058c-.065 0-.114-.03-.145-.09l-.676-1.26.008.1.003.09v1.428h-.362v-2.211h.311l.048.001c.013.001.025.004.036.008s.02.01.029.02.018.021.025.036l.662 1.228.048.101.044.107.045-.109.049-.102.653-1.225c.008-.015.017-.027.025-.036s.019-.016.03-.02.023-.007.036-.008l.047-.001h.311z" fill="#201f1f"/>
<mask id="a" fill="#fff">
<use xlink:href="#b"/>
</mask>
<path d="M35.973 18a17.99 17.99 0 0 1-17.986 17.986A17.99 17.99 0 0 1 0 18 17.99 17.99 0 0 1 17.986.014 17.99 17.99 0 0 1 35.973 18" fill="#201f1f" mask="url(#a)"/>
<path d="M24.88 16.879c-.262.251-.597.449-1.004.591s-.893.215-1.455.215h-1.779v-5.324h1.801c1.078 0 1.88.221 2.408.661s.791 1.059.791 1.856a3.25 3.25 0 0 1-.185 1.113c-.123.34-.316.636-.578.887zm1.755 3.613c-.154-.239-.328-.447-.52-.621a3.37 3.37 0 0 0-.623-.447 5.7 5.7 0 0 0 1.501-.766 4.98 4.98 0 0 0 1.109-1.09 4.68 4.68 0 0 0 .687-1.363 5.21 5.21 0 0 0 .237-1.583c0-.719-.123-1.378-.369-1.978s-.635-1.115-1.166-1.549-1.212-.772-2.044-1.015-1.832-.365-3.002-.365H20.29L17.178 17.5v9.047h3.464v-6.414h1.178c.308 0 .541.047.699.139s.302.239.433.44l3.188 5.162c.261.448.685.673 1.27.673h3.129l-3.903-6.055zM17.77 9.717H7.114v16.831h3.483v-6.716h3.585l1.092-2.737h-4.678v-4.651h6.534l.161-.405.927-2.321z" fill="#fff"/>
</g>
</svg>
