<?xml version="1.0" encoding="UTF-8"?>
<svg fill="#201f1f" viewBox="0 0 106 24" xmlns="http://www.w3.org/2000/svg">
<path d="M7.901 21.077v2.137h.72v-1.687h.973v1.687h.699v-1.687h.846c.108 0 .116.126.116.164v1.524h.7v-1.298l.001-.198c0-.377-.245-.641-.595-.641l-3.46-.001zM0 21.179l.001 2.036H.7v-.862h1.977l.001.862h.7v-2.139h-.701v.838H.7v-.838l-.7-.002v.105zm15.262-.119c.619 0 .748.427.748.784v1.371h-.722v-.666h-2.144v.666h-.721v-2.154l2.838-.002zm-2.117 1.059h2.144v-.45c0-.159-.035-.187-.231-.187h-1.915l.003.637zm3.334-.954v2.049h.701v-1.692h.986l.762.003c.149.004.19.04.193.169v1.52h.725l-.002-1.083.002-.528c-.005-.248-.146-.543-.787-.54l-2.58-.003v.105m3.367.439h0M7.329 21.06h-.617v1.546c0 .16-.035.188-.231.188H4.799c-.197 0-.232-.028-.232-.188V21.06h-.721v1.371c0 .358.13.784.749.784h2.09c.618 0 .748-.427.748-.784V21.06h-.104zm37.043.018v2.138h.721v-1.689h.974v1.689h.7v-1.689h.846c.108 0 .116.126.116.164v1.525h.701v-1.497c0-.378-.245-.642-.596-.642h-3.462zm-5.127-.003h-2.092c-.619 0-.748.427-.748.786v.58c0 .358.13.786.749.786h2.092c.619 0 .748-.427.748-.786v-.58c0-.359-.131-.786-.749-.786zm.028 1.54c0 .16-.035.188-.231.188H37.36c-.197 0-.232-.029-.232-.188v-.93c0-.16.034-.188.231-.188h1.682c.197 0 .231.028.231.188v.93h.001zm25.104.084h-.615v.522h.721v-.522zM51.626 21.06c.619 0 .748.427.748.785v1.373h-.722v-.667h-2.145v.667h-.722v-2.155l2.841-.002zm-2.12 1.06h2.145v-.451c0-.16-.035-.188-.231-.188h-1.917l.003.639zm6.948-1.053l.001 1.056-.002.551c.005.248.146.543.787.54l2.583.003v-.463h-1.689l-.763-.002c-.149-.004-.19-.04-.193-.169l-.002-.323v-.231l.009-.497.95.002h1.689v-.463l-.105.001-3.264-.005z"/>
<path d="M21.593 21.067h-.104v2.15h.721v-.68l2.29-.001c.269 0 .548-.238.548-.636v-.191c0-.378-.245-.643-.596-.643h-2.859zm2.652.451c.109 0 .117.125.117.163v.242c0 .087-.036.181-.117.181H22.21v-.586h2.035zm36.657.019l-.002.388h2.645v.441H60.9l.002.219c.002.128.044.163.194.169l2.45.002v.463l-2.582-.003c-.641.003-.782-.292-.788-.541l.003-.528-.002-1.071 3.369-.004v.464h-1.689l-.955.002m-34.775-.001l-.002.388h2.645v.441h-2.645l.002.219c.002.128.043.163.194.169l2.45.002v.463l-2.582-.003c-.64.003-.781-.292-.787-.541l.002-.528-.002-1.071 3.369-.004v.464h-1.689l-.955.002m26.602-.372l.001 2.052h.701v-1.693h.986l.763.002c.149.004.19.04.193.17v1.521h.726l-.002-1.084.002-.528c-.005-.249-.146-.544-.788-.541l-2.581-.003v.105m3.369.44v-.002.002m-20.049.498h-2.18v-.586h2.18v-.451h-2.9v2.15h.72v-.68l2.18-.001v-.432zm-3.254 1.055l-.463-.666c.194-.084.351-.293.351-.593v-.191c0-.378-.245-.643-.596-.643h-2.963v2.15h.721v-.68l1.879-.001.401.626.67-.002zm-2.949-1.641h2.035c.108 0 .117.125.117.163v.242c0 .087-.036.181-.117.181h-2.035v-.586zm60.948.009l-.002.386h2.628v.437h-2.628l.002.218c.003.127.043.163.192.167l2.434.002v.46l-2.564-.003c-.636.003-.777-.29-.782-.537l.002-.524-.002-1.065 3.345-.003v.46h-1.676l-.95.002m-10.412-.455h-4.143v.442h1.779v1.679h.695v-1.679h1.772v-.442h-.103z"/>
<path d="M80.779 21.171l.001 2.023h.695l.001-2.126-.697-.002zm8.288 0l.002 2.023h.694l.001-2.126-.697-.002zm4.687-.002l.002 2.035h2.561c.637.002.778-.297.784-.549l-.002-.526.002-.524c-.006-.247-.146-.54-.782-.537l-2.564-.003v.104h-.001zm3.346.437v-.002.002zm-1.67-.081l.758.002c.148.004.189.04.192.168v.871c-.003.128-.044.163-.191.168l-.758.002h-.979v-1.212h.979zm-13.646-.465v2.124h.716v-.665h2.275c.268 0 .543-.236.543-.631v-.19c0-.375-.242-.639-.591-.639h-2.943zm2.738.447c.108 0 .115.125.115.163v.239c0 .09-.039.18-.115.18H82.5v-.583l2.021.001zm-18.57-.439v2.124h.716v-1.677h.967v1.677h.694v-1.677h.841c.108 0 .115.125.115.163v1.514h.695v-1.291l.001-.197c0-.375-.243-.637-.591-.637h-3.438zm7.754 0h-.613v1.537c0 .159-.034.187-.229.187h-1.671c-.196 0-.231-.028-.231-.187v-1.537h-.717v1.363c0 .355.13.78.744.78h2.077c.615 0 .743-.424.743-.78v-1.363h-.104zm1.041.003h-.613v1.339c0 .355.129.78.744.78h2.493v-.463h-2.29c-.196 0-.231-.028-.231-.187v-1.469h-.103zm11.468 0h-.614v1.363c0 .355.129.756.744.756h2.493v-.463h-2.289c-.196 0-.23-.028-.23-.187v-1.469h-.104v-.001z"/>
<path d="M97.848 22.674h-.612v.518h.715v-.518zM35.097.096c-.256-.033-.481-.038-.732-.038L7.961.059 5.984 4.277c.007.005 20.479.002 20.871-.003 1.353.005 1.262.184.356 1.356-.263.341-.686.595-2.35.948-.195.042-17.615 3.492-17.733 3.522-2.202.499-3.625 1.651-4.198 2.907L0 19.234h32.474l1.981-4.239s-22.953.004-22.953-.003c.556-1.493.807-1.438 2.037-1.685l16.744-3.295c3.619-.763 4.627-2.046 5.258-3.217.269-.499 1.49-3.101 1.766-3.849.181-.49.156-1.137-.179-1.694S36.149.228 35.097.096zM98.02 0l-6.178 12.082c-1.726 3.122-3.905 3.12-4.995 3.12l-7.852.014c-1.661.013-4.716-.252-3.54-3.354C75.747 11.089 80.92 0 80.92 0h-7.989l-5.33 11.354c-2.005 4.839.925 8 4.632 8.073.598.012 15.752 0 15.752 0s2.914-.094 3.694-.189c1.679-.204 3.328-.704 4.789-1.73 2.347-1.647 4.171-6.081 4.171-6.081L106.017 0H98.02zM57.55 9.811l11.325 9.499-9.003.004-7.281-6.123-8.926 6.12-10.527-.003L47.957 9.32 36.984.059l8.95-.003 7.001 5.873L61.493.046 72.035.044zm-13.552 13.41l-.516-.689c.256-.022.507-.254.507-.631v-.191c0-.378-.245-.643-.596-.643H40.43v2.15h.721v-.68l1.615-.001.513.684h.72zm-2.847-1.702h2.035c.108 0 .117.125.117.163v.242c0 .087-.036.181-.117.181h-2.035v-.586z"/>
</svg>
