<?xml version="1.0" encoding="UTF-8"?>
<svg fill="#201f1f" fill-rule="evenodd" viewBox="0 0 97 32" xmlns="http://www.w3.org/2000/svg">
<path d="M30.403 12.061l-3.425 8.154V17.92h-4.701v-5.859h-3.818v8.311h12.272l.669-1.781h2.992l.684 1.781h4.017l-3.547-8.311h-5.143zm1.435 4.582l1.022-2.597h.056l1.037 2.597h-2.115zm12.743-2.578h4.715v-2.004h-8.533v8.311h3.818v-2.968h4.573V15.4h-4.573zm8.102-2.004l-3.49 8.311h3.818l.669-1.781h2.992l.684 1.781h4.017l-3.547-8.311h-5.143zm1.435 4.582l1.022-2.597h.057l1.036 2.597h-2.115zm17.591.179c-.305-.19-.675-.323-1.111-.4.683-.095 1.235-.318 1.653-.67.456-.389.683-.878.683-1.468 0-.921-.494-1.554-1.482-1.897-.608-.218-1.453-.327-2.535-.327h-5.969v8.311h3.818v-2.894h.854a1.68 1.68 0 0 1 .727.143c.285.133.455.361.512.684l.371 2.067h3.989l-.655-2.409a1.9 1.9 0 0 0-.854-1.14zm-3.538-1.154a5.07 5.07 0 0 1-.639.028h-.937v-1.78h.994c.511 0 .887.073 1.129.22a.71.71 0 0 1 .362.649c.001.475-.302.769-.908.883zm12.721 1.583h.72v1.137l-.321.05a2.36 2.36 0 0 1-.363.022c-.617 0-1.125-.152-1.525-.455-.465-.361-.697-.878-.697-1.552 0-.789.285-1.396.855-1.823s1.339-.64 2.308-.64a7.19 7.19 0 0 1 1.681.198 7.79 7.79 0 0 1 .955.284v-2.229l-1.802-.249-1.617-.063c-1.833 0-3.291.318-4.375.953-.797.465-1.357 1.092-1.681 1.879a3.63 3.63 0 0 0-.285 1.409c0 1.138.379 2.083 1.139 2.833 1.025.997 2.654 1.495 4.887 1.495.826 0 1.583-.038 2.271-.115s1.309-.18 1.86-.312V15.7h-4.011v1.551h.001zm10.345 1.173v-1.299h4.673v-1.892h-4.673v-1.207h4.887V12.06H87.42v8.311h8.804v-1.947zm-73.645 3.704V11.115h4.848L27.332 0H14.085L0 32h20.986l2.228-5.06h-7.739z"/>
</svg>
