<?xml version="1.0" encoding="UTF-8"?>
<svg fill="#201f1f" viewBox="0 0 102 26" xmlns="http://www.w3.org/2000/svg">
<path d="M83.114 5.247c-1.059-.59-2.716-.889-4.982-.889a22.05 22.05 0 0 0-3.379.265l-1.43.261c-1.061.231-1.225 1.293-1.225 1.293l-.34 1.401c-.193.896.317.858.544.788.464-.14.714-.278 1.659-.493.902-.205 1.857-.358 2.618-.352 1.117 0 1.965.123 2.53.358a1.28 1.28 0 0 1 .844 1.266c.002.142.005.277-.045.394-.047.11-.136.216-.402.252l-4.115.441c-1.358.192-2.547.52-3.541.974-1.06.471-1.852 1.098-2.399 1.896-.532.801-.798 1.77-.801 2.913 0 1.079.388 1.959 1.139 2.642.759.675 1.747 1.009 2.942 1.009.746-.005 1.331-.06 1.75-.164a8.79 8.79 0 0 0 1.344-.46c.356-.15.742-.365 1.149-.636l1.05-.701.014.023-.102.449-.003.019c-.116.541.209.991.745 1.043l.006.01h.047l.002.003 2.545-.003c.025 0 .028-.008.039-.014.547-.068 1.071-.513 1.195-1.048l2.037-8.792a5.05 5.05 0 0 0 .106-.72l.047-.671c.003-1.245-.53-2.165-1.587-2.756zm-4.935 10.476a7.29 7.29 0 0 1-1.095.564c-.515.207-1.003.317-1.455.317-.694 0-1.227-.099-1.587-.308-.361-.199-.55-.545-.543-1.039 0-.571.131-1.015.404-1.363.275-.334.684-.603 1.19-.804.504-.171 1.124-.312 1.839-.413l2.054-.226c.161-.002.268-.09.196.339-.032.185-.395 1.676-.561 2.354-.049.205-.32.501-.443.58zM48.071 4.552c-.598 0-1.382.484-1.753 1.068l-4.389 7.538c-.213.368-.43.134-.467-.003l-1.238-7.49c-.135-.589-.752-1.095-1.522-1.093l-2.493.004c-.601 0-.976.481-.842 1.063l2.277 13.339c.185 1.404-.019 1.653-.019 1.653l-2.47 4.307c-.36.584-.163 1.062.435 1.062l2.889-.003c.598 0 1.39-.476 1.746-1.061L51.336 6.144s1.063-1.607.083-1.592h-3.348m-35.076 3.82c-.841.614-2.007.924-3.52.924h-.684a.83.83 0 0 1-.85-1.065l.84-3.619c.128-.583.729-1.067 1.331-1.061l.913-.005c1.067 0 1.877.183 2.423.546.539.353.813.911.804 1.661.016 1.13-.412 2.004-1.258 2.621m6.023-5.576a4.18 4.18 0 0 0-1.529-1.64C16.8.731 16 .439 15.066.262 14.128.094 13.032.011 11.775 0L5.951.004c-.605.007-1.197.482-1.337 1.064L.689 18.136c-.135.584.242 1.067.844 1.067h2.79a1.43 1.43 0 0 0 1.336-1.067l.961-4.143c.129-.58.725-1.058 1.329-1.058h.797c3.411-.003 6.058-.701 7.959-2.098s2.848-3.242 2.844-5.527c.005-1.004-.168-1.844-.53-2.514m44.619 5.646c-.836.608-2.01.913-3.519.913h-.694c-.6.006-.987-.479-.845-1.061l.837-3.624c.125-.573.734-1.061 1.326-1.056l.917-.005c1.07.005 1.871.184 2.424.541.544.359.807.918.811 1.663.002 1.135-.417 2.007-1.257 2.629m6.02-5.584c-.348-.676-.872-1.22-1.536-1.644-.68-.424-1.49-.719-2.426-.891-.926-.163-2.027-.256-3.28-.259L56.58.067c-.601.011-1.191.483-1.329 1.064l-3.923 17.073a.82.82 0 0 0 .837 1.061l2.8-.005c.594.005 1.199-.476 1.34-1.056l.946-4.143c.133-.582.736-1.068 1.34-1.059h.795c3.416 0 6.064-.701 7.961-2.098C69.238 9.5 70.19 7.659 70.19 5.368c-.008-1-.178-1.843-.533-2.51M32.461 5.234c-1.059-.591-2.715-.889-4.982-.889-1.121 0-2.248.089-3.379.265l-1.43.26c-1.061.231-1.224 1.293-1.224 1.293l-.341 1.401c-.193.896.317.859.544.788.463-.14.715-.278 1.66-.493.901-.204 1.856-.357 2.616-.352 1.117 0 1.966.122 2.53.356.564.247.842.666.842 1.266.004.143.007.278-.043.394s-.137.216-.404.252l-4.113.442c-1.359.191-2.547.519-3.541.973-1.059.471-1.851 1.1-2.397 1.896-.534.801-.8 1.769-.801 2.913 0 1.078.388 1.959 1.138 2.642.759.674 1.747 1.009 2.941 1.009.748-.005 1.331-.06 1.752-.164.414-.105.867-.253 1.343-.46a7.05 7.05 0 0 0 1.149-.636l1.052-.701.012.022-.102.448-.002.021a.82.82 0 0 0 .744 1.043l.007.01h.047l.001.003 2.545-.003c.027 0 .031-.009.039-.014.549-.069 1.071-.514 1.195-1.046l2.038-8.793a5.03 5.03 0 0 0 .104-.72l.048-.671c.005-1.245-.53-2.164-1.587-2.756zm-4.935 10.477a7.31 7.31 0 0 1-1.095.563c-.515.207-1.006.316-1.455.316-.692 0-1.226-.099-1.586-.307-.36-.198-.551-.545-.545-1.04 0-.57.133-1.015.406-1.362.275-.335.682-.604 1.189-.805.505-.171 1.126-.31 1.839-.411l2.055-.227c.159-.001.267-.09.195.339-.031.185-.394 1.678-.56 2.354-.05.205-.321.502-.443.58zM92.73.205h-2.5a1.44 1.44 0 0 0-1.314.998l-.023.064-.148.677-3.585 16.251c-.118.543.208.992.744 1.042l.007.01h2.59c.564 0 1.138-.428 1.308-.974l.03-.087 3.739-16.921-.005-.001A.83.83 0 0 0 92.73.205zm4.725 3.445a2.26 2.26 0 0 1-.279.056 2.02 2.02 0 0 1-.271.022c-.278 0-.489-.075-.633-.224s-.216-.388-.216-.717V1.344h-.309V.959h.309v-.78h.456V.96h.943v.385h-.943v1.237l.011.334a.54.54 0 0 0 .068.225c.039.07.083.112.146.142s.158.044.286.044c.074 0 .153-.011.233-.033l.175-.054h.023v.411h-.001zm4.515.024h-.456V2.128l-.016-.338a.74.74 0 0 0-.067-.26c-.038-.07-.091-.122-.161-.157s-.17-.053-.3-.053a.85.85 0 0 0-.385.096 2.34 2.34 0 0 0-.384.244l.012.13.005.147v1.737h-.457V2.128l-.015-.342a.75.75 0 0 0-.067-.258.37.37 0 0 0-.161-.157c-.07-.035-.17-.052-.3-.052a.85.85 0 0 0-.376.092 2.24 2.24 0 0 0-.376.236v2.027h-.458V.959h.458v.302a1.97 1.97 0 0 1 .427-.277 1.06 1.06 0 0 1 .453-.1.9.9 0 0 1 .471.116.72.72 0 0 1 .288.324c.185-.157.353-.27.506-.337a1.2 1.2 0 0 1 .488-.103c.299 0 .519.09.66.271s.213.433.213.757l-.001 1.761z"/>
</svg>
