<?xml version="1.0" encoding="UTF-8"?>
<svg fill="#201f1f" viewBox="0 0 160 20" xmlns="http://www.w3.org/2000/svg">
<path d="M16.603 3.215C15.229 1.628 13.538 0 9.893 0 8.199 0 6.078.893 5.237 1.97V.562H.518V20h4.346V8.947c0-2.683 2.176-4.775 4.848-4.775s4.7 2.093 4.7 4.775L14.416 20h4.385l.002-11.067a4.78 4.78 0 0 1 4.779-4.778 4.78 4.78 0 0 1 4.78 4.778L28.365 20h4.317l.008-11.313C32.691 3.297 28.676 0 23.582 0c-3.211 0-5.608 1.54-6.978 3.215m9.836 16.783c.404 0 .62-.148.429-.647l-.598-1.828s.759-.202 1.199-.57c-.645-3.129-2.337-4.076-3.891-4.076s-3.22.919-3.892 4.076c.442.367 1.2.57 1.2.57l-.598 1.828c-.191.5.025.647.429.647h5.722"/>
<path d="M27.151 8.938a3.57 3.57 0 0 0-3.569-3.567 3.57 3.57 0 0 0-3.57 3.568 3.57 3.57 0 0 0 3.57 3.57 3.57 3.57 0 0 0 3.569-3.57m27.289 3.89c0-2.297-.758-3.194-2.159-3.194-1.746 0-2.597.966-2.597 3.287v6.779h-2.666v-6.872c0-2.274-.781-3.194-2.183-3.194-1.746 0-2.597.966-2.597 3.287v6.779h-2.757V7.406h2.733v.874a4.45 4.45 0 0 1 2.988-1.103c1.402 0 2.504.551 3.4 1.701 1.08-1.127 2.367-1.701 3.93-1.701 2.804 0 4.642 2.046 4.642 5.447v7.077H54.44v-6.872zm95.068-.575h6.94c-.368-1.608-1.7-2.665-3.424-2.665-1.747 0-3.173 1.103-3.516 2.665zm3.77 5.239c1.377 0 2.619-.574 3.859-2.022l2 1.631c-1.769 2.068-3.61 2.896-5.906 2.896-3.7 0-6.503-2.643-6.503-6.366 0-3.905 2.594-6.525 6.318-6.525 3.792 0 6.436 2.78 6.436 6.963v.504h-9.997c.276 1.748 1.747 2.919 3.792 2.919zm-10.16-4.641V19.7h-2.576V7.406h2.482v.897c.669-.736 1.517-1.103 2.551-1.103.229 0 .483 0 .987.117v2.757c-.733-.161-1.032-.207-1.262-.207-1.427-.001-2.182.895-2.182 2.987zm-14.884.689c0 2.32 1.561 3.883 3.725 3.883 2.136 0 3.697-1.585 3.697-3.883s-1.561-3.883-3.697-3.883c-2.164 0-3.725 1.586-3.725 3.883zm7.308 4.825c-.989 1.012-2.297 1.493-3.882 1.493-3.565 0-6.229-2.802-6.229-6.342 0-3.767 2.482-6.342 6.229-6.342 1.607 0 2.987.551 4.043 1.585V7.406h2.575v12.295h-2.736l-.001-1.334zm-21.298-4.802c0-3.699 2.573-6.457 6.273-6.457 1.702 0 3.103.505 4.479 1.792l-1.746 2.046c-.897-1.012-1.676-1.357-2.733-1.357-1.999 0-3.471 1.609-3.471 3.976 0 2.39 1.472 3.929 3.471 3.929 1.127 0 1.975-.391 2.802-1.471l1.791 2.067c-1.517 1.402-2.868 1.907-4.594 1.907-3.675.001-6.272-2.733-6.272-6.433zm-3.986-.712V19.7h-2.573V7.406h2.479v.897c.669-.736 1.517-1.103 2.553-1.103.229 0 .48 0 .988.117v2.757c-.737-.161-1.037-.207-1.267-.207-1.422-.001-2.181.895-2.181 2.987zm-14.368-.598h6.938c-.368-1.608-1.7-2.665-3.422-2.665-1.746 0-3.172 1.103-3.517 2.665zm3.767 5.239c1.381 0 2.618-.574 3.861-2.022l1.999 1.631c-1.769 2.068-3.607 2.896-5.906 2.896-3.697 0-6.5-2.643-6.5-6.366 0-3.905 2.594-6.525 6.317-6.525 3.79 0 6.433 2.78 6.433 6.963v.504h-9.996c.278 1.748 1.75 2.919 3.792 2.919zm-11.335-4.779c0-2.343-.664-3.24-2.205-3.24-1.77 0-2.642 1.011-2.642 3.332V19.7h-2.758V1.938h2.758v6.158c.847-.734 1.839-1.101 2.987-1.101 2.828 0 4.618 2.067 4.618 5.538v7.17h-2.758l.001-6.988zm-14.387 3.929v-7.03h-1.447V7.199h1.447v-2.78h2.574v2.78h1.86v2.413h-1.86v6.778c0 .551.138.667.528.667h2.184V19.7h-2.255c-2.114 0-3.032-.898-3.032-3.058zm-11.937-3.079c0 2.367 1.517 3.952 3.496 3.952s3.467-1.54 3.467-3.952c0-2.39-1.493-3.976-3.467-3.976s-3.496 1.61-3.496 3.976zm3.496 6.434c-3.656 0-6.322-2.803-6.322-6.434s2.643-6.457 6.322-6.457c3.696 0 6.319 2.803 6.319 6.457 0 1.838-.644 3.401-1.816 4.596-1.196 1.196-2.758 1.838-4.503 1.838z"/>
</svg>
