<?xml version="1.0" encoding="UTF-8"?>
<svg width="93px" height="34px" viewBox="0 0 93 34" version="1.1" xmlns="http://www.w3.org/2000/svg" xmlns:xlink="http://www.w3.org/1999/xlink">
    <!-- Generator: Sketch 52.5 (67469) - http://www.bohemiancoding.com/sketch -->
    <title>ecp_color</title>
    <desc>Created with Sketch.</desc>
    <g id="Page-1" stroke="none" stroke-width="1" fill="none" fill-rule="evenodd">
        <g id="HomePage-Final" transform="translate(-393.000000, -2169.000000)">
            <g id="Client-Logos" transform="translate(320.000000, 1962.000000)">
                <g id="Logos" transform="translate(45.000000, 140.000000)">
                    <g id="ecp_grey-copy-2" transform="translate(28.000000, 67.000000)">
                        <g id="ecp_color">
                            <g id="Group">
                                <path d="M2.2185,26.5988182 C2.2185,26.5988182 2.42018182,25.8307273 2.78181818,25.2650909 C3.12413636,24.7357727 3.62640909,24.4058182 3.63954545,24.3965455 C4.35895455,23.8200909 5.25222727,23.7737273 5.25222727,23.7737273 L14.2985455,23.7737273 L22.6803182,23.7853182 L33.2736364,23.7868636 L41.1353636,23.7737273 L48.9808636,23.7868636 L56.8124545,23.7868636 L69.3460909,23.7868636 L88.621,23.7868636 C88.621,23.7868636 89.3388636,23.7768182 89.7035909,24.2389091 C90.2993636,24.9853636 90.0095909,25.7665909 90.0095909,25.7665909 L88.2029545,31.2127727 C88.2029545,31.2127727 87.9634091,32.3301364 87.2378182,32.9923636 C86.0818182,34.051 85.2673636,33.9420455 85.2673636,33.9420455 L84.9366364,34 L73.8812273,33.9853182 L65.4144545,33.9853182 L53.4340909,33.9853182 L40.9916364,33.9853182 L31.9290909,34 L22.6385909,33.9853182 L10.5562273,34 L1.683,33.9853182 C1.683,33.9853182 0.788954545,33.8338636 0.509227273,33.1778182 C0.171545455,32.3842273 0.490681818,31.7281818 0.490681818,31.7281818 L2.2185,26.5988182 Z" id="Path" fill="#84858C"></path>
                                <path d="M86.0594091,27.3622727 C86.2981818,25.6074091 84.6638636,24.9637273 81.7004545,24.9637273 C78.1180909,24.9637273 77.1320909,26.3445909 76.9033636,27.3205455 C76.6460455,28.4209091 77.1189545,29.1882273 78.7470909,29.4177273 L81.3828636,29.7909545 C82.3008636,29.9261818 82.6122727,30.0614091 82.5195455,30.4555 C82.3727273,31.0891364 81.5938182,31.2336364 80.9084091,31.2336364 C79.4881364,31.2336364 79.2285,30.8805 79.2910909,30.3202727 L76.0634091,30.3202727 C75.7404091,32.3857727 77.639,32.8324091 80.4069091,32.8324091 C81.5281364,32.8324091 85.1259545,32.8123182 85.714,30.2994091 C86.02,28.9911818 85.2364545,28.4309545 83.7698182,28.1921818 C82.9978636,28.0677727 80.9702273,27.7872727 80.308,27.6837273 C79.9100455,27.6211364 79.7500909,27.4758636 79.8088182,27.2262727 C79.9224091,26.7386818 80.4826364,26.4999091 81.3975455,26.4999091 C82.6455,26.4999091 83.0086818,26.8538182 82.9700455,27.3622727 L86.0594091,27.3622727 Z" id="Path" fill="#FFFFFF"></path>
                                <polygon id="Path" fill="#FFFFFF" points="67.7094545 26.8677273 70.5778182 26.8677273 69.2889091 32.6106364 71.8968636 32.6106364 73.1857727 26.8677273 76.0556818 26.8677273 76.4281364 25.2071364 68.0811364 25.2071364"></polygon>
                                <path d="M64.7715455,25.2125455 L58.3331818,25.2125455 L56.6262273,32.4475909 L59.3052727,32.4475909 L59.874,30.0351364 L62.3281818,30.0351364 C63.0027727,30.0351364 63.3729091,30.2383636 63.1055455,31.3735 C63.0259545,31.7073182 62.9363182,32.1330909 63.0089545,32.4475909 L65.9468636,32.4475909 C65.6965,32.0828636 65.7583182,31.6269545 65.9708182,30.1966364 C66.0875,29.4169545 65.7799545,29.0514545 65.3093636,28.9 L65.314,28.8791364 C66.0728182,28.7176364 66.7597727,28.1906364 66.9877273,27.2278182 C67.2705455,26.0231364 66.742,25.2125455 64.7715455,25.2125455 M64.0250909,27.6141818 C63.9084091,28.1110455 63.4872727,28.4147273 62.8343182,28.4147273 L60.2565,28.4147273 L60.6289545,26.8337273 L63.2075455,26.8337273 C63.8597273,26.8337273 64.1371364,27.1381818 64.0250909,27.6141818" id="Shape" fill="#FFFFFF" fill-rule="nonzero"></path>
                                <path d="M54.3559545,25.2071364 L51.153,25.2071364 L46.0730909,32.6106364 L48.8796364,32.6106364 L49.6237727,31.4075 L53.0577727,31.4075 L53.2602273,32.6106364 L56.0667727,32.6106364 L54.3559545,25.2071364 Z M50.5865909,29.8736364 L52.3074545,27.0740455 L52.3290909,27.0740455 L52.7880909,29.8736364 L50.5865909,29.8736364 Z" id="Shape" fill="#FFFFFF" fill-rule="nonzero"></path>
                                <path d="M45.5746818,25.1275455 L39.6718182,25.1275455 L37.9764545,32.6106364 L40.6369545,32.6106364 L41.2018182,30.1162727 L44.5670455,30.1162727 C46.7129091,30.1162727 47.668,28.8582727 47.9492727,27.6219091 C48.2691818,26.2062727 47.7437273,25.1275455 45.5746818,25.1275455 M45.1991364,27.6219091 C45.05,28.2818182 44.6613182,28.5646364 43.9233636,28.5646364 L41.5534091,28.5646364 L41.9807273,26.6784091 L44.3506818,26.6784091 C45.0886364,26.6784091 45.3490455,26.9612273 45.1991364,27.6219091" id="Shape" fill="#FFFFFF" fill-rule="nonzero"></path>
                                <path d="M32.0820909,24.9830455 L25.6823636,24.9830455 L23.9854545,32.6778636 L26.6482727,32.6778636 L27.2139091,30.1131818 L29.6526364,30.1131818 C30.3241364,30.1131818 30.6911818,30.3287727 30.4245909,31.5357727 C30.3457727,31.8912273 30.2576818,32.3440455 30.3295455,32.6778636 L33.2489091,32.6778636 C32.9993182,32.2907273 33.0611364,31.8046818 33.2728636,30.2855 C33.3887727,29.4555909 33.0827727,29.0676818 32.6152727,28.9061818 L32.6191364,28.8837727 C33.3740909,28.7114545 34.0571818,28.1512273 34.2828182,27.1281364 C34.5656364,25.8446364 34.0394091,24.9830455 32.0820909,24.9830455 M31.3402727,27.5369091 C31.2235909,28.0646818 30.8055455,28.3884545 30.1564545,28.3884545 L27.5940909,28.3884545 L27.965,26.707 L30.5265909,26.707 C31.1756818,26.707 31.4515455,27.03 31.3402727,27.5369091" id="Shape" fill="#FFFFFF" fill-rule="nonzero"></path>
                                <path d="M21.76,24.9830455 L18.5045,24.9830455 L13.3395909,32.6778636 L16.1925,32.6778636 L16.949,31.4268182 L20.4394091,31.4268182 L20.6449545,32.6778636 L23.4978636,32.6778636 L21.76,24.9830455 Z M17.9280455,29.8319091 L19.6767273,26.9218182 L19.6983636,26.9218182 L20.1650909,29.8319091 L17.9280455,29.8319091 Z" id="Shape" fill="#FFFFFF" fill-rule="nonzero"></path>
                                <path d="M11.0515455,29.7136818 C10.676,30.6085 9.83063636,31.1895909 8.63445455,31.1895909 C6.91204545,31.1895909 6.65936364,30.1015909 6.93986364,28.8304545 C7.21959091,27.5585455 8.00777273,26.4697727 9.67531818,26.4697727 C11.186,26.4697727 11.373,27.3970455 11.4085455,27.9464545 L14.3727273,27.9464545 C14.3773636,25.2844091 12.4826364,24.7458182 10.0431364,24.7458182 C6.57513636,24.7458182 4.68736364,26.2534091 4.11940909,28.8304545 C3.53522727,31.4809091 4.86431818,32.9143182 8.24190909,32.9143182 C12.0236364,32.9143182 13.3140909,31.3727273 14.0049091,29.7136818 L11.0515455,29.7136818 Z" id="Path" fill="#FFFFFF"></path>
                                <path d="M83.3085,0.224090909 C78.9518636,-0.608909091 73.8132273,0.8585 71.111,5.05595455 C70.2447727,4.28013636 68.306,2.47968182 68.306,2.47968182 C68.306,2.47968182 65.0960909,4.65104545 62.9718636,6.05045455 C63.0545455,5.82481818 64.1479545,2.86295455 64.1479545,2.86295455 L41.6183182,2.86295455 L41.3061364,4.51427273 C40.936,6.47159091 39.9793636,9.78659091 39.1015455,10.6837273 C38.5212273,11.2779545 37.5669091,11.6967727 36.4572727,11.8984545 C37.2871818,9.23177273 39.2692273,2.86681818 39.2692273,2.86681818 L27.6049091,2.86295455 L27.3081818,4.53822727 C26.7927727,7.45372727 25.4590455,12.1588636 24.1067727,13.4887273 C23.0025455,14.5736364 21.0606818,15.0782273 18.9704545,14.9630909 C19.2470909,14.6949545 26.2194091,7.68786364 26.2194091,7.68786364 L25.6545455,6.45072727 C23.2366818,1.1645 16.9157727,-0.608136364 11.9208636,0.372454545 C6.36881818,1.46277273 2.78027273,5.53040909 2.55695455,10.9874091 C2.43331818,13.9886818 3.60709091,16.796 5.86113636,18.8916364 C7.90809091,20.7948636 10.6613182,21.9663182 13.6139091,22.1911818 C17.8523182,22.5126364 21.2530909,21.2492273 23.7381818,19.9433182 C25.3145455,21.3844545 27.6705909,22.0714091 30.0822727,21.6510455 C32.1516364,21.2901818 34.17,20.2423636 36.1219091,19.2293182 C36.1365909,19.2223636 36.1497273,19.2154091 36.1636364,19.2076818 C36.0747727,19.4905 35.3831818,21.6858182 35.3831818,21.6858182 L43.3105909,21.6811818 L45.5978636,20.4046364 L45.1396364,21.6865909 L57.5233636,21.6819545 L57.9483636,20.2215 C58.6469091,17.8214091 59.6862273,14.8495 60.1197273,14.2529545 C60.1545,14.2058182 60.1792273,14.1849545 60.1861818,14.1803182 C60.4744091,14.0922273 61.5137273,14.6424091 61.9333182,15.4437273 L62.8729545,17.238 C62.8729545,17.238 68.7711818,14.1525 69.8205455,13.6231818 C70.3050455,16.2651364 71.7291818,18.564 73.9832273,20.1728182 C77.503,22.6865 82.4662273,23.1478182 86.3329545,21.3203182 C89.9153182,19.6288182 92.0480455,16.3385455 92.3393636,12.0576364 C92.8084091,5.16490909 88.1419091,1.1475 83.3085,0.224090909" id="Path" fill="#84858C"></path>
                                <path d="M43.2974545,4.88981818 C43.2974545,4.88981818 42.2720455,10.3398636 40.5504091,12.1009091 C39.0443636,13.6417273 36.3390455,14.2977727 33.6831818,13.9894545 C34.6189545,10.9472273 36.516,4.88981818 36.516,4.88981818 L29.3049091,4.88981818 C29.3049091,4.88981818 27.9580455,12.5452273 25.5278182,14.9337273 C23.1686818,17.2519091 18.632,17.5988636 14.8827273,16.1360909 C17.8360909,13.1657273 20.9455455,10.3514545 23.8108182,7.29377273 C20.2516364,-0.489909091 5.02195455,0.350045455 4.5815,11.0708636 C4.37054545,16.2125909 8.82377273,19.7957273 13.7669091,20.1705 C18.0578636,20.4958182 21.4825909,19.0067727 24.2404545,17.3369091 C25.1035909,19.0747727 27.3475909,20.0708182 29.7345455,19.6550909 C32.9606818,19.0925455 36.6303636,16.2620455 39.3488182,15.6199091 C38.9902727,16.9783636 38.1464545,19.6574091 38.1464545,19.6574091 L42.7828182,19.6550909 L46.4741364,17.5942273 C46.4741364,17.5942273 49.5349091,9.15140909 51.0239545,4.88904545 L43.2974545,4.88904545 L43.2974545,4.88981818 Z M12.8226364,13.3882727 C8.97754545,10.0423636 14.0211364,4.45477273 17.8878636,8.1515 L12.8226364,13.3882727 Z M71.7987273,8.32304545 C70.5105909,7.29377273 68.1074091,5.06059091 68.1074091,5.06059091 C68.1074091,5.06059091 61.9294545,9.24181818 59.0085455,10.9843182 C59.7403182,8.94122727 60.4921818,6.91745455 61.2409545,4.88904545 L53.2555909,4.88904545 C51.5586818,9.86 49.7644091,14.7335909 48.0188182,19.6543182 L56.0026364,19.6543182 C56.0026364,19.6543182 57.5612273,14.2977727 58.4923636,13.0436364 C59.9396818,11.0963636 62.7748182,12.6796818 63.7291364,14.5033182 C66.3324545,13.158 69.1776364,11.5963182 71.7121818,10.4689091 C70.3892727,22.3526818 89.4632727,24.4722727 90.3171364,11.9193182 C91.1076364,0.300590909 74.8896364,-1.33140909 71.7987273,8.32304545 Z M83.9027273,15.6199091 L81.0699091,13.7313636 L78.2370909,15.7056818 L79.2671364,12.5297727 L76.5200909,10.0400455 L79.9533182,10.0400455 L80.9833636,6.94990909 L82.0991818,10.0400455 L85.6197273,10.0400455 L82.7861364,12.3582273 L83.9027273,15.6199091 Z" id="Shape" fill="#FFFFFF"></path>
                            </g>
                            <g id="Group">
                                <g>
                                    <path d="M2.2185,26.5995909 C2.2185,26.5995909 2.42095455,25.8299545 2.78259091,25.2650909 C3.12568182,24.7365455 3.62795455,24.4058182 3.64031818,24.3957727 C4.35895455,23.8185455 5.253,23.7729545 5.253,23.7729545 L14.3000909,23.7729545 L22.6810909,23.7845455 L33.2751818,23.7876364 L41.1376818,23.7745 L48.9839545,23.7868636 L56.8155455,23.7868636 L69.3484091,23.7868636 L88.6256364,23.7868636 C88.6256364,23.7868636 89.3442727,23.7775909 89.7082273,24.2389091 C90.3055455,24.9853636 90.015,25.7650455 90.015,25.7650455 L88.2075909,31.212 C88.2075909,31.212 87.9688182,32.3285909 87.2416818,32.9923636 C86.0864545,34.0502273 85.2727727,33.9412727 85.2727727,33.9412727 L84.9405,34 L73.8866364,33.9845455 L65.4190909,33.9845455 L53.4387273,33.9845455 L40.9924091,33.9845455 L31.9290909,34 L22.6393636,33.9845455 L10.5554545,34 L1.68222727,33.9845455 C1.68222727,33.9845455 0.788954545,33.8338636 0.509227273,33.1770455 C0.171545455,32.3819091 0.490681818,31.7266364 0.490681818,31.7266364 L2.2185,26.5995909 Z" id="Path" fill="#0D55A3"></path>
                                    <path d="M86.0625,27.3622727 C86.3005,25.6074091 84.6661818,24.9629545 81.702,24.9629545 C78.1211818,24.9629545 77.1344091,26.3438182 76.9049091,27.3197727 C76.6468182,28.4201364 77.1212727,29.1882273 78.7486364,29.4169545 L81.3844091,29.7894091 C82.3016364,29.9246364 82.6138182,30.0583182 82.5203182,30.4531818 C82.3735,31.0860455 81.5945909,31.2313182 80.9084091,31.2313182 C79.4904545,31.2313182 79.2285,30.8789545 79.2918636,30.3195 L76.0672727,30.3195 C75.7450455,32.3842273 77.6436364,32.8316364 80.4107727,32.8316364 C81.5327727,32.8316364 85.1282727,32.8115455 85.7178636,30.2994091 C86.0238636,28.9904091 85.2403182,28.4301818 83.7736818,28.1906364 C83.0017273,28.067 80.9733182,27.7872727 80.3126364,27.6837273 C79.9139091,27.6195909 79.7539545,27.4758636 79.8119091,27.2270455 C79.9262727,26.7386818 80.4849545,26.4991364 81.4006364,26.4991364 C82.6478182,26.4991364 83.0102273,26.8530455 82.9723636,27.3607273 L86.0625,27.3622727 Z" id="Path" fill="#FFE836"></path>
                                    <polygon id="Path" fill="#FFE836" points="67.7117727 26.8677273 70.5809091 26.8677273 69.2912273 32.6098636 71.8991818 32.6098636 73.1888636 26.8677273 76.0572273 26.8677273 76.4304545 25.2071364 68.0826818 25.2071364"></polygon>
                                    <path d="M64.7730909,25.2133182 L58.3339545,25.2133182 L56.6262273,32.4468182 L59.3083636,32.4468182 L59.8763182,30.0343636 L62.3297273,30.0343636 C63.0050909,30.0343636 63.3736818,30.2375909 63.1078636,31.3735 C63.0282727,31.7073182 62.9394091,32.1323182 63.0112727,32.4468182 L65.9491818,32.4468182 C65.6980455,32.0828636 65.7598636,31.6261818 65.9731364,30.1974091 C66.0890455,29.4177273 65.7807273,29.0514545 65.3116818,28.9015455 L65.3163182,28.8806818 C66.0759091,28.7191818 66.7628636,28.1929545 66.9900455,27.2285909 C67.2728636,26.0231364 66.7435455,25.2133182 64.7730909,25.2133182 M64.0266364,27.6134091 C63.9099545,28.1102727 63.4888182,28.4147273 62.8358636,28.4147273 L60.2565,28.4147273 L60.6289545,26.8345 L63.2075455,26.8345 C63.8620455,26.8345 64.1402273,27.1389545 64.0266364,27.6134091" id="Shape" fill="#FFE836" fill-rule="nonzero"></path>
                                    <path d="M54.3590455,25.2071364 L51.1553182,25.2071364 L46.0738636,32.6114091 L48.8804091,32.6114091 L49.6245455,31.4090455 L53.0593182,31.4090455 L53.261,32.6114091 L56.0683182,32.6114091 L54.3590455,25.2071364 Z M50.5873636,29.8736364 L52.309,27.0725 L52.3306364,27.0725 L52.7888636,29.8736364 L50.5873636,29.8736364 Z" id="Shape" fill="#FFE836" fill-rule="nonzero"></path>
                                    <path d="M45.5754545,25.1267727 L39.6733636,25.1267727 L37.9772273,32.6098636 L40.6377273,32.6098636 L41.2025909,30.1139545 L44.5670455,30.1139545 C46.7129091,30.1139545 47.6695455,28.8575 47.9508182,27.6203636 C48.2707273,26.2055 47.7452727,25.1267727 45.5754545,25.1267727 M45.1999091,27.6203636 C45.0507727,28.2810455 44.6620909,28.5638636 43.9249091,28.5638636 L41.5541818,28.5638636 L41.9822727,26.6776364 L44.3522273,26.6776364 C45.0901818,26.6791818 45.3498182,26.9612273 45.1999091,27.6203636" id="Shape" fill="#FFE836" fill-rule="nonzero"></path>
                                    <path d="M32.0820909,24.9830455 L25.6831364,24.9830455 L23.987,32.6763182 L26.6498182,32.6763182 L27.2154545,30.1116364 L29.6541818,30.1116364 C30.3256818,30.1116364 30.6919545,30.3287727 30.4261364,31.5342273 C30.3465455,31.8904545 30.2584545,32.3440455 30.3310909,32.6763182 L33.2504545,32.6763182 C33.0008636,32.2907273 33.0634545,31.8031364 33.2744091,30.2855 C33.3910909,29.4532727 33.0850909,29.0669091 32.6168182,28.9054091 L32.6214545,28.883 C33.3756364,28.7114545 34.0587273,28.152 34.2843636,27.1281364 C34.5664091,25.8454091 34.0401818,24.9830455 32.0820909,24.9830455 M31.3410455,27.5369091 C31.2243636,28.0639091 30.8063182,28.3884545 30.1572273,28.3884545 L27.5940909,28.3884545 L27.965,26.707 L30.5265909,26.707 C31.1764545,26.7062273 31.4515455,27.03 31.3410455,27.5369091" id="Shape" fill="#FFE836" fill-rule="nonzero"></path>
                                    <path d="M21.7607727,24.9830455 L18.5045,24.9830455 L13.3388182,32.6763182 L16.1925,32.6763182 L16.949,31.4260455 L20.4394091,31.4260455 L20.6457273,32.6763182 L23.4978636,32.6763182 L21.7607727,24.9830455 Z M17.9280455,29.8303636 L19.6767273,26.9218182 L19.6983636,26.9218182 L20.1658636,29.8303636 L17.9280455,29.8303636 Z" id="Shape" fill="#FFE836" fill-rule="nonzero"></path>
                                    <path d="M11.0515455,29.7121364 C10.676,30.6061818 9.83140909,31.1880455 8.63445455,31.1880455 C6.91281818,31.1880455 6.65936364,30.0992727 6.93986364,28.8281364 C7.21959091,27.557 8.00777273,26.4682273 9.67531818,26.4682273 C11.186,26.4682273 11.373,27.3947273 11.4077727,27.9456818 L14.3727273,27.9456818 C14.3781364,25.2836364 12.4826364,24.7442727 10.0431364,24.7442727 C6.57436364,24.7442727 4.68659091,26.2518636 4.11940909,28.8281364 C3.53522727,31.4801364 4.86354545,32.9127727 8.24268182,32.9127727 C12.0244091,32.9127727 13.3148636,31.3711818 14.0049091,29.7121364 L11.0515455,29.7121364 Z" id="Path" fill="#FFE836"></path>
                                    <path d="M83.3108182,0.224090909 C78.9549545,-0.609681818 73.8155455,0.857727273 71.1117727,5.05518182 C70.2463182,4.28013636 68.3067727,2.47968182 68.3067727,2.47968182 C68.3067727,2.47968182 65.0968636,4.6495 62.9741818,6.04968182 C63.0568636,5.82481818 64.1495,2.86218182 64.1495,2.86218182 L41.6175455,2.86295455 L41.3053636,4.5135 C40.9352273,6.47159091 39.9785909,9.78581818 39.1,10.6829545 C38.5196818,11.2764091 37.5661364,11.696 36.4565,11.8969091 C37.2864091,9.231 39.2676818,2.86527273 39.2676818,2.86527273 L27.6049091,2.86372727 L27.3089545,4.53822727 C26.7935455,7.45372727 25.4598182,12.1588636 24.1067727,13.4879545 C23.0033182,14.5728636 21.0599091,15.0782273 18.9704545,14.9630909 C19.2470909,14.6941818 26.2194091,7.68786364 26.2194091,7.68786364 L25.6545455,6.45072727 C23.2374545,1.1645 16.9157727,-0.608136364 11.9208636,0.373227273 C6.36804545,1.46354545 2.78027273,5.52963636 2.55540909,10.9874091 C2.43254545,13.9886818 3.60631818,16.796 5.86113636,18.8916364 C7.90731818,20.7948636 10.6605455,21.9663182 13.6139091,22.1904091 C17.8523182,22.5118636 21.2538636,21.25 23.7381818,19.9433182 C25.3153182,21.3844545 27.6705909,22.0714091 30.0830455,21.6510455 C32.1531818,21.2909545 34.1715455,20.2423636 36.1234545,19.2293182 C36.1373636,19.2223636 36.1505,19.2154091 36.1644091,19.2076818 C36.0747727,19.4905 35.3839545,21.6858182 35.3839545,21.6858182 L43.3113636,21.6804091 L45.5994091,20.4038636 L45.1411818,21.6858182 L57.5256818,21.6811818 L57.9491364,20.2199545 C58.6492273,17.8214091 59.6877727,14.8487273 60.1205,14.2521818 C60.1552727,14.2058182 60.1815455,14.1841818 60.1854091,14.1803182 C60.4736364,14.0922273 61.5137273,14.6424091 61.9333182,15.4429545 L62.8721818,17.2372273 C62.8721818,17.2372273 68.7696364,14.1517273 69.8205455,13.6224091 C70.3035,16.2635909 71.7291818,18.5624545 73.9824545,20.1720455 C77.503,22.6857273 82.4662273,23.1470455 86.3337273,21.3203182 C89.9160909,19.6280455 92.0488182,16.3385455 92.3393636,12.0568636 C92.8115,5.16490909 88.1442273,1.14672727 83.3108182,0.224090909" id="Path" fill="#0D55A3"></path>
                                    <path d="M43.299,4.88981818 C43.299,4.88981818 42.2728182,10.3398636 40.5519545,12.1001364 C39.0466818,13.6409545 36.3398182,14.297 33.6847273,13.9886818 C34.6212727,10.9472273 36.5175455,4.88981818 36.5175455,4.88981818 L29.3056818,4.88981818 C29.3056818,4.88981818 27.9588182,12.5452273 25.5293636,14.9337273 C23.1702273,17.2519091 18.6327727,17.5988636 14.8835,16.1360909 C17.8360909,13.1657273 20.9463182,10.3506818 23.8115909,7.29454545 C20.2516364,-0.489909091 5.02118182,0.350818182 4.5815,11.0700909 C4.37054545,16.2118182 8.82454545,19.7941818 13.7669091,20.1697273 C18.0578636,20.4950455 21.4825909,19.0067727 24.2404545,17.3361364 C25.1035909,19.0732273 27.3475909,20.0700455 29.7345455,19.6543182 C32.9599091,19.0925455 36.6303636,16.2612727 39.3480455,15.6191364 C38.9902727,16.9783636 38.1464545,19.6566364 38.1464545,19.6566364 L42.7820455,19.6550909 L46.4741364,17.5942273 C46.4741364,17.5942273 49.5349091,9.15295455 51.0239545,4.88981818 L43.299,4.88981818 Z M12.8226364,13.3882727 C8.97754545,10.0408182 14.0219091,4.45477273 17.8878636,8.1515 L12.8226364,13.3882727 Z M71.8002727,8.32381818 C70.5113636,7.29377273 68.1089545,5.06136364 68.1089545,5.06136364 C68.1089545,5.06136364 61.9302273,9.24259091 59.0093182,10.9843182 C59.7418636,8.94122727 60.4937273,6.91745455 61.2417273,4.88904545 L53.2571364,4.88904545 C51.561,9.85922727 49.7659545,14.7328182 48.0211364,19.6543182 L56.0049545,19.6543182 C56.0049545,19.6543182 57.5627727,14.2985455 58.4954545,13.0444091 C59.942,11.0963636 62.7779091,12.6804545 63.7322273,14.5040909 C66.3355455,13.1587727 69.1822727,11.5970909 71.7168182,10.4696818 C70.3946818,22.3534545 89.4671364,24.4722727 90.321,11.9193182 C91.1099545,0.300590909 74.8911818,-1.33140909 71.8002727,8.32381818 Z M83.9058182,15.6199091 L81.0714545,13.7329091 L78.2386364,15.7064545 L79.2686818,12.5305455 L76.5208636,10.0408182 L79.9556364,10.0408182 L80.9856818,6.95068182 L82.1022727,10.0408182 L85.6220455,10.0408182 L82.7892273,12.359 L83.9058182,15.6199091 Z" id="Shape" fill="#FFE836" fill-rule="nonzero"></path>
                                </g>
                                <path d="M3.96795455,32.2196364 C3.96795455,33.2172273 3.18440909,34 2.16672727,34 C1.15909091,34 0.354681818,33.2172273 0.354681818,32.2196364 C0.354681818,31.2444545 1.15909091,30.4616818 2.16672727,30.4616818 C3.18440909,30.4616818 3.96795455,31.2452273 3.96795455,32.2196364 Z M0.804409091,32.2196364 C0.804409091,33.0024091 1.38395455,33.6244545 2.17754545,33.6244545 C2.94872727,33.6244545 3.51745455,33.0024091 3.51745455,32.2312273 C3.51745455,31.4476818 2.94872727,30.8148182 2.1675,30.8148182 C1.38395455,30.8148182 0.804409091,31.4476818 0.804409091,32.2196364 Z M1.88777273,33.1430455 L1.48054545,33.1430455 L1.48054545,31.3843182 C1.64127273,31.3510909 1.86613636,31.3302273 2.15590909,31.3302273 C2.48972727,31.3302273 2.63809091,31.3843182 2.76790909,31.4592727 C2.86372727,31.5342273 2.93945455,31.6733182 2.93945455,31.8456364 C2.93945455,32.0380455 2.78877273,32.1887273 2.57472727,32.2528636 L2.57472727,32.2745 C2.74472727,32.3386364 2.84209091,32.4676818 2.89618182,32.7033636 C2.9495,32.9722727 2.98195455,33.0781364 3.02368182,33.1430455 L2.58322727,33.1430455 C2.53068182,33.0789091 2.49822727,32.9181818 2.44336364,32.7141818 C2.41168182,32.521 2.30272727,32.4352273 2.07786364,32.4352273 L1.88468182,32.4352273 L1.88468182,33.1438182 L1.88777273,33.1438182 L1.88777273,33.1430455 Z M1.89781818,32.1454545 L2.091,32.1454545 C2.31586364,32.1454545 2.49822727,32.0705 2.49822727,31.8881364 C2.49822727,31.7274091 2.38077273,31.62 2.12268182,31.62 C2.01681818,31.62 1.94031818,31.6308182 1.89859091,31.6408636 L1.89859091,32.1454545 L1.89781818,32.1454545 Z" id="Shape" fill="#0D55A3" fill-rule="nonzero"></path>
                            </g>
                        </g>
                    </g>
                </g>
            </g>
        </g>
    </g>
</svg>