<svg xmlns="http://www.w3.org/2000/svg" width="93" height="50" viewBox="0 0 93 50">
    <g fill="none" fill-rule="evenodd">
        <path fill="#292C4A" fill-rule="nonzero" d="M27.368 24.21h.965c1.097 0 1.492.79.79 1.711-2.983 3.772-7.588 6.184-12.763 6.184C7.368 32.105 0 24.825 0 15.877 0 7.281 7.368 0 16.36 0c5.087 0 9.649 2.368 12.631 6.009.746.92.263 1.71-.877 1.71h-.833c-.746 0-1.228-.219-1.755-.745a12.924 12.924 0 0 0-9.166-3.772c-7.237 0-13.027 5.79-13.027 12.675 0 7.237 5.79 13.027 13.027 13.027 3.64 0 6.973-1.492 9.254-3.904.526-.57 1.009-.79 1.754-.79zm21.097-8.201L58.99 29.956c.746.921.351 1.71-.833 1.71h-.921c-.746 0-1.228-.262-1.71-.833l-9.123-12.105-9.123 12.105c-.483.57-.965.834-1.71.834h-.922c-1.184 0-1.579-.79-.833-1.71l10.526-13.948L33.816 2.06c-.746-.92-.351-1.71.833-1.71h.921c.746 0 1.228.263 1.71.833l9.124 12.105 9.122-12.105c.483-.57.965-.833 1.71-.833h.922c1.184 0 1.579.79.833 1.71L48.465 16.01zM7.878 49.444H4.893c-.396 0-.604-.207-.604-.604V36.562c0-.396.208-.604.604-.604h2.985c4.892 0 6.856 1.926 6.856 6.743s-1.964 6.743-6.856 6.743zm-2.21-1.322h2.21c3.872 0 5.42-1.549 5.42-5.42 0-3.873-1.548-5.422-5.42-5.422h-2.21v10.842zm14.79 1.53c-2.361 0-4.307-2.02-4.307-4.344 0-2.361 1.946-4.307 4.307-4.307 1.265 0 2.38.586 3.135 1.492v-.755c0-.397.208-.605.605-.605h.056c.397 0 .605.208.605.605v7.14c0 .396-.208.604-.605.604h-.056c-.397 0-.605-.208-.605-.604v-.756c-.755.926-1.87 1.53-3.135 1.53zm-.038-1.246c1.643 0 3.098-1.455 3.098-3.098 0-1.681-1.455-3.06-3.098-3.06-1.681 0-2.947 1.379-2.947 3.06 0 1.643 1.266 3.098 2.947 3.098zm11.919-5.233c-.34 0-.491-.17-.699-.434-.283-.34-.812-.548-1.511-.548-1.001 0-1.7.472-1.7 1.096 0 .623.548.982 1.908 1.246 2.134.435 2.984 1.171 2.984 2.55 0 1.455-1.114 2.494-3.192 2.494-1.587 0-2.72-.737-3.079-1.851-.132-.397.132-.643.548-.643.34 0 .49.17.68.454.32.49 1.02.85 1.85.85 1.229 0 2.04-.548 2.04-1.304 0-.793-.528-1.057-2.04-1.36-1.982-.396-2.87-1.114-2.87-2.436 0-1.266.982-2.286 2.87-2.286 1.342 0 2.305.605 2.702 1.511.17.397-.076.661-.491.661zm3.721 6.271h-.057c-.396 0-.604-.207-.604-.604V35.807c0-.397.208-.605.604-.605h.057c.397 0 .604.208.604.605v6.327c.662-.717 1.587-1.133 2.72-1.133 2.38 0 3.4 1.058 3.4 3.702v4.137c0 .397-.207.604-.604.604h-.057c-.396 0-.604-.207-.604-.604v-4.137c0-1.643-.756-2.455-2.135-2.455-1.68 0-2.72.944-2.72 2.776v3.816c0 .397-.207.604-.604.604zm9.841 0h-.057c-.396 0-.604-.207-.604-.604V36.562c0-.396.208-.604.604-.604h.057c.397 0 .605.208.605.604v5.931c.755-.906 1.87-1.492 3.135-1.492 2.361 0 4.307 1.946 4.307 4.307 0 2.323-1.946 4.344-4.307 4.344-1.265 0-2.38-.604-3.135-1.53v.718c0 .397-.208.604-.605.604zm3.778-1.038c1.681 0 2.947-1.455 2.947-3.098 0-1.681-1.266-3.06-2.947-3.06-1.643 0-3.098 1.379-3.098 3.06 0 1.643 1.455 3.098 3.098 3.098zm9.898 1.246c-2.361 0-4.307-2.02-4.307-4.344 0-2.361 1.946-4.307 4.307-4.307 2.36 0 4.306 1.946 4.306 4.307 0 2.323-1.945 4.344-4.306 4.344zm0-7.404c-1.681 0-2.985 1.379-2.985 3.06 0 1.643 1.304 3.098 2.985 3.098 1.68 0 2.984-1.455 2.984-3.098 0-1.681-1.303-3.06-2.984-3.06zm9.935 7.404c-2.36 0-4.306-2.02-4.306-4.344 0-2.361 1.945-4.307 4.306-4.307 1.266 0 2.38.586 3.136 1.492v-.755c0-.397.208-.605.604-.605h.057c.397 0 .604.208.604.605v7.14c0 .396-.207.604-.604.604h-.057c-.396 0-.604-.208-.604-.604v-.756c-.756.926-1.87 1.53-3.136 1.53zm-.038-1.246c1.644 0 3.098-1.455 3.098-3.098 0-1.681-1.454-3.06-3.098-3.06-1.68 0-2.946 1.379-2.946 3.06 0 1.643 1.265 3.098 2.946 3.098zm8.35-6.668v.529a3.623 3.623 0 0 1 2.19-1.21c.397-.075.624.17.624.567v.038c0 .397-.208.567-.586.642-1.228.19-2.229 1.077-2.229 2.55v3.986c0 .397-.207.604-.604.604h-.057c-.396 0-.604-.207-.604-.604v-7.102c0-.397.208-.605.604-.605h.057c.397 0 .604.208.604.605zm12.05 7.706h-.056c-.397 0-.605-.207-.605-.604v-.718c-.755.926-1.87 1.53-3.135 1.53-2.361 0-4.307-2.02-4.307-4.344 0-2.361 1.946-4.307 4.307-4.307 1.265 0 2.38.586 3.135 1.492v-5.93c0-.397.208-.605.605-.605h.056c.397 0 .605.208.605.604V48.84c0 .397-.208.604-.605.604zm-3.834-1.038c1.643 0 3.098-1.455 3.098-3.098 0-1.681-1.455-3.06-3.098-3.06-1.681 0-2.947 1.379-2.947 3.06 0 1.643 1.266 3.098 2.947 3.098zM92.797 14.275c.122.809.185 1.637.185 2.48 0 8.701-6.757 15.825-15.311 16.408v-3.52c6.614-.574 11.803-6.125 11.803-12.889 0-.474-.026-.942-.076-1.404zm-32.579 4.563l3.55.027A12.948 12.948 0 0 0 74.6 29.549v3.54c-7.488-.877-13.438-6.784-14.382-14.251zM76.535.307c2.412 0 4.703.52 6.767 1.452l-2.025 2.953a12.905 12.905 0 0 0-4.742-.896c-6.822 0-12.411 5.28-12.903 11.976l-3.515-.026C60.627 7.143 67.783.307 76.535.307zm9.442 2.979a16.491 16.491 0 0 1 6.076 8.004l-3.348 1.06a12.975 12.975 0 0 0-4.713-6.17z"/>
        <path fill="#292C4A" fill-rule="nonzero" d="M83.992 6.18l1.985-2.894a16.491 16.491 0 0 1 6.076 8.004l-3.348 1.06a12.975 12.975 0 0 0-4.713-6.17l1.985-2.894z"/>
        <path stroke="#FF4A5D" stroke-width="4" d="M81.825 13.93h1v6.965h-1z"/>
        <path fill="#292C4A" d="M74.123 7.544h3.947v15.351h-3.947z"/>
        <path stroke="#FF4A5D" stroke-width="2" d="M69.421 15.123h1.947v6.772h-1.947z"/>
    </g>
</svg>
